<mxfile modified="2022-08-31T08:23:19.810Z" host="app.diagrams.net" agent="5.0 (Macintosh; Intel Mac OS X 10_15_7) AppleWebKit/537.36 (KHTML, like Gecko) Chrome/104.0.0.0 Safari/537.36" etag="IaS68XPQrdwdjChE-xmw" version="20.2.3" type="github">
  <diagram id="Ht1M8jgEwFfnCIfOTk4-" name="Page-1">
    <mxGraphModel dx="786" dy="769" grid="1" gridSize="10" guides="1" tooltips="1" connect="1" arrows="1" fold="1" page="1" pageScale="1" pageWidth="1169" pageHeight="827" math="0" shadow="0">
      <root>
        <mxCell id="0" />
        <mxCell id="1" parent="0" />
        <mxCell id="yVzOJAB2hOpr57MsigEM-95" value="Useage" style="fillColor=#E9F0E9;strokeColor=none;dashed=0;verticalAlign=top;fontStyle=1;fontColor=#232F3D;labelBackgroundColor=none;fontSize=12;" vertex="1" parent="1">
          <mxGeometry x="513" y="39" width="157" height="411" as="geometry" />
        </mxCell>
        <mxCell id="yVzOJAB2hOpr57MsigEM-93" value="Configuration" style="fillColor=#EDF2FF;strokeColor=none;dashed=0;verticalAlign=top;fontStyle=1;fontColor=#232F3D;fontSize=12;" vertex="1" parent="1">
          <mxGeometry x="13" y="39" width="500" height="411" as="geometry" />
        </mxCell>
        <mxCell id="yVzOJAB2hOpr57MsigEM-71" value="" style="group" vertex="1" connectable="0" parent="1">
          <mxGeometry x="329.71" y="760" width="105.29000000000002" height="150" as="geometry" />
        </mxCell>
        <mxCell id="yVzOJAB2hOpr57MsigEM-22" value="" style="shape=image;verticalLabelPosition=bottom;labelBackgroundColor=default;verticalAlign=top;aspect=fixed;imageAspect=0;image=data:image/png,iVBORw0KGgoAAAANSUhEUgAAAW0AAAIICAYAAACl0L9WAAAAAXNSR0IArs4c6QAAIABJREFUeF7svWmTXVd2HbjuOffeN+WciRkgQXAASIJDVUkulyX1j+iOjo52tNUR7giHP/SXjrD7o39Ih78pQtFWyJZYrpLdLlmWVSWpSiVVSWRVkcUJJEDMmcjxTXfsWHuf897NRIJEEsjEy8z7GEnk8N4dzj133X3WXnvtoCzLEvWrHoF6BOoRqEfgUIxAUIP2obhO9UHWI1CPQD0CMgI1aNcToR6BegTqEThEI1CD9iG6WPWh1iNQj0A9AjVo13OgHoF6BOoROEQjUIP2IbpY9aHWI1CPQD0CNWjXc6AegXoE6hE4RCNQg/Yhulj1odYjUI9APQI1aNdzoB6BegTqEThEI1CD9iG6WPWh1iNQj0A9AjVo13OgHoF6BOoROEQjUIP2IbpY9aHWI1CPQD0CNWjXc6AegXoE6hE4RCNQg/Yhulj1odYjUI9APQI1aNdzoB6BegTqEThEI1CD9iG6WPWhHp8RKFEiQMU1Wb4N3NcjxoF/Bqqfkp/l11UDZve+4zOaR+tMa9A+WtezPpsjMwJF5Uw8yj4CbWtAPjJX/XFOpAbtxxml+j31CBz4CHjQHgP2o7qVBPwDv6qYXkfTB37FDmqHNWgf1EjX+6lHYE8jQNBW5K0SJR64jdvWCJsfieh+p4rsiu1fQbPs6TjrNx/0CNSgfdAjXu+vHoHHGgEP2gF8zO1xmZBrPEldAmUwZr93h2Mfivsd16D9WJdgQt9Ug/aEXpj6sOoR8COwk90Oilz/VBRAEACBQWEYe49hfTssV0Gb3/O9NX9yWGdYDdqH9crVx31sRqAaYQtQFwWG62so+300Z2eBdhOwSpiUZYCAIF6W8i9fqh6pADeBvgbtQzt/atA+tJeuPvDjMgIj0CZgpynyJMHtX/4S6dYWFuZm0Tx7Go3ZGSCOAWs1kjYkUGrQPopzpAbto3hV63M69COwM68YMFLOGWXn6N/4AivXPkWc5YhQIg0t7EwH7VOn0TpxUsGbUba1ksQcR9tuWGpm5FDPjxq0D/Xlqw/+qI5AlceWeLkoBbDR7eLGT/8OjWSIdlnCphlyEwhF0i1K5K0mzl6+DCwujkDbqwFHRTY1aB/qaVOD9qG+fPXBH8URIGBvV4o40E5TrH34Ifq3bqGTF4iTFDHzkCiRmQB9Y9G3FuHSAuYuXYKdm0MpNMk42q7x+vDPmBq0D/81rM/gGYzAdvrCw+LD5eLjuhdVR0tOsHK8u8mrCdrV0hpbFDB5juHyCtZ+/SHiQR9xliGSd5UoyhxlwO8sYGL0EGDq0vNovngRZRSigIEtjbzHCwm9znvbAVXK4KvHte29z2Cs611uH4EatOsZUY/A1xgBD2r6r4K2qKVHaCchMArvIFJoWjCgpprKDlIajwBvbsKJ+kSPbcoCQZJh68OPMLh1G40kRYgcgQUy5ALaURihTApECDHIgeF0G/NvvAq7tIgiMDD8RFGiNAG46236kR1l8P5B42mVGrS/xgTZx4/UoL2Pg1tv+miPQBW4Cdi+flFCWkJ5teiFnLQDbZXfOcrDD5HUoss79LOFB3aV+OX37uPe+x8gThK0csbUBcqgQM6vokQcRSiSHNaGyIxFl1uan8OJ164A01NIihLWhPJQ4QPjy0BbH0Pj508N2pM1j2vQnqzrUR/NYRoBF4ruRnFINO1AW4rHnU5aJNKllreURV5x4GP466LvrFCliCBrCQyH2Pr4E3Tv3kcHAeKiQFnmKPhfoHpsEwQo0hyFDZBbgxwGaRlg+rkLaL98CVkcIy+BqLQI7DjKHyUnRw+P8QXY/hg5TBfmaB9rDdpH+/rWZ7dfI/BISoERdyXxVxYK2HkqETO/LeXfQv4lkgZpCgwSZMMBkiQRLbYhHbK1IT+HLJwZJOjYEGGew3KTEmmXKIx6iZQ5hPbIwxJZkUtUbQqLQRxi+o3XEJ88iSywwm07+XYlrt+R+dyvMau3+1RGoAbtpzKM9UaO3Qh4isPTGS7JV+WBAwI2I+YsQ/eDXyMYJijyHFmaouS/w0R5bhd5e8rCA7ImF8mFE40LhCVgS3LcyqIUJkAmnLdBwDDaAnmQyQYJzvx9Yiyy+TksvHEVZastlE0gJe+71ETutmSo5SYTN7Vr0J64S1If0KEYgUeAthLSJQxpCwJpnmPtk0+QX7+OmADuCGNlSXzNInG2okAR4lkd+aoqkqAMlFZxiCvaEbIqBO0yQBEw7UlipBBgLwOLpAyQhjFaZ8+iffllFJGFMayadAlRlxiVTZKeqYF74qdfDdoTf4nqA5zIEXgEaDPfaIMSJs8kwh6uPMDahx+j1esiKgiq/qWgLBjukpD+bx7AR6nNkVZwpFFB4cJyboMRNdGbiUlbFpKkJPqm5LkJ6CZCHwaLb74GnFqCiRpj5B89RSoh9UPlmBN5BY7tQdWgfWwvfX3iTzYCDtkk1FUM9FGxYYKRvPWgj/UPfo18eQXtLBNqwwXaLpLWnwWAKwDOKNk4BYoTEnpB4UiRMvqzD7td9B0WBO5SEpRDKrdthDLlzyGKxVlMv3EFtj2j/iTiEOiDf02c1q/JH4EatCf/GtVHOIEj4ONkSToKFVEB7SxDUGTIr9/Agw8/QkdAWLKH+nJcdRWod54i6Y4dGg99MFRw1Ss/lPvWl3DertlBJtw3aZAAUaOJ9XSI2ZcuoXnpFYAUid+WYY60gJHqydEhTuCo14ck06ekNql+1SNQj8CeRmA30BZts0S6BfLVB1h57xdo9/rCZWeVcnKH2+P9+X5h20A90IRjJWHIfXrQHiUvaUlC0JV3jm9lfpYMeMqoPw4xyDKExqKMYky//S2E8/OqaqH8b1vEXTmsPY1I/eaDGoEatA9qpCdqP17jsJeDelQMttfYbHIJ06/MwW0D1Ue0ZXS0yIMPPkB29y5m8lK47KHRRgW+hqaqj9a+M+NEpI+oPTBXr9L4YcHoXZUnuVEwl+Sm04bLZ/MSJgzRLVKYKIRJmaS06C6ewCmqSWKLIIpchabz496m/tMTrsb8e5kx9Xv3ZwRq0N6fcZ3grVaW6VXB7kPhnwOlEVAVLo4b18dRqTAiBcpQY8Kd1RoPIaEC1CiG9OTsTj51B72662PmK/B/nOrbfjm2b1p/2un34Y9RI9YR8asbkuyfqvly4Y3JTzD5mAqI9m/ewoNfvY/ZMEQ5HOgoO5mdP5KHilp2zBhVheycRuNfVM9hRGs7msZfSv95RuIyfo4rz02E4Lmz6Fx+AXkUIyitJjNJ8Yz8SUiz+MQp1Sb1a1JGoAbtSbkSB3UcD7FhrkRP7vSqtsHB6khzRnhiNKhyMQ3BCNr8ImgpaCsGfwXjVvlzlbfdFrN/iZhhl+fLaPTGm65K6La75o2Hevv56tD4x0MlynRDJEyiGyMPiMS6rMzAs6epE9a38OAXv0Sw1UUsIXMOY1VeNxmvAEFBb5KWJCXLuXlYE+t15WWsgDa7U+oI1aA9GdfO3XY1pz1Jl+MAjqWKHYI8O41AaZzvJ4f7s8jLcg3VSqt3Nl+GnyVoMybTG/uhCPCrIfyhz/lt7NQyaIzuwXT3sRoDf6CR6rYnQeUzOyTJo6Hwb3HRKSsX5bk14o35bSAJv4ChtmXyrhC1CPoDrP7qA6T3ljFDDxDy2eKyV4hR0yTAtgfllFTN7Czmv/UtOYciJHCPo3sVxYz0MAcwMetdPO4I1JH2447UUXnfQ6BN0PXoxoW8i6Td+yRANKRG1HeuRIigYB9CvcMLusxJSYeVaDPc2YXWj9sOkNyN2RiB9M4/VoF3L6q0ynZGEjl3PA/tnyA84hn800cpIT4o5PEWKIDbMkDIwpnBULTRRZqIwVO5uo7lDz7CdGCk3Jxl68YEyKkcmSDQzsmESEYzROvi8whfuoi8EQnfzSh89BQd/VBbRk3S7V+D9iRdjYM6Fs8AyP52tdwfHQlBuUTqQJsxZjy+uQP6X7CQmqAdugh0B2oLWCvS+kdDFYMfqy/4o6Llrxiv6pHsfOv4iPTIdBfOYlUMQrSyUTrGEICzDEhS5P0Bhv0B8kFffi7yFIN+T4tpBimajMKzHEWeIW7ESOg54kByL8+b/ZoKEmmHAYJhgZZpYN1azL79OsypeYBctxTquIfWJBzwfg3EId5uDdqH+OI9lUPfBuAeWr2bMyPNIfKSX6nw1lHZhkHT0SQZYFLHiQirqw8BCVkrrnXuewXtsRZYe6p4W37ueztK6PvHv9sZ7+0WrVfHZGfQ71Ua6tpUDcOdDEME1wCSBMVWF8mmfmXdHsr+ACanX3WAMsvFZY+VjOSqGU3TS8TSTpXJPjo3kevmOsSqBjqGVTbpGb8I2sMiRcc05NINQ4vi1BJm3nwVaMR6DQncrkT+4avyjE+g3n2t0z5+c8ApeqUiQwFRqA7+WsJeAnaCskxRFkPk/U0kaR9ZnmBqahHWzuDmu58iW+9jOjIITYG42QDCBgLe9M0QiEKUUYTA0OciFBALQosgsPI7UVKw8awgnE9quishPzp43ZEYtZIp89DtQNe9XytcfB6R7+PDwznseXwWtz2NmouMUXIudqZltwts9YDeAMNeD2nC82e/FzckrmBFPLMd2PPQq9y7/Ox+x2pEsg+kIfjFV+hSAs98vonQpYAJDIqshIkb2CgLzL9yCfHF51Bai6IMxCWQiwxOkToN+cyv2rYDqCPtyboe+340JTInYVO/inF2jIhDZKET3SaSpIss7aIc9mGoe7MGQdBEu3MGxUqK2//wARppiobJJWodpDniZkuUFEWpdAM1wjaMYCyBmu5yoX4fhlKRV4YWJo5gQ4swjhCyizj/Hkf6r3x5K1FG7lQ4eKiseHdIPO6EeRLkkwMoJGLGcIBioJRG0h+gGA5hSWskCTKCc54LEIc0YyKgs0sMnfAk1FT1hG6b+/BPBfLb+pOUnI/kdHr5ZP3g5HPby833/fI+1g5KVmzGIZKyQGgipHmJvNPE7GuXEZ08ITkKygBZUWksme76NUkjUIP2JF2NAzkWVSSLek20uQRDRqT0ex4gTTfQ6z9AUSYIwwLioxGUyI1BmhjMds7CBvO499c/Q9Trw6YDxCG3w64oRqLX0JVDkw0vcvLegQAzcZR0gvzHoJfgGFrk7DLOhJ0cWaBKCwF5Axs74A9DhNPTCOIYjWYDcbMJMMKPIj0HAu5wiMFmF1ubm8i6XRTr6wgcKFueL1t+EaiYKAyMKD54vCK4Dqmg0ONTwFYKhdAs1qhaPqwFLNTMUMbnBDT8nfcLGT1SKmXoBO78EQZ6B3LJKzuRh1BRIg2BFKR7LGL2lWR3nMVZLF59DUG7o6dvQuRliaj2JDnoy/Sl+6tBe6Iux8EcDJfHwiWLOoA0SB953sNwQNP9LqzNYaiKKDOJIlNk4hgX2A6mwiW0oiX0Pr6N/uc3YJM+QgF9xmMO3lykTTClnwVhrnDttkYSb763KBGaQP8mjnRjnbDG0dR9a5zL6JfLdvXt4O/930uE7I/oAZhCDRfvFlw5OKDlkXlwVXmfdm+0BG8AmS2R8DwcKrMTjDAhD1e46EVyxS9jWkTpphFl4qgSsUglyLv83sFc4S/fC68Jy9tF0cLWZYGR59agEWLq4vNoX7ooBlPSyT0IENagPQmXbXQMNWhP1OU4gIMZKTEyFEUXWbaBLFvHYLAOawr5Ii2gwK43bFpmSHgD2zaiYhYzrTPIlntYf/cXaGSJmCMxyiYVwqSbd4uTqNopMfR34+IUSVnyvfLN+Pc+gTlOPzp9M3scOkh0awU1Q5KgmP7VASwBXjrD6H7Zeqsq9dMIWt/Pl3DtzldaC2ec05134yOGazfehy7MaBgryhY5lpFaRr1DxtH5zrTpAVzr3XYRMEFK2SLk2vpVjzzGjcWw2cTS228AM9NI2J6MFZPP6FDr3e4+AjVoH4mZ8ZAEZJeqEon3NOPI/oJZD4NkFcNkDSj7iKIChYCv43GZNCTPKx28IQCY5CECzGB2+jzMMMTGe+/DPlgF8kSojDQrJGrTSFSjYw+00l6LID5CAP0+IGdNvw5FU4luQxtq9O3AVyJ2oUAIqq5wvgKmvsO5lJJLbtNFz2JR6i5wBVwlEVqU8qwQ8GayjcUmPA5H4fBjdkfHdJ96VHB2H3ZDLw8Sl9tldCpMuIu2Fbirndqf3aTzxTWkh8okJXLrioa6c1ikjRj9ThNnvv2bQj2RHmHTBEcQuTXMaLGx3ZHAnVYN8vt7fWvQ3t/xPYCtO511aZWn1nuQC373DWkL3pDUWndR5pvIhltI0gGKIhmVogdClYyjQZ96K0oWzbATCjlviySaQRkuYK5xAsNfX8fg08/oJSfNYslZE9YJ9rolF22ObnWvqvA0hKtarIxSFRy2DV5FrSHbfhQyPMb7qmc52pRXhXzlFfOs9vY3+mPaHk/7s5kMwPZHXF198OFjpLAoQFkYZKHFVhBg/pWX0Dp3WpLCjMBFrigkvnH8vHbRGf9eeXuhoL5yDOs3PMkI1KD9JKM3EZ+VdB9QRGP2QbDCVTpK5JugKDYxTFaQUxGSsSCGncBLBHSIKzXZuPMlRTOlQRwUiMocbBI+DFrIzBQWO2dgtoC7f/lTTBnWmQzRiCOU0lJLtRYKiIzWeSPr9qUZLflyucHpg1HHZQc9jeSx49QtopyXFYr+Ig8MkjhGrxHh5FtXEU1PoQzlUeyWOJokzpxsUJQlldUGf6xBe3+vaA3a+zu+B7D1Cmj7AFQSagRt6pETpOkW0nwVabaqIFpSM81lr1NyMEQWvrkC3NK+imZIJWKUiKk4CIA04E9NTDWWENk5rP3sVzCrGwgyRtuVO9iJ5WSzTl0hNIFwvgraWshxAENU72I0An4hNubfHWjLA5TXO0BiLQaRRfvkImZevYIyjhHIw99dL1+a72io0eKuHucDGYEatA9kmPdvJ5pUY1zrqxFJiwxR5APk6QDDpI8s2wKCPoxNtDhFlB6ewPBA+/Ax0leDXs1Rrp4iieORDev7zAxandMoVxLc/5t3MUN1R56gCJ3uQ9bgLoquArcvnRGlyNiSaP9GqN5ydQT0AarXhUVAXPn4ZKlQHWwGzAd0ZJFFFlPPP4/WpUtCi3iunlOOOQbh8N3G/YPZLa/qQd/HEahBex8H90A2XY1Ugz6KgmqQDQyHm8jSRDTTlO8hyJCTw1aHEHdoDrjVDvqhl5Rp2wImp6sduUxXdl4QbFvozFyAKaax+lfvIdrYQlikKIjwo+fAWL1BztTF1kKX8Cfv3Xwg41TvxOGp5hl4uQu30tJKT99UgSX4BgPq1+MIgyjG0ptvwizMy/UHe07mLMpREsQDt4K240lqxmtfZ1sN2vs6vAe0cRFa9JFnq0jSFaTpOgJkooooXdtuVa15vzrlk7fh/W6ZPaExqXUm0NMQiqXd9N0okAVNtNpnEWMO/WvLGH5yHU263dlEVCPUTcs+VKiB0qlKfERGyVkN2gc0Pyq7kTyC18M771o+T5XXprCogLVWMh4MvBMbwpw4jZmrl1FElH1SE19KUY4mJsfAraa+NWLv91WtQXu/R3jfty93GgaD+xim9yXSDk2mS94qReFIFCEvqg7+X3J8HtazwAroktc2LFMPCiR0+7OzmO2cx/B+D2s//zWmUypUhhLHa8cXTTxKq4RRLbSqSwjaEqnt+/jUO9g+Agqqqif3Uhu9GKoi2Q67eRBiGDbRuXwJ8XNnkYn80sL6djhu+aQRt1aP1rC9v3OuBu39Hd8D2Do57D62ujeRpqswSLSCTYyV/O1DtYhyEtv6uYzMl3Y/TNWABEgDK14bjRFoA1kQIkkinDhxScjutV9cw/CLe2hFgMlyxNQBp5lKECMjjneqY1bFiCyu6yTkAcyP7bvwPSRHJZ0K4aPK0bHux/W80BmFrVaEc996E5ibRV7Qj6TSDIMrMslR6nyp1SP7e1lr0N7f8T2ArZOn3sLG5nWR9QVIEZaU/3mrVFqIpihFTeLWs6ME4ZfcXkHhoi4r0RUTkjEbxbpbM2dfQdsA0EBn+iSCzRIbH99Af2UVEUG7ACJalbJghXUxVjXaAtqOP61B+wCmx85dSPK3qob3CekqdTb+kKzWAostVo8uzWPx9dcAqkkMbVwrMbV09qkYdz2DUzsuu6xB+9Bfafpcd7GxeQ1luSGgbUo2a42EcJQmBUEqlIboObapOnYD7Yq3tPCfoXyWShJ+nstiGk1JwSL1ujkw1VlEHC+g7AXoXr+N9S9uo5mXaEn+M5MeiUxisfhCPDvYpWuy6k0O/Sx47BOoltm7hLDQWCMNvY+Yx/Wf5LARxhhYg/bFi2i9cFGSlYVlYOB02YL9VTuCxz6i+o17HIEatPc4YJP39gJl3sPG5qdAsCpUiSlp1U/QJpGcozDUcuvtpZylb9vtIyV/24oFnL+FFWFLFlbw7k6RmQC2CBHmvFlpsJQKcIdFAzAzmJo6jSCx6N+4jc0bt2B7Q7SY5BJeWyNtfXAo512zI89oNonZFVUkqiTxTJUkhlls5X4zMt4qc+nWHpgGklYLM994C5idQkp7XWlapg/hUR6yJrX39cLWoL2vw+s3XlWz7tyhn+38/W5lCuPycs8Z6j3lEkplH2lyH73BPQToASXVGxZGbiU1BPKJx5HJqJdm7XruO4tsmFpSqV9Ga2saQxUsmS9QhqXYqlrEyBAhCmfRihdh0EDvxl30rt9G1OsiYkdyqYK0tA/Rx4fIB/VFAJH0lQeQUfHdeGxGOFAj/VOZsTrTxv4oIgH0l8Apjbgj6ZJpS5gBLW0jDIIQ9uwpdF57GXmrgZJzTQIBZ0mw2xR+Kkdcb8SPQA3aBzIXnEaimvgboZAzS3LqDknjOFD11YOuraxCMKMekc+VyIcJhsO7yEuqRlJnRqeyK4Xag3wR1kOYYA5TnRMIyibyO6vY+uQaio01tC1L3XOEcUPK4dUoSnl2Nso1pF3c4UrXF+G/xQRbR8YBwwGf1EEO4ETui7kMztAoZ1WsRQaLrdhi5srLiM+flYYWNPcqqQgKVSK0LUTZOQl3+IrXQfneL3sN2nsfs6/xia8CbY2yNY3Dl+8uo8vPkfpVuqqkKCW6XsdwsImiZHQ9kJhI3O0eUSjzNQ76a3yEraoiWNNGqzEPG84B97tY/eQT5Gv3MR0WKJIMhstseqWEPGvKE7VKzxfg+K4vukJQZYMu1Sekk8DXGJnD+hGVBmrrNap+GFn3eVVmZzD/+quwM9PaokwibVIo4zN95OpoRyXlYR2bZ3XcNWgf1MiPkbeyx2oxQjUyTh1AMXJxmX4B4wR5xp6ND5Akjr/21euqih5FOlV9wEGdIkFWGhUUFIR10GqdgA3nkW30sPXpx0jv3sAUu8YgxjALxRa0dJpyKa0eNTnw7I+LsD0Pf+CrhwMbuYndkdqgl2LRCjo58loYiwFJsLNnMPPqZWkbVxg1larO6G1p7l0i7ok96Qk/sBq0D+ICjdaLVf7a79iRgD4xJ8k6X3LiYxV+LkWSrmPQWxFpn7UDlAE9RgpYdkf3/LXjKg/itHbug51iCpIkZYiwbKAsW7DNBTSasyh7CR689ytgdR2NrEQjamKYDyUjKSPgKjcr/YY1tnYUu5caHizl8yxGcbL2qddGjX0Rs8NNhpA2BoHFIAxxgu3JTp8WJQlpL+9B7qntL81F1NzI17rYNWh/rWHb44ceAu0q6+fikYciEf6ChTMJ8ryLJGErsA35mf0c2VGRHtjkEoXB9m27niFo58YZTGUBIvbXotVn1ISJ59BsLiIYNrH560+R37uLKN1ydq3KZY+oEdcUd0RwVxrnctRr0N7j3HvCt/sHKrltXl92iZB+m2yYYEIknTYWr74BMz+HIUE7dNezouKugfsJL8KOj9eg/XTHc/etbQNtX+TCHoTkoCv2pEKBaPcWIzK9PpLhAwyTVeRFV5oNeEc/VVx4l2py3b6N1rMLX3wCkZFYRL9ldsgJDNKgjTBeQqt5BuiXGF6/gf6ta4iSDEGq+m8aEBUM1UK6mzh2yDE+2wQJNWofxIyt7MP3oiezrYGCUCbkt22EXhGgdf48pi6/gjwMhSrZ7qbOean5ltGreg2f3XQ94HF8erurQfvpjeVjbImzdQzaqqOmuZIrOpGqRe2AWBR9DIarSNM1FEUPxiQaXYvUjyXEoRS+kD8oJSKfBDSTVrmaFAWlgJnIwXI0kAVtFGYWU+1FhGWM7PMbePDxp+jQ7yIvUWY52q02BoOeKEtGyUh3WiPgnoTTfIwrfWTeIn0kjXSx982gxe1P8sNc4cUYxk1MX3oB0fPnVYlqVEXCHqDa2HkXG6ltEpMjM1oHciI1aB/AMI/nZxW0OZlHLkqOCmEkPUTGZOOQnWZ6WuFocnXX0xy9ZOkUHFX6p0D/7NHM8OZmyyqbIwtUcUCahHw1jzBj26poBq3mEsJiBsNbdzH47Bqyfl/K3pFmiKx1DyJvarSjZuPZn+YBzJjJ2YX30Lb0naHkNKBeX0WobKZBb3bRLs1MYfHN1xFMTwOGwQTbz7Fxsxk1Uqb747bAupq1nJxTnvgjqUH7AC7RGGekgZeLO0iLuCks0rYhsnwLWb6B4WAFoO5azOb9pzU5qeUyrgu5L1CZECCTx0gRIDMFUgmw1A0uksa2CbIyRRY0ENgFtJpnEQcNZA9Wcf/9D2GHqRhSUQ8cuObCKjfbEaZNyLkewLSZkF3oXJM1oWvMLM0T+LM0vqBYyEqDjHhpATOvXQUabe2W7MyACeC74XPNjHy9S1yD9tcbtz19ymtGdOq6aNm1bpJmvIZ0yCZ6gxUMhw9gA/LXsiitWPt4TtC1CGMS0kXX1MdOwkv8tktWPrJhAj2ZtUNOSC12PpSqyMA2MMhilHYGU60lxHYK2UYfq+//GsX6JuKsQJONG6RD+/i5pgBQv57FCGh8PJptmjhmK7o8h40jpAVzF0qLtF6+jMZz6k2isnotiyfAV1/b8hTP4qQ0tji4AAAgAElEQVQO8T5r0D6Ai1eNtP1i36slyGcHNkNZdtHt38dgsIJGmCBgCOOrAF2MLc0FRs4g2ipKAtFqe+0DOJ9H7iJgoipDIE2GI+RBgMym0jWHbn+sqOMDhqXsGc2GzCya4RKaUQvFRh/dTz5HurKGOM+lvdmoGbAsy/06oxJ5V/huf0zbIvMa5Z94NggWMy8hLn4K39YZTZHbZt9QvqHIcrTCEN2ZOcxffQtmquOagxpkjtuu0tgewutoe++XqAbtbWPmIbEa1z2kOH10yOdmoE7O6ract8aO6yOALY49pEwSJOkmNrfuIg7WHcft5HwE61E/sHHEM+a0JwWdtOw8kB6UnsKhQ6Aenx31pmJlXYGyCBEELdh4Hs3mAkwSYv3XHyO5fQ/RMEGbDWSLTCjSLE9hLB8GdC5UDY0HlGrdtLD7jlZRKeHeb4r6E9tHQOLsURWjN5nSbgmuuZyzIwCGJkJ46iSm3nxVKyUNO90w8B5TJK5RmUbg7r96zB9/BGrQ3hW0twOugmMlJqgCwS6hggdtZZ9HNY0P5dAJxOyKTg88purSfIhe9z6C4jbYNkCBb+S1Ju8dvRww6s+Hs/+LZ0vZuixuLKAVLyAYAKsffY5wdR3F+jqaEXnTVDlS19hhN9B26kD17nZskS/MefzboX7nk4+AEQvXzqsvITp/BgiblZ6k7l4QglvpPW2ZUMfbexn3GrQfGq0xATH+03gxV13iVRDUffvw+yqL+kdMzjFoF2WOLFtDv3vNabLHgC2xZXVub+tMczjDSedoAcsEFxOW0Swa7RMI8ia2Pr+F4fUv0EgSBBlpFytJ2bFV/8NXx69vhF91o11H2nuBgyd/b2kM+nmBcm4GC1dfh52dQRloibt/qVuBesropK5Bey8jX4P2rqM1jrQfhkOdYFV2ecyX+Khht4m4W/5cd87iAxYt6Ha62Fr/RHTa42a8/PuOI9nR/3EvF31S3itnXJaIxd+ZDYAtTDiNRmsJxsygd3sVq+9/gk6ao5FxDDIXoX15UnIkyvEoPiknfAyOg/7qTEimJdA8fw6ty+pNQicp7YKjFrB8GTEycSbrx2BsntYp1qD9yJFUkNyNeNgOyTuaBijT6kr6qgH4o0HbQbfb2xDp4AsMBqsoSnZUd5H4biHjYQdu6n0ZbTkNsJFEa4jSTqPVPg0TzKL/xSoG164j2tqCLdlazT+8dslCjkK5p3V71NvZ6wiw3J3XlC3vhlGM2auvwZxaAqi/533hvNLlHnJFZXWgvbdRrkF7vGirIuxDv905rCMMlahhZ3GL51/9Jh9BqvjO1z6BKRx3iiJfRq97D2nWR8hy9pIRpqdHdi4lnTve3q77RLybbcx4w8pYFjlCJqvKAEN6ttpZdJon0TCzKFa2sP7rjxBsbcKWrAp1RrayvN6e8pXHpRvuw0kaTcSl+doHQdC2xiIYFshthEG7iaXfeAuYnpJo2zUn+9rbrz8oevmRLOEYj8fOxGNFBsLEVu5kpx4vq/lA0Vn7dXj1D1Vj4d1Be/cBZwJyE/3+CoaDNViboiiGtOSQLPwoten4XW5jUnTae51AbF/GxULM7jduGqawyCUqs7B5iKnGEkw8DwwMbv3kb9Bkh/c0R2zUeSVLU5iQihJHWzlvbr0iNWzv9Zo86fulxJ31unmAwETo8zqdO425V19GLr4kVnzQTET1vri91oH2Hge9Bm0ZMAn1fOpqTG34XInI8ipfkgR0xQOVXqaqBnlUXuVxky08jj6ybAOb63dgwyHKcigApQqJsTRiXFxzOJM5agTIHpPsXiOPH9HRUA4oXhcMxIMO4tYJhNE8gm6G3kfX0L13H1NhJOXvIX1KpIel8yP3DRW2uYvv8a6o3/61R4BmCwxi+EiV6tgywKDdwOzrryBcXEBA/SYpsCBAzp6jdey957GuQXsE2lXO2bd/cWBOv4VhF3mRIm5E0uAUZTwG96DqIeJBuwr0e5E18UnBgpQBNjduoSjWQcKAilitj2Q3G21p7luwbuuwvucp8Aw/wKYJGpfJrStVoEJ/ZCAUs0tKUkYoghaajXm0gxlgEGDtgw+RLa+gFbBNmZKjmtzy0bY2W/PSy2d4hsdu19Tki5gvMDA5/bUt+iyymp/GyW++pb4knMNMVlojV37H3XPsxmyvJ1yDthuxbWlCudvF4kiKXoqsj3t3r2NraxUzs23Mzp1C1JiDMbEY5qBgdR+7n4+1Zr6voxIa4w40j3OByiJHYBLk6QNsbt6CMbTkIZD5uIQm9N4R0FdEPm4k/zhHcDDvYaE7X0kQI+dNjhxRmSIsC+R0/rNNKc5guTT/2jYnETcXsfbBRyjuLKOZFwhSti/jeLDbuyaB1ba2Bu2DuYrb90Jfd1ZAkvbio1NWS1GEHn9eXMDC1atAFKE0ofQB3dud8SzOaPL2WYP2TtAWwOb/ciBIkA5WsXL/Bra6yyiLPmyYw9gOms0lzMyekK4sNuxI2TbtUr2ESfXEriktyOXtAVQlemS0vYmtjc+lxF0a+sptoMXdwh2ybJyUzIR4j+x1epPH5hokk4IYLcvnaVn6lojbrJHkJK8FH31ptoj5ufO4+977wO17mCoNYvHfKmQ8BLSdfl2ppGquYq9HV7//a42AJJNVxmqtRZZmEm3nZYC0EaNz5RU0zp1BIfatgXiS7OHO+FqHdNQ+dMxAu5qYqoj9HUyPmWGNsLN0Ayt3P8P6+h0Ym8AYdozJUDIyLFnp1UC7NY/5+TNodRaAoCF8ndM2jIiXh4vYdyY+t08rRtp0/QtMH8P+bWTpJrI8ETDz2XcqL9SqdYK8R/Z4d5hSKRGOdWly9SoJYhTSY9IiKnIYUc5IEzMkWMT87HncfvdDRPceoE1AyGiwDxTsrFIBbT2UGrT3eEme+O0ccYJ1MkxgI+t0+NrFaECH9cVZzL71Omy7Pc4LuXJ2v/NtafvKD9tWw098pId3A0cWtLfrNfxPu4G2JrBoYsR7niARSCJwDSv3PkN3875EvYHQERXfD9lUhLIMUSJGpz2HmbmTaHXmYCwnJDnvEKV0sNaNawcP/Zcvfl/NnauAglrkTZRZF8PhBpK0qx3LVRc3nmkVf42RxeshnIc6AhplK8R6nbtagfp2xxqTdzA9cxH9m130f/ErtLKhjAu9TgjaclOX1m1Lt1QLSA5+UowtdfV+E4MpGoWxk3to0XnuHFqXLgJxBCnGKelnwjwNGweXKGV1FWhy2k15YSHHFRAHf1ITtMcjC9q7j/GjI20tzqLZ0RBZuob7dz7GsL8iES9pCH/3ew2HKEUYKQrnqglCG9JDYwpTMycwPX1CwbuMkBGsaZxDOqDSXkyAWFyjWJDAfeQoiwHSwX1kWRd5nqgBk4+qpRrBvQ57Yc2ebwJqHhuYnn0BvVsJBu++h3Y2AFccJmCyUgkpIw9RNa4aibj3vK/6A086AtqnmfeI0ztlAUwUScOEfiPG/OWX0Th1AohCFATtETiTSuGcZ7eciuGXq6ScDBPiJx2dJ/v8MQPtRw9WUTCapUVqH8t3P8Xmxh0EJUvJdXnuLVXFXU5AtkCZB7CWIKE8Xk7pWhijYDfyaBqnTz+HZmsOQEuicen9SIqj+uxglZ9hx5oEw2QTva11hCZRk6QgF1tiGkoJp+2M5XXlf9ymbxW0Bxi8+0uJtIXXr0H7yVDgKX7az0p1W9SVEsGXkTThe1CWyJpNDOII577xJjA9LZG15GUkgWnEHMzfIqMSCH+MNQF+lItrdidIqvNzfP05xXrIsx7u37uOrY37iGwm0a7h2q4yhWQJLlku3yePzLLSHmJVKU15Q+RlKNxsu72AqekLmJk5BWtiBMJ5u3U7o+tgiDzbRH/4AGnGDuVUKqv3mcj6+HBwfSW3GckfAcOovWEFk7ANTM1eQvdmH4N3f4F2TtqK18dui7SFxqoj7b0N71N6tyhGeGtIYlgJL4J2GBgkgxSm0UCvKIB2E9HJE5i+/ArKkOorNrm2KAvWOmjRlc9IjKpcPal9zIH7CEfaY9B+FKM9vvYEzhU8uH8DG+vLMAEBu484ZgSdVQJjLXHRIlIFasVv9sJTtUgh5sGhKEkyLglNCzNzFzE7dxahjWENPaQZbbPJQYLBcA3JcF06rwdMdDKKL3zHGnfkAt46mcf0SFX7XQ3dn9LdN3Gb4fnGmJ59Ed1bQwzfY6Q9cLa2LNZwAFHo9zVoP5sL6EFbrNOd/arQHAUQGivyzZISwCyF6XQwe/UqzOKi5CR438hq1AO/rDL1JfVtQnsdc8QW1ulIlrFXVQOqT9g9BalaZ1Iia8sfYGX5luvhmCGkjzMTXaNed5ogc+kt3SKJcCo4JCz2umk6Y3N5R912BBM0ceHiWzCmgc2NdcRxjFa7jTztYWtzTZr2iryPCchSm/eS/2ZTVIlS3P6rna018VhNYh4P0M7LGHPzL2JwJ0X/3V+gmfSRlxlsENWg/Www+qG9ilKKt4YHbfGWKSXSzpIMUWiRkUaMQgwKIJuexeLbb6LoNJCTaiwDuXPYDFp8ZRxw845ypVMTcqbP7jCOH2gLvmnST+R7RYqV+59hY+0aTEDlhtdWO1rEPdg1neKnjlcmeMcnhWkxdQ8YTXC110SWWywtncXC0hkMBn0MBj1ZzgvlUqaQIhqXHq/GD5pIewQQb0tA+k8dfdDm+BdFJKCNzRgrf/0TNIc9cNHiFSPykKsj7WeHJrJnnZM+EenDJUlI+tvFvY+6+oFpoHnhPNovP4dhbCU/EbIiQZL7LpcswK1z3K9Bn/FJPtPdHyvQdtNJAJNueigHWL53C6sPvoA1Kq3TJZguxbbJzWTOVNxtRjg5jr2FGgksiiIUWgRBE889/5IkM/vDDaTZENYwsUmwdpG59zEpnZmO7Fld/R56PaQYOV6gzWTuzOwLCLYaWP6rn0ikbYxK/mp65JniyGjn9BQZ3RGOspI7RyjFkXOOw/IAhYnRi0LMvHEF0alFaZjAyt/Ag7YitRaTOdA+7gTJEQVtx3+5R/U2sUYxlCKZIttEt/sAd299htCmKEuKkTyHvAMwd8HP7XVc+gZOSYkIS/bFa+DEqecwt3ACva17yLItAWPSIeTJtTeky6ywklLah7HDB39L5cjOY9iu6R6FIW7Pk3HL7t9RyLgStGcuwvRaWP7LH6OV9oXsNEUN2vs38nvb8jbQdmtT3cJYrupBV+wGAosu5/riHBbfelNK3L0/yYjTFLmfxtrCd+/tkI7cu48FaI+vGvlrmi/1sPbgBlaXbwBlH8YlTLYDYfVab2fFHzlpjHGa7RhRYwbPX3xdynj73btSsKNG0KUkKyWKH23I94L0rJ14sD7KLvDITcLHOSF5IAYNdDrPIUymsfzDv5REJDNcNWg/zgge0HtcpK2e5+MpLuShKELGwYhP4mdBgNRG6LDTzUsvAnGMgklJ93kSk+OytuMO2Uc2EfmoCUodNgH7JtZWPgdKSuz6YG9GmAbKbTI6vw1Pkzjg9qb923ahYExgSbICUYMa7UtotmbR7w9RpKsIyoHzWaCob/tLlQ7+weD5cq94fdQkPfo89vbHpoJ2u30eUT6H5f/+IwVt8WSp1SMHBMlfvRtBYq1w9By2pOslMUkZoAKwAnqJTPxzAoRBA1sFsPT2GwjOnERqQ8k66frTLTw11D72ryMcae92bQsMBg/w+bV/QCPsocg3XYm4trnSuKD6XNdwQfm47RCyPZPNooBcdNkxDftNG+cuPCcPg83NTYRmKPI+v7jzSU3dojOWGgG3b3o6WkRWdlz93c7YQ0FfeXj1JNGta5mwFC24cxslh8T+tLqK8F1w9qJMqVBK+1ilyTHLEaHTvoC4XMTyn/0FOvkQKOioT9B2CWRSTa4svq6IfDb4JrNHnBbHkbYW2ziSpEL9pcgQsWlzUgJxA8ncDGbevIqi00Emzo8etH3QVKP20QVtj7M7AtVudxnXPv1bxFEX1rBPCqV9VHT4Ca4f2K7gkGoBB3qcNJTpkcJwWmkpc09QFm2U5QJOnX4ZU7MWG1t3pJIxKBMHplXQrR7YzofCLp0pJZL3t4GPUxRk/U/quS1tBPQM5GGj075wPtzsOal/Y9KU1YR+6Vk5Np8clS0zOcvXzoeIv4nGK4SRRmsfWEeee4YI0+3nEBVLWP6vf44ZVrGWKVJ2uuE1oG+Fd1SUc6+X0s8Gtsd7HQcPDx8JbykmGFnCLo0wbIit0KL14otoXnwBpbWj1iSSDxIdQG3meuxAe2tzGT/+8X/BxedmQd8xUOcrD+/MAfMYAlVJUolER2BGwNsJ2tRaU389i4uX3oKNMqxt3EJgMzX2f2znIlewsyOyV9wcR9dVmPeRDd+iqnS9Vajtlq0ZI34ORqrO9Fioh2XZPbHNcgB8C/Oqqr2aDH1kFO3HyHt97KXhw+NDinQ6KS067fOIcRL3/uyHmGIZe5kjYxsrnp8Adeh6SG7nTx9/T/U7D2oEhOOWxWwAKwVk7HFh0G80cfZbvwHMzKCwNJFinKE9RLcz5Qd1pJO1n6MN2g8FWiW6W2v47jt/gFMnW3j+wiKArvhmj2w9Rrx2JUaQutxKtDnqHCsEnvMm4bcNpGkTZ868hOn5OWxu3kdedmHo0vdI0H4Ifkf58fFfxg+O7XTG9oiG/g1q/2/0ZtCqHwHnwBLO+aBRx0AplCdtIl8s4lFaSKkVNbEas4+ea3nU0rSiK98nikSisjJAq3kWTXsat//bD9FhA4SgQGqsPKxCNk5ApK5yjvqp+0ROFuBsP5oAAT23M60EFvLERujDID55BrNXLqNsN53lrvY32lYVPMmnto/HdnRBe2Tk6EdPQWhrYwPf++47uHPnM/wPv/MW5hYYkW7ByqRxT/IRFeKBeicVUOmA7rnoMkSeBzC2iU57CafOv4TuxioyrMkS/mHQ3qWAxgEeAXX8yFDoHv1/5PTngXzMHGrbMb6XPsY8HfqfcM8WU1MzCIxBmvSQpkMUuUbc2s/Pc+BO1TJ6wDi71NHBfBmf+Ag+6ilNXp5aVpZoNk6jHZ7BzT//a3SyRMgQ4T5ZdceQrIxcAox8vTS+ekpHUG/m6Y8A7xeLhCXtRGShEplwtuiFMWZefRWNM6dQRKwQLiXSrgmvI6seeRjQfKXj1kYP3/vu97F8/zYWlizefOs8OlMZioy8s4K0/LuN15V41UXUztXXu+zRBVCSfQ2dWHEEBC2cO/+GuJZtDW7DgKBdNZ5SM6jdXgq8vjxBQdLDjgb7/nP+HEkNMM70ET+BiuSfRV6wm04DjcYcmk26DbJMmBr1AZKE1q9dFBjC0C/cceEq1dKkpaY1c5es9GPy9G/dx9kiVxhpCTTiU5hqXMC9v/gxWv2BdHEnaPNfS7pn1K9TK1THo/c4e6nfc5AjIJpueupwFUgVEJteFOLqgzSOkc3NYeG1VxFMT0uDYFo6VJObB3msk7SvIxpp7wRtt/RipL05wDv/4U+wsnwPgdnEm988h7NnWzBFKtwul2qheCCQbxv57enSTRKO/CK1IPXT7memxdva9koaFkQ4e/YtNNqz2Nq8KTJDFfo5+H0EYI8nBqNgBU8eA21IGCWP1wz0G3ZGVaPEjJok+RIE0I+jZNR/AsbMYHm5i/XVLUxNT2FxcQZRlCNJ1pBmGwLeAVIYJ79SCbmVfdLbw1X8PNPEnkTaCBBHCtrdn76H4v59aTVB2iSiYVeWobCha4jAVUPFcWiS7rr6WDQYYaciPmythckyUOTHNSaLIVMTYtNYzLz8EtrPXURpDEqrapLjHm0fUdCuxqeOd3YVWWtrPfzn7/8At27dQhBsYXahxG//9huwbC+WDRCH2mkmS3NEISPVikOwgK00JdwVtJnhLgKCtsXc3CUsnHgB/S4bGrCjOhOVTt4nHiXeLVCje43wA62UDDLkGaVsVs2Q6PoXEMD95xS08yKTB433/KKZfGCsVGSGYQet1iKKooEvbixj+f4WkkTpj3Y7woULpzG/SLVLD8PhGoq8hzwfIihzl5gtkWUZjK1YyTqw0QfGTuT5Mp3Ak6MUQTspgDg8hZnGBRTvX8Pg5i3ERYGcVH0+RGhyFFGMYZEibkTIeL6jBOuTH0O9hac7AvIgNqrnjvNCVkv8LzfsGxpwDYiyPYWFK6/BnFhCTtCuOEk83aM5PFs7wqBdvQjjyHtzs4t3/vhPcP/uXbFDRdDDSy+fxquvXEBgCFqplJFrWzDGaiwxJ/FLesR7hvBvjLTHzRFQNFCUGcJGgCTLENklXLz0Nob9HpJkGQBtRMdFNNWECvcjdIRrTaaNF3jMtHAlKDPR5u3OqPhgOTxNBtlkWCssaQUbBCwQaqDRXEAcz6HXS3Hjxl2sLK9JcpIAX3AJyiKHosDc3DQuvfAcGk0mg7pA0UeabiKlj7jJEIZGuqJXQu3RauHA2UVhfEIEZgmd+ALKT7/A2kefaI9IGyKiJKzMMOQYh0CaZYhNowbtCcYi0W0TtIsSER2NSy2+kSbPvFtKI5WSwcISZt94HUGzKQ0SjvvrGID2dqpkc2ML//E/fg9f3LyBODLIi1QaHnznH13B/AKBd4AwpId2royI+IFIlsSZPGmkLQUynuYQ0LXaaNcCmTTmbePi87RknUav+wVKbMpcUztgr6FWsPYcsi/3knZLkpkhUBuENkIUxTJfe70tFCWbDPM96rMtJlU5251NS5d4Yzq4e28Dd+8sgw8pa3W1wXMiL5jn/JfnxW7nFvMLczh77hRaMamGLQyTNfFKodLEe4bL+Yvk0Hl7+wXCaFGz/zcThyQv5jA9fQl4sInlX76PMmGVawCTJugYIGXERplYnsIGlP/t/3EddxD52ufv7gV+XnpEShJSqcyCdEnIZs4GSauN6UuXEJ8/By4DSascZxXJ0QXtkZjBJ+6U5tigeuT738XNmzdgTYQ0BVoNi1NLId56+xLiOEWBHsoyQSim7AaBVNkRqsee2Zrs8/w2t00QZRk7M+GMwg3mZi9iaek1bG1+hqJcUxLEGUUJT+0YuqJQpo4PB1F+0OnMRIijJhpNcuXsaprJP1sby8hyWrxyUjOi5IOgg2ZjBnFjAUlq8MWN+7hzd0WUI6rBzpAXBHqBXKFa+DBiu7Q8KxFFEciCnDtzAqfPzMGGOZJ0E8PBpkTf0rDBgTatZRnhP+RFv09SPw8IUrNqCqTlNFqdiwhZMJSkQG+ILz65BtMboJnlsBkQUZrOM81Jj3xtSKk/uM8jILomdmYitx1o41/eCZarwZymagb9PEfRaktbsrm3v4mgGcv7NQA6ng/kow3ack0roF0CW91NfO/7f4ybN69LL0cTTAFZhka0ibfeegHnLswgyzfEbCwnAAexWH8qaPuEpq9FIS3hIuKAtIpXXCh10Wycwvlzv4lkeBtZvqIeJ46T8zpq7VITSjWYtQ0EhmZT05LMzPMCaZojGfSRJAMsnVxEd2sFeUH+uY+InXWKNhrxaWkovLa2hes37mB9syu8uj4YWDxDIQuBlsfP1QU5cSsRPNs7sToyz0m5lJjqtHHu3EnMzc9q6X2xijTtIssSre4Ul0Lfr3IHIu4jcFN9Y8sEKTrI7QlMh00EfNjYGAhiYKOH3o07yDb6KLe6yHs9WUl54yLFn4cRXH+j6vb6dbAjIK1CigKMWQbsamNChMxbFAWiPEOOAqk1SMIQmYkwfeYsmq9ekYSkX7YeR9g+uqA9mn/b9cNpmuDHP/kr/PSnfyNRprUtwXXK8ij9++3feR027CIyBYqcLcVEyOwL25XOYEJw9BvXYWNUcMtu0vp+a6Zw+swVxC3SGquSXNRWkgRqgmYLoW3AhE1YcnciV8slmmbDhH6vL8lAUjbUXL9w6SqStCcNgPOyRBy30IjnUeZt3Lv/AHdu38EwkdB7VGnm9d1yCq6i0nWglEbw/iHCqIXAzveQMpmdncbS0jxOnOwgzxIkQ8oEN1BgIOX/3IFUVwYK4nx4SY+/fcI+JZJy5Iywg6aAMa+NDRuwtonIthAETSAJkK33kHcH6H5xE+gOxVVGIm9+mhvK+PAhn2okwpPxKHJJhNWvgxsBuaajSJve2kYkf7wORpr8lgLQlHrSOyexERbeehv2xAIyofzovM24jPUGrgmJHD6vtsL5UXQqOQagvX0SkgPudrv4vd/7PSRJIvwusYoRbxQPceqUxT/+9qtI+utoxKRHvNRPGGvhrkUI6EzdVR+tjLEkFAV4CV701Q5w6vQFzM6dwsZmX3lWa9BoNBCHDbXCYT/JokR/axMrK/ewubGMVjNDUdDjmwISPjSG4nB35uw3ETdCPFhfQXtqDu3GPAYD4PPPb2Jl+YFUNRLk+aKMai+d5EiZSJLS8N9CvlqtJuKGwUsvvoxOp41kuIr+YBl5toVQyosHTuPNfbK1WqRJ0X16qb6GY637UEk7j9cgDFuIwimE4RQMH8RBAyLYWV7H8gcfI+130YwsMOyjxfEJAwyKApmxCIMIAXn+iufzPp1CvdknGIHcWARLpzB19VUU7YYIBMu0QByS51bqUmeIde2xa9B+guGenI9qEs7gs88+wzvvvCPglGeamCPlMDVV4q03LuLMmSnhc7Xbt758SlMbj/pYuwLafE9JWRINmpgMCzA7ewInTl9FkUZCLdgwQ5oOkAy7SIZbGAw20e+vI017MCFlhgZ5wijdxYdSMJIiMC2cWHoTU3Mzooywto3llU3cvnUf3a2+Ht9IEugW/V+D81OekJG6doKnSiUMGzixtISTp2bQbHK8ekgGXeXWzQDWZihzPiSYINq/aHUM2nolPLUhNZ2l7xgUIQ7bMFETgW0hIr2VWuTdPrbu3oPd2ES5voEiGcDyZmdUl5YIQ97o9WuSR4CReD+KMXvlCuIzZyQKFzW+WwlLAZtMCk1W8nUU6ZNjF2n7KNKGFj/4Lz/Au+++KzdsRp5X8DfBqRNt/OZvXBIdt7Xu6S16bTPdz6gAACAASURBVL5B1SNBwWRj1Q1QO0VnOX08mFDUwpgoauP8c2+iSIFubwO9/hrStI88JUfMCJUlI6Q0+L1GC1rErhJA5S8Y7bcxN3cZCyfPIUky3L6zips3l6UKU3kOja6/bqTt/Udke9JQ2DVEdtQHO8nHzQKLi1N47sJp2ScVJr3ePRRFTwqStBjIuwLux+1fvQV3Phw0mcvVjVZyGhjLfoMNtONpBPGUroB6KfKtAYZ372Hj3n1ESYHpXBO9OQnV+jWxI8CekglXkJ0pLH7jm2LlmodGZIBy9WXqVjq2H0XElvPcyxp6Yi/n4x+Yj0bzIseDlQf47ne/iwcPVhBYxnGhSI2iMMXbb13A88/PoCy6+sSugLYswdiX0MffzlyJUSo12kwqErAZLZPf5tKd0TyX9UWpGnAN2xmZuiWcVDP6iksCn3Kt5L6ZwMyLBuYXXsHSqRdw6+Z9fHrttkSXlEWVBb261SCK58cIea+ZdQVtpVSEEpJCH0rscuHe85SR7RDNpoE1BV5++SVMT0fo9+8jGT4QmV0pCc79BL7dQZuUjJQ4j2gqlfNK7iEPkRURsrCNsDWDVjQFqrql23cWYPD5XQw+v4eITYIDdjXav5XC48/S+p27jYBquAOkpcX06bNovPYq8siisFJNMXZ4qE6TIwjcxw60PY3g//3pT3+KH/7oL2SxbU0DBamSIEezOcRv/ZPX0Jli5OtAUSJxVWD4VKRG30qe8C+kXwikWV6IZNDl+oTrJZDkAtrkxV0pvIbrjtpQy1dqsJWi8B3gCaQxZucvYunES7h1cx3XPruFwETI8gSh8wIXK1a3LPQPp73c/v4zo2pNd155zsIcqjQyFDl7bAaY6UzhlcvPw4CrhzuwtpREa6Xafi+7fsz3urEWXHWrEMdxj/Xv6lAoV6igizh59hCpiVFQZVJaoU9gYjTjKVgy3Fsleu+9i3JjZZeGF495aPXb9n0EpBgnKGSVm0cNtN+4iuj0SSRGqylETeunhk8qfw2KcN9P5Al3cOxA23PaopYoCyTDBH/4h3+I23fujEvF6YdgErFv/da3XkIcs8HBQJZgWVIijLR/3YjlduDmoZuRuAdr5VAYMauhk09nCvA7bxMNBpxH94ir1WpI2aaoPkK0Oydx6tTr2OqGePfd92FCJjvZCOAJZ8GjPi7PE6221P4hvioUaDfbuHLlBZhgDYMBx44PNj7K9im08dad/q7c1pTCZxucJHNknRu541GFvdzPUuVq0GfRUjyNqeYCwrSB+z/8CTppWoP2Pk2lp7FZ3gf09mkgkmi7OHUS069dli43Mu+oAuPqkCtN5x9/FFORxw60OXkI3OR/Nfo1uH37Dv7w3/8HkdmR36bUjxc9jgp84xuXMD2dYGbaqm6bS2tpXlp12/MZjzF6jr9j0nKEGCPduPezVgkhgZnbc8Jq4bMjFSxRUue61piogwvnvonhoIO/f/dXgM2VktgvYZPgLxOSqojR9aeed7vREdAO7ToGg1sAhpqE3C+ttjfnkn042yCvkR8hgh9o7dfJB51mIjiGmahDKDHjeA242gmnMN08BdtvYuVHP0FLrvt+PQGfBmwd721ItaQpOe3FBnkw3cbUyy+ice68diwyNKDSqmNNUfJajlpSHZnBO3agTQpBkmxOacGfeW1/+KO/xt///d9iOOyLkoQmCFFYYm4+xO/8DruqP5Cfi5Rl0s4KdVf+c3feVbneCiB469eRBay3VnWqiNKDNkvqFdSLwOL55/8J8mwev/zlB0iyrnZ2F/DarwhXC4i0bN+3WQvQCBlpX0SrNUCvewNBQAVLBVCf9i3CB9fIu9zpSEbnPaZK/DiMtQOaKyhMBotM7VthMbAszJnBTPMscK/A+s/fRZyrqVf9mswR0HiAtJe23usFAcziIhauXEYwPSdabppN8QqK8Zlo8PfpvniGQ3TsQNuPtYA1n8jUJ+cF1tfX8e/+3f+LYTKQKsQ4biIZsJx9gDfeeB4vvbgElF1EltWDLCp51GTYCdqMtN3TXpQnfimvChF9eaDwjXZZ7PEwaLOf3vMXfgfGnMGHH36Ktc27GvlSybIPk1PPRKNWlVFR5UJRu0EYNHHlyiXMzhTY3LgGY1juToDcJ/NMWW08DKiaIObLWwH48SfIM6GrnXh89Z0ttG1ZN2zCxPOYbZ1F/uEDbHx6DXHerysjnyEYfeWuyYAI78iIW69sYixaZ8+hc/lVII7UcEp8lZlTqkH7K8f0MLzBi2W0AlATd6I6KEq89+57+MGf/ulYAWwIQYVUAP7Wd65iYcEiS1YQskjDA7Gc9HYA397lUZUm0pdxRC9opLCNb6v8TbGStrCkJDLRnGq0WODE/G9iZvYyPvn0Om7fu6ZmUPsK2jwW+qFQjpFoEQNdB8sGrly+hPlFi821j2AN+21qAwbfwuFpzwevvdWHnNI0o5Efdf2pjD6pJamE1CpUKvoI2kxPdmnC1VzATHQC6z/5EMHqOkKW7deR9tO+bE9xe3rP5FKFS/9trpgNkmYLM6+/DnvqpLYmk2BMd1tH2k9x+J/Vpkbe01QWjKoGRb6BPCvwn/7z/4cPP/rQ3ey8vdmtPcFzFxZw9epZtDusbBwiACNh/3ISPgchPkId/ZXaYd8geCSJcz0aRyqIcecZpRm8p4mmNNlegR4NU80rUhl57dpNfH7zU0RRtSnvDq2TBKY7o9MvWy669/rEqm8C4eWNLF93TSBMEeKVy5ewsBRhc/UTAW0pZ5cHzH68nLOi3IneuMureRSW5RYdgbf+hqsTejOzo42WSPMQLXqlxVR7EW0zhwc/+ClaaYHS1OU1+3HlntY2lRSzSOmbHuSIshyNIEaX1/zsaUy/9hrQaFTsW3dPjO/ljnhax/40t3Ns6ZGdg1g4jntjYx2///u/j7X1TTQbbRSpSgANevjOd65gbp4l0ywxV6pD9ME0u0lT0Tm7ihsHLJw05JyZbCRw7IzKd8C7ALou5vkXlpWHzoaSqwK6/5WYx4uXv4PPPlvGZ1/ckWy5FQ8Q7XCjq4dx0wRZIDotFAtnypx/szDi3aAdsMUISugetV4VnlyauLOVGSN+6s7Vg5umUqEtpafmxYunsHRqGt2tW0AxQJYPZDz27zWmPnzjYRnUUQJ0/BAVQqcMkNocmSEPGqlyhMtmsMK9jemZCzBpA6t//mO0UxoU7c/jZv/G43htWSoXCnpsl0gtpbgFQvFgs2BvqLk334A9dQolJbcBO7xL3rISWynBVq0k8FW2+zlrn/ZVqkHbjag2wiUwZfjxT36Cv/3pzzHsZ1IgE9KMpuxibs7i299+HXEjA8R3g11TtCxebVU9KHvemk0TFLT9Ym37vy4OrswYcb0WySEBs3RqBs/mslinhUsvfwNJOoX7K0Nsbm6i113FcDikhYkaXFU0zEJZSLEMTXW0gMh3YJffVffNKFQKzITMcb7bFnEUo9loihfJ9FQbrXaMqQ7L8lnV2cfmxj1YQ1/ryUnkedBObC6m+jbXlRGtQBltp8UUZhZeQLaaYvNvfoZ2RtCuX5M8AnwIm9LIQzizSjcysWxIeZkIw2YTC9/8BtCZQhnp/chrPXo5GVdVIDpqKOgXa5M8AB5FjltF5KOuiXe84/J/s7uJP/r37+D+vQdiJGWDAqGl294WXnzxDF599QIA+pKomoIRqPSVlEe4ArQyu6rLHk+aKkL6yHsngaHRrmcodFuMJmmMxAi5g5OnXkRn6jRKNMUsiV4mvW4PyysrWF1d0+pLoQHYDJW8nz5cJAKXwxvzvr5YSCNW+qVQLVJK93Z2tpmeCdFsxQLcVM1QBcMKzF5/U7TZbAqcpLSCZeENW5VNhsRK2E8XabPnoC1YflGK0Rd/X5QzmJq7iNXP76P89ccSaYtrQP2a2BGQqJgGYQyuxHNCJZrMV8haOAjQOv8cZl55UWgSaZbAs9ltAbVTL+DjrYk9++qz55iVsT/qmtDpT/FGaY+PP/4U3/3u9wW0ueInjx1FBOE+fus7r2NpIUaaDxBFAZJ0iJjl5PII9yoG74OgibAv43p94m78sNcuM54dlsYIZRNF3kKnvYDFpdNoNBvY2lpDGLJRwjRT5rBxE1lW4N7dFTx4sIp+b4iE9I5hRSOrJ1NZSZhQF4UEcobn1KYT4Kenp3By6QTmFxdcKT49wrcA9s9MhxgOB8gpi/O+2nKrkFTgPrgacY+DCegWo6ANWUYraKujiwgPCgtrF9CcPos7v/oM8Y2baOdF7fE38YDlk/caK48koAEVQYzALfJGEzNXLqNxckmM5CkD3Abcj4yoK54lEz4ONT3iL5CTErH9GDlg0h1/9mf/HT//2T8ogBXO1ClIcfpkA998+wWEEblf2qgmiEIrhS7jSNs94WVJtruiwgcAKpPzL63Yk4IQFFosgBaiaA7zcxfQ6cwhjAJkKUGZkj+WuzcFvL23dBi1hIfu9zOsrXWxudHF1hZ9uFPh2qPYoNlqot1qStODdruBTqepfSeLHHk2RJ5r04M0W5fON95rmwU02mOSTzkS4uPCItea2HeIeKZTX29vJiEpufclzqSbmF+I0G6dgrHzuPuLjxHfuoumU74804Oud/6lI6AqKqN+2+LDrRE3V0hSXWwiDEoIYLNSkoZSZRi7la/btOdGqnvyqH5ISt5r0PbXUmTb41Jy8sOrq+v43vf+E+7dvS/RKgG91YqQpSv49m+8hNOnF5CzHZdJYRlpin7bRXSjSeHlfTvX3h6yPaD7v9N4SduV5TSdsk3MzJ3C/PxZ+T5PBhgMVlHkjLKp2CiRy/u5TGDZNis2GzCmhTjuIIymUBRsq5aj3xtIlM2ON9JijB8LCNJ9pBkbLgyQZ5TusVkDKRbVNytQq2qDSUoaWJEG0SSmen7nKhyZmJ6MqiUpRQKmGgJ3LpJUbWBq5jyCYQMr738Cc+cOGvLQrvmRSX5u8OHLr4irQ7EsLpGxWYnk0Om8aVCYEMMwwNyLzyO8+IID7XHC36+2RpTJ6LY7PKR2Ddp+lnp5XMXjgk/vn/3s7/Ff//S/IQwjVWYQG4s+pjvAt775OhpsEG1SNGJGy9r5hSoFLenWsm8BDRaHOAtVNWRyyUGXwKR6RdUa/Bv1DU20SIWcfA5Rgy6BfQySdeQpG+4OIY6UpbY1o5ZND5/JF36WgEqlCZOFDURhU/pNBmHsmjVkSJMh0pQR9RAoubogHUObWO8v4nTQrj+mLwryjVdHyU5fUj5aLUxGOs+DtmgMRLrLBCTPKUaWtzAzfxH5eoa1995HvLUpCa2jqOmdZBDe67ERsBltE7D5xTnJhCTpL7l2KZPtFkP6j7QbWHz7GyinZ6VnaybRhZZLUlWyza/HuUMelutfg/ZDM6eyfioD9Hp9/PEff1f8SRyTJi2rymzI1Rd6vTV0pkLRS3faDSydWMSpkycw1WZDXu/VQbtWRqVM4mmrK6/cYB9IRr1Zyt+TYjHodBYxt3AWjdasRLJsL5akGyhNV1UrnHgl7UUJwnTJUdWGcuM+ctc+LL6acSQD5Cd8iOwSnlpi770afKMm7yOunXr0iN3DYcSJeKWK/5cjtJ9+2nu5zf115MOLD81Ul9RooChnMT37HNK7G9j85ftopkN60O6fh8teDrt+7yNHQBq2C9VF0HYzkhWQDJS4ShIu0aAMDfpM05+/gKlXXpFkVRmFoCGE2h37+lndld4nvFMOB2zXoD2iunZEWo698O3J/p9/+29F38wek6GJpRv4YLiFz65/JJw2KQUm9BpxLPx3kg4wNd3G88+fx+uvvYTZ2SmRzIWSBGTSKxdtt8rw1Ds7imOcOX0eUXtJps9w0JXONoX4erBPJG1RGWFbBHkMFLRLZQRRLY8nMDlHQYkudiz5Xadb4QAZ1UvEQlDT92lxinzn/j/+/PYkvD4gqu/VaHwyIm19YHK1Q05TqzltyVax7GhzAp3OOQxu3Ef/V+8z9hY/C++qWOPmhI6Aq2HzzZqFFfE8h6sroCWyhBYmwKDZwuybbyOemZb7JI9iZIzSRaKrwD2W/9WgPaFXfffDUlcLB17+aesQSjxKUOCHP/oRfvbzv0eWaRm3DUL0+lu4fl1LyUciHC6zpVWk0iMlAUE44lIKWgjk58+fxqlTS5IIZJTdbrdxYukkLr34EsKogZT+J8MuhukGjEkQWPLIdKnzPtzaVUZhs+rt7Z0CVX0ijQ1cWa/jT9yZ6gPK9ftwbcIcCI/ojipv5I1mPVB7sK5mdXbTVT3DaSA2uExYEbTpmzKEZUIVLdj4DFrN00g+u43hBx8iKPgwZPeamtN+hlfssXYtNKPTVTkLEq18LUoxiwpo5iZe9nRyDGEWFjB79TUgCoHISiNnzgf9v3uuq6vrfrnmPNZ57eVNdaTtnta69NcFklxMj1NM9OUZNrY2tMvN2qq0+2IijhK469c/1yWWJDIpnSNvRgpCzYqkDyELAKSrjJfHMfMtbUkRRSHiOMZ3/vF38D/+T/8z1tfvoSwfSFQtCUFfAFOwF17kKBD9PL+8dnV80SvgOfKc1shZtdvaXUaaEMtr/LjaVpQjH3mYDhlH4m7Gb6NWuI/J0GnLsfNBWcSq7TUetNuImhfQiE6g+4sPYW5+Ibx+wOhrUo59L3fwMXrvOLmsAiXOxZD3hSPlBpSeRlbVJey0ZCNslCUWr7yC+MI5IbOLUO8h7fPqFV5jwdNheGzXoD0C7WrsOhbki1+1RNIFfvmrX+Kdd76LzlRH9MqDwRCff/65A0OS1n7RxZyHLt6oi5YO7gEbz2oxjoAmUpS5cnGNOML//a//Fc6cXUSXMr5gGSgTnVpiNqURtlDRInIgqc2oUXXWjMDHLzftpFei9yXRsnZXHD9m8VxHeVVN7BIpj0Dbb13L8bc9IBwNoW0feIyTA9ry3BGLW97hzAVQQjmFuHURzXAOyz/+W3TWV0URIz0l98Ep8Rhh6r6fqtxdJRUjDrR5Z+Qq5yxtgMwGGOYpbBkgLigBNEgCg34jwslvvIlgbkZ026Wh1ZRv+ecOu6q63fczebId1KC9S7y5c0i96oNUyfe//yf46KOPkOUsZS/x6aefVrhdjWh3Rr3ym1I7REvi0FVSCiAXFt98+y38i3/5z9Dv30Sa3pe/j2yXdnDMPjrW4gK3t12ZiZ18sz+2nW/+ClqjmmbftWim2gJs5/k/2eR8kk9rVMZRZMu3DDYYyA2bFfNot15CXES4+8M/x3TWR1E0JYFl9rUp8ZOcTf1ZPwI+vKjOfb3Oej+MwgvnvxbYEFtBjvj8WWmYEDSbKAJtQl1tZ+oKgg/FQNeg/ZiXydu4bmxs4A/+4A/EfztJEly/fn1k8fqoTXnnOc1+j7u/MAifbk/jX/6L/wOvvHYOva3PkRdrhySH/ZgD94zeJqDNcvWAfi0JrBkCYri1hE7rJdhuiuWf/hXaaQ9FTqUPI22qcOrXkRkB5zhJ1UjWbGD26usIlxZQWKqu+JB20j+5L/Wsa3rkCFz9qv82T4cNEH72s5/hhz/8oZg0ffbZZ5rwc91wdjtlbxhFwFads0beNKO6+vqr+Of//J/ClOtIsxUEQQ9046tfTzYCurqRjLBE2gGG4qMdmJOY6byE8tYKVt7/B7RTRtotoa+CGrSfbNAn7NMpk5bWwObUchuYhXnMvH0VRbOFXPRfvoN76YRDteRvwi7h1zsc35aM/0rKrgS2trbwve99Dx9//DFu374tQC5P6UdU1Cloc2I4aR553zIUk6nf/d//F3z7269hfe0zNlCSpgeH4Wn/9Ubz4D7ll9HMB2hCdYi8jBCaE5jqXML6Lz9Ccus62vkApYA2Wc5J0Zgf3Dgd5T2lFsiCEu3C0i4HPRugc/kSmhcvSrQtWR6n91Yjzhq0j8R8UMkfE4ss1daGwARwAvYf/dEfOU4byDIW0DwiCScdaJiEdKAgHtURlpYW8G/+zf+FZEhf7C3keU+LbmrYfipzRx9+TMKKiwsKNNCITqIZncPtv/k54s0HaNFjpWgIPTLu2f5Udl9v5BmPQE61CErEGY3mgTQM0ZtuYen11xHOzQPsBSsJyQKF1Escjjuv5rS/YmL5SJuALRSIi7YZVb/zzjv4u7/7OwHsbrcrHLfnvmV1Lo0VXLWgPNLpsgdY02DzK/zu7/5T/KNvX8FWl7z4OkzJfainR/16GiOglgLiky68ZQudxhmE5Txu/uVP0E4HiPNEipREOCYdcerXURkB3kY2oLlaIjYUQ5RI4gbis2cxe+kS1INCk5hUUB0OyOZ0rq1Z9zxH/ZClaYq1tTWhS5iYZJJyZWUFd+7cwfLysnwNBjR1UtuDgOY2tFA1MV54/gX8q3/9fyIvVtDt3YIJ+lqh5dpl7fmg6g/sMgI0tdVeoGUYIUkjLM5fAjYNbv3kbzGVJzBZigCxo7aqPU3qAT3sI2Bdezl2uqE/CfnttAyQxU2cePVVBCdOSMm79B6VrkwTIlf9ioGvQfsJZqaPwqvRtTQbcPQGAZsg/v6v38dn167h2qef4t69ZcRRhH/2v/2v+K3f/ia2Nm8gL1almYAkNNlZ5gmOqf5oZQSCErxxWdyUhw1kRQsLM88hv9PFKj1HMkbZucguJR+xzUWoHsnDPgKi1U5LJI0SWWiQFmwGHGIIi+nzF9B87TIKgjaVJKzHYGR1CF41aH/NiyR9FJ1nh09S+p+5Sf5dqyBVMCo9KNnLrtvHxvoDzM030Pj/2XvTILnS7DrsvD3X2hcUdqCxNNAr0N0zY85wEceUgoywZdqSSTscpGWFFbRH1ijkf3boh8NhhSyTNClrqCFtK+igxRAdGpoKh3+YlmnKXIacmW70BjR6w1ooVKH2qtze7jj3fi8zC41uoLHUgs7X0QEUKvPly+9973z3u/fcc/wOGo15WFZb9EocYaD0a3o85MUN3iYAzMXPZT6Kjt2Uq3VHMFTZh80P55BcvwkviVQEgA83nYEGy+VTNXM8aqenQMfJkNBT0iat00WLUhMT45h85WUxTiBziAwT0enZAyyAAWg/xDTtzygVdL9eDlt1SNQE11h9kSfseCKXytQ2jRMsewMbGzdg5Sw+MtedwXMcpJw8A13nh7grW99SUCsdsUBz0c4DBOUpVLxxrL93DdbsbdgJu07VfkyMkR/5Uwcn2FUjIPdV7cnECcq2EGcW8qE68okxjJ46hcRhd6QtO7J+a9Vd9T3uupgBaD/E3SnSIv1vLVgm/DcCQI/+xwmjopB55mrDuaRCFrG2cQOeE4u3okrY9JRAHuKyBm/pGwGCNjc5nuxgPLRRQqV2AD7qWH/nI2B+XqJwdruy7Vm0WfZAlDW4yQ8+AnRkh+vDiiNQzCBOIiR+gPqLZ+FOTSD2fSS5A5+RdpGT3ANzYADaDz4HPvHK/oj7XhxtBXe+LRUVMqZHxG8yo/3XLPJ8VQwUKC7liDZJwRTdAzPnEcbt0d7an/HvVxv8ZKTN4Mmj4psToJUHqNdn4EYBGm99hGxxBbYUqFSbWcg9KnTeB976WSrKpRz94hPJ/6UoP20nVHyIaRbzGsNIkASNzUIoaQyuyD2TWhaxKO16KFUrXZpovNFA1unAI/VQUm9qGC0BAM9BX04xz9BOT6fwPqSDS981f1Y9pOc5ukfnl5EL0XvSX4LQ79NTD9If1OnGRppEKLkO2kkC98h+lM88gw03Q5SkGAqG4cODI+5Pe6MlcgDaj4YgD/huTZcQvG07RRLR33FJTXOtqI9qpko4UsgchH33GNt7QZJpo7mriCjK3lYOP+Uexkfb8jFcn4HVzNH63mXkjQ4y10LspKgQrImoxkWoN/TqNkR5W0mhiNSt1ikSKrlKR13ONllhqXhkH+QZYoIuJUIpYkRlR4uAkcOtVlEaHYE3OQGrVoPrsUOTHSAp0k6I6PY8mvMLwmhBEsP3xDlDxMlKQSBqk6J/LosMV/9c/Es5XcSd/G7ZL0YMUkspFp9iL3dvz9IHnMw79jKVgeDCaESFzQLWW2gNM5/f2axkHJfUzel7jbQUYOj881gddXC9tYBq5uBw7SA9omCn3p7RZh2A9nZMQZlAFLSJYFlNMeQNwzXYVPwrZNgL0X6ZgXujir0dQ7f1M+4XIfZAXSUDqPbmIo0dJF4ZQ0PTyNYSNP78Ekrsc3KBKI/gs6OVOiWG8iXgYD5YdkvGSILyAt1gjIDJupW4DREUNPKmD1xCz0z+T7nXkofy0BCG9u0HalUpSJNkSAmE1Y11bKxvYKRaw+T0FHxG1JubiJZXEC+vIGo0YMcpKq6DtB3Cd2xRj8yZm5VIklNFpYBl8eg7+jnHxXpmkkBd4f/tv3+P9onFfSmi7N4+S1NbenfUu0l0RVhXcmy0rASxU8LoyZPA8XG8H17FregWxvNJnBw6gyrq0iPR7al4tMt84u8egPYTH2K1ilQDXPoyLqLZvC1ONI5EDdp809vgFYYM23Bhe+oj7rd37cKsfisVH4GX0dvTA8pDqFTGEd9uYPPND1GiNhSNipGIEztTD0x59EOfqDJqYKugQMA00aumVHJJdxDsCdCRBTjVCtz6EOxaFcHQEIJaFYltYX1zE812C+12G5sN/kkNb42kGc0HvouRkWGMj49hrFJFtr6JcGUVnTuLyDZbqLD9h1239D/MUzBfm7psvCcXnetP30rTt1MrNFh686uIx/cesVS+Q6FPYOauNk0VE7kPxvm8iaZmhqZtwd93CENnTmHRX8LFztvYtNYxmR/Gs5XzGEZNJAz6rBF29ZMxAO3tuD3sopWILUIYLqLVXhDVOQoU6UOlPoxF954aMuy9h+rJDiVH6l47kE/jfDCVkcFO6b5egl0ZRRAMoTO7ho1LN1FKKB9Fbm4GJwxpI4iUac0ib22QgNEbt9YC2DbTHZnUJ1zXlciaqRAEAeoTEwj2zcCqVWG7nuSwV9fXMLewgGarJU301F8n0PuOpx2YGR1XnPX5kAAAIABJREFUUsRpjKDkm8g5x1itjhMHD6NUKiFvdRDfXsD6jRtwkhhkw7hEboI3Oeb8Ow8TaZu1qi8QKFBNo1FNjJgo4snesMd+dpkBRlO+iLoz8/XvriPKfbQzhFmGsFrH+AsvIB6v4a3W61iwryF2Q4ynR/F8cB4TGNPUZdeE7LFf+mM94QC0H+tw3vtk7IIkKDQaG6hWPcTRKjrhMvKsoYaz0hpfOKfw4aLDzQC0t45mP2j3R9WfNk4E7QRWypxvCVZpFKXSGJK1GJtXFoC1BpKoDcfO4cYK2ozaCrlOm44opr7AJVRLg9o951ZLaAcuvOEh1JmfHh5CSnCIY3E1unNnEavrG8hIL+P7xGRBdWuKfDTPLQYb1LywbSS0hxOkyeVcrmVj3+QUpicnUC6XYYUdNOfm0F5aRN5sosRiZJxJUwjTPGK1ZRacfuAuYFoy28bsgt9ECqt77FDQ1miauWqNsnvfo7vgmu/FnVPouKidOA0c34er2Tw+7LyJTnlT0lkjyQxe9l/CPmuqKDfviVb2AWhvw8Slew052++9dxkff/Qh/tJf/DHAaqHVWoBNnec8lG1vHCVwHU/ibOms7Xuw1O/xi57rLra/QrPplt16XphqVKx2UhzDWMNnp4LEqcEPxlB2h4C2hXSzjbCxieadBYQba6iykBiTxWML20MCV9tCyjQE88blEsojQ3DHR+EFAax6XYrLG80GNlstNBqb8mcU0w+UaQ9lpNj8O0F/i+K+xnQi3m9y5tzGKzXEBM5G2N/3XdTrFUmbTAwNIW+3ES4sojO3AKfVQUncghKJvHPhpOsYqE2dRZN50VCw2APAVI9Y37FQtxdB27jUELRtsRORlUoKxJIishHFMVzPR5QkSP0A1vgYhl4+g3l3Axfa76HhLyFyQ3FYqnfGcN5/DgfcfbBylTK4X9VkG+Divh8xAO37DtHjeEEqD8sbb1zAr3/7N3Du5RfwH/31n0dQyrC5Poc02xQDX8/NhbOtll0aoZG5II0fwgLYC1PqcYzXZ53DoKG8xLAiityzFA9sWdwEFLmLoQFz6CDzh+D4Q8hDByOVMRHtEmRmtLa8jPUr1+FsNJDEqRT3coKcbaMyNoLa/hlgYlQ8BpM0wma7jdu3FtBpdtCJIyRMU9iWKkHKfQI0UlcWA3+WBo/C4UrE+bfeS/kX816R8pWmEH1fSI0UFxipVXFi/0EMDQ0DUYL02k0s37wJJ0644qMUeIg7IWqVMrKEzkosxkIcyAWwuTD5nuhs7MWOfU0hag67GE8F7BxUPWbqiYtTlObwKxWswcbo+ReRTeR4J/kIV7LbiJ0QqUObPgfVsI6X3NM44h2Ag6Bwh33SE/iRzz8A7UcewvufgMJSdF2/cOECfumXfhG+6+Ls2TP4K3/1r+Dw4SlE4QqieBmwmsjZPUn9EZrRmgIZgXsPBkb3H5jP/YrCamRrekS63oQjzVSDWkkpn1nTGnDKSO0qLKeKcjAEO3PRXGtIUdDzA1SrVZRJ0dtsYn11FUmaoVavozQ6JsAdRhFarQbWmw2sNjbRDjuwU0e26lJ96G7TjQVckaYwdLsCuJWFRu6wpmJUCEHhm80dAtqGxkY5Azm35NJJX5TkjFALx4eHMT0xjnq9DqvdQWN2Ds5GE+3GJug9n1PVjqbGfL1RpiRoM+LmeYvP+dzDv+NvMOVUWfR0kOn7ycWRDVIp00W+j5BGv46D4PARBKeP4Lp9Ge91PsRmKZVmmszmezJUwwpOuSdw0jsOT0q5DJZ2/252ANrbMRENxnz/B9/DP/72P0bIghQcTE1N42d/9t/B+VfOIs8bokPCAmWeM89d1Pt7DR7bcam7/jP60wwm0hYqnjjP6EPHBU+KuzQ9CMqw/RIct4Y0s7G61sCdhWU0m22ksTassOA3XKtifHRUGBxkdVC5cWVlDc1GE62wjXYUy6dRvNWxHdiJ0uwKOmBuK+unny1tVGFN5N0b2V7Erf9mUtl9DSMK/lSdo6yB5rqLYramVJg2KVfKmJqaxFR9BDnTPctL2FiYBzpt+CyW0quH7BTJkajUJBczypXuzZKJsaYmaBsrdQVszXVzmerkQOJ7SEseJl47j9tBA5ezC1i2lxFJZ1sFqZVIvaMSBTiYH8Zz5edQluQK+yYHoL3rMWA7LjCnCzuAdy9exN//+/+tPIyiY5QDtVoJf+0//A/w2qsvwPVyrK7cgm1vwO7TdiYUDKLt/ju11dxPu1FpUmFs3BwfnlOF748Bbklyn2trG7hx8xY6nUhTBaRmMw/KCiRpe2kCz7EReJ6kE1hU1CJeQddUhg+10/mn74joq6FzFqayPQ4DI+kigVOwHopv8GmpiYK6JuyhjGkyXSDYQCNZ6jyXqN+mEYdJETiug6FSBc8efwZ+EMDutLFx/YYULNFqw0OOQNJFTL1lcF3OPfPlt2PyP9bPKEC7V4AsouwsyZG7Ljq2hbbn4MD5cwjHXLzRfB83/CtI/QhZzGakOhIB7Rjl0MVoNIFz9VdRQwmu7FMGoP1Yb9nePBl5uLE8+W+9dRG/9Eu/KvnKNKNoFB/yDK5t4es//nX85E/+FCYn6+h0riAK1+R3BVjzlVu5tk9DfvtuotZdwKxx6Gf0FheMEkkwMGMLzyvB88uw7QqisIzFpVWsrFCznAa+qpks3YMm2pRWcRbqJFpjYlSpcawhSBXB5MdFYkC60g17gTG33D9tK+8dxfUawDdNH0XHIt9S/N//bUldkzVH3s5USCoFRcobSH5EFvlcCtX8k3Q/slGkWcdwyKeHRzA9Nobxek2adMKlRUSLS0hbbWGjcFVTIVJZirY8Tp91Jx73c9c/Wp+nHFrYFChzRN8pYyk0Ekci6Y7vonRkBkMnjmIO83ijcwlrlSZihCix4zVzpFPWtjOUIgvVsIpX61/BEEbhC2jv/udqkB4pZmT/7Pm0+2ZeI49z9zW61ZStsSlsqRtG7/ZbbGUGcOH1N/Frv/ZtdEJGS8V7lAnB3586eRrf/OZ/iqFajGZzFlbeNAUj42bTZwzMYlWhS6e18z14iHcjQY/Xbxx+JJNLBoYKb+VCxNUoNwdb/hkx8icPth0gEa6bhyCoyf+WEwgf+s6dFSwvbiKKqO1iQKqH1X335y5FDkmGF//WjY27y0fxxiKn2kdiuVv9ohtpS2rDnEruVJ+GSf/063Vi6mKu8F8Qke9RhjaTLCGTgjoomQM3tzBcKePQ/inU61VkcYbW/CLWbt6Ck4TSSOTHkXRzpsxvuw5iicA95X3L9WnDjuifCBuVlm0a6WtxRa+lqLMUC1lBmeH9k8WMC0VfSzkXN7mvZgyY3yd/PWd+wzxbsmsyg1UwbIqlmzOekXViZ/K/SLpkLjy2oGcuOjQ5GK9g9OVjaFSAC413sOAvISTrM89EqZ5mCHwaPcq0RglKSQUvV17FDGbgI9gTD9EAtB8CtPkWCvhIFZ4Tul883VS3C70+iQbM1vatt9/GP/jFX5Q8aJpSYU6LUDT4TeIYvuvhb33zGzh37hSazWtATgsyvsZTChr52zZDLhaTCGSadtm7oK05YI1Ui1WQ/8YORb0xqi+ukbB0MBJQ7AB57iNLffh+HeXaGJLEAkkUS4vLuH17AYmwcPbEM/joF+lQ24bzxIeVqUCS7+UYGxvB1MQ+DA2Nwg4TNG5dR+fObZTCDrIo0sYcTieCWarSwKp7o5fE3Le055MmaAKRAkALumI3OJH3ME2kiy5voFBUCzAuuE/Cfe8BPnWaukVF8+96z7sRUq8LUrJilAmg3yOfBQs2Fyp2vOYeosDByHMHEU+X8CFu40rnKtpBG8zuMxrn85I4WiNwuYOJKWFQxungLE7iNALmtHd/oD2wG7sbs3vQob+55z0sJqiRUmWOUAXW79ZR672bE+WNC2/if/jWP0InijSG4q/ZeENYSrn6O/jGN34BL3357F2g7SKTqhYbMFT4V0FbQ5K76WOPjgLbdYYiuuZDXsSiutWVYqLsaPikMjbiGJcRR7ao9gXlEXge2489bGzQIWgdy8trCMNYI2XpiOt7+LfrK+3E5xAoZTNB8CKDhj9EAoau7WGsPo6ZqSnUKh6stIPGwiKS5RW019cQMAKlPG3GDlEuj2QtEd7YdcldjAVLigVbD9PNb9I5JvaW6c76gEkbsVZgnpFiFS7UduSVbFTiZ6UqsMX7lSTa5VkUdQtmjoos2ggqY7B8F1bFBgJy8GnO68ByLNj8flMV3MoXcTm8hqazicSNZFy2gjbfwSg9g5sE2JcfxKvBq5Ie2QtS9oNI26zp98qOfNaiK5p9RjpT77SZqCJWU6iM6UTPHLqiAG/84Pv4n379N9BqNNXwgM0cLCpJs4DuCr/xN38BX3rtOQPaG3yEhAXRA22zPd0C2juBFI/+mUarjQQt6QLVw5a8oz5WfLCZPmKKI0MnLGN8/LB4bLLbsNNJcP36HNbXmrAsV5gWkvd0HJBm6bgK/E/7waIlc/UW+SKSi0+R2bEEEshd2OT9pyn2z0zg8NEZ2E6ArNVBvrGB2YsXUUtz1IiK7Aw1nHJyZRLpsrRQsnyTAtRcvzR/yTibsEH0U7RDURgYlBkWsR1t+5f3SApHqY699BMDEQ+55aJcraBSrcLxHLjlAJbnsgoL8E+qHfLvZAjZlAhg11IqDUtMr/C54d9jZFjDJq5E13AHd5DYbGpjVK/0TIm0peVVNADg2YCT+hhuj+FrQ19DSbjauz/UHoC2eaz7FSyK+O9eDzshgBk7cgvYfdXodGRylgMyFlwp+DB3RqoVHyMBbdGvyNBpNPDP/uk/xYXv/wBRu6PNMy51ljMR/4mzFN/82/8ZvvTyaTSb1zU9Ik0XBG1OWoIbr0Bb3vvimD2JS72kiG5ZdQNTMJeVU1w4A9m2j3LlAGBV0Gg0MT93B2vrm0hIvbMYbZluSBNhE7AkhfUFAG0JGYytmkSsLpVmIwkqJJWU2PB8F1Mzo5g6NI6brQWMlYYxYgfw4xztq7cRz68CzbYWKx12gVKUSmsOeaIemmSxEFQJoNIST0SU/zn8zHuzIUh3Oa7vIyiV4JZ8OJ4LK/BEARFu3/vJWXcJqtI6apqPtP5DISxNtGTy7LCBieAfcUFCggQxIkSI8wRRlqLZaaGTh4goyuaFGmHbugOR9IjUEZgL518cWKKznsNKXAx1RvHl+pcxhDocEyzs5gdqANp3gbZmUIukm6lc9QRUZVUneX85TrCwuCgcXk44z3cQuD7qQRkj1SqqjiusT4kZOXHIt2WHWpbhT/7kT/C73/kOlpYXYXsukjTRP7MMf/ub38Br5541oN0faRO0i/QIQZvNAApKezWWFA0MuXpZmkyqR3PamuLgEx3Ad4fgl0Zgu0OYnV3A/MICIqZBTKmOYFEUgXXPo5GfUgH36uh8DthgRolME842kQaPkdlkl7gC2Ix+oyzG86+exaa3jovti3A9C5MYx7FgP4byGrwm0F5qAh0tAjMMzZ0M5J8L2DIqJWi7breOY3mkHkrF2LButOklFR0VTX8QYkXTWv4mewAkBNokRpLF2IzWZVfAWymvYL0H1CRnJJ0jZdERKWK2pbOg7xDUC8ErRu+6gIjMOFvaWfORkCqWa1e+jII2w6fUVjMSi4Jh7EBOgOF0HC8FL2LanoI+tbv7GIB2H2iryH3Ra6xcYKF6URvZRNi89wutNq5ubKAdRUayk8wRyQJKasSHjSG/hMmREYyUuOmCkImKg8B9/doN/L2/99+g02kjjkLU6jXQvf0//zvfxLlzGmln6ZpxRvGokw+LD5Hkfp8O0KYGRkwmg6MFILIXXFf1I/yghCT24XtjqFT3I08DvHvpMhrtFlJGg4aZoMVGokyxV+qjZnwB8NpsTmQMHApU0URamBWqEe7mPpzcRRbkeP615/F+8z1c8T5A4sbwOj7qSR0Hygdw0DuIimkxUV4S95OE2hQtSTz0tCc5rDFSxrny7/yTi0KUxmhG62inG90FWIuTW9v4tdYpMbyhH+rSqsxJpfNx58WUhyzARVGa/2bzuopUJO+6egcVSueyw+UOw7Twp7IIFKCdgj/LLpVqiT6QJBlq6TCec87gkHsIPkq7G7GlcN/vmbXrL/fJXSBX6i11q4L6Re0GpkJINQKw2mrh2toaNkhXEoU1zZvyMVH+LSdNLgUWX9xMbAyVy6gFPiq+j5LjSrMDN/RLC0v4zv/2O3jj9R9Icwen6Df/1jdw/jxB+wbyfK3LHuH2U7wmu6C999MjQn2TKI15zx4zhlS+NAtQKU3ADybRWE9x7docNlsNic4k882bJU96gcwFWPcXNHd/fvJxzGjWQ8SCTEBbc738n7lsN3VhpRYmj01i6MgwLrYuYcG/hdRJYCc2nMRDkJfEvWUkGJFonTtCzkdx6LFirEershDocBt1PQFZ46tZ3ArCvJ3IubsBSsEJN0Ddv/eRXW3GfLN2asphOh11LTbaMN3dUqE701uNGWnLfo0FU6OhzeePz6EuATZSyzFKmoy0SRt0VMzLFW1FeFEJz9lncNx7RsZhtx8D0DZ3SMt7d+2mLSDKeKPZHptjbn0dd9bX0LRsdJib6+bhtBhS8EgVuDUtwiNOI9EbCRxHJDWH/AD7R0ZRtR20m0384b/8f/C//+7vIkuY0/6beOX8s2g0rsG214VdIpEBm0K45bsne2S3T7NPuz5HimVx0pFtLXc0meTqa6hWpmFbQ1heauHa9VuinqdpEzUskFtl2kp74od9AK7N41+I7IhQ2RlVS5WP8zWTBhInt+ElDuwsx+mvPIs1fxMXO+8JqyJ1YsPMMXWXQo+bVD2RAmBJjuJbHHIaUav4VHeExbVHWR5qjalPEEGxVx/qcbGKZ2srA57/Ss5f/+KqEXj/UbyHQRGfK/mWpqgpUbxE40WXrMF+YYco7hPY9RxczGxYGZcmasCEko6xQgenrJM4E5xFBdVd/zANQPtu0C6AW3JsJE5BAPvG+hrmN9ZFiIaxXur01Pe0mt47hPBg5hAnvRTFMkaTGTyXq3wKK04kAt8/PIYx18PFN9/Gb//m/4L/5D/+6zh79igam1dhWRtweLKMrABiUBFpM6rob67ZmxElMVc6FMWMgDKiDhy7ilptBmkSYGFhDVeu3hSxLfKuHVkFNVYjrUzpgP3PWP/D/sXx2ZS8M0E71chX8sB0Pssc+JmNsu/i5Gun8HF2DZeTD5DZLJ5z1JlESY1alS0FcRbpVLtF9Vu4YwwKnrwwU/QgSJLDvRVcKW5FcDf/3k1dFYIAfQ+b+SuVc9nwsnUG331exXEyQLy0SIfwexavK5yZ9froJsTIm4sVHYbEBs6YP6SWLQ052uXQQUbedmzhWHYUL5ZeRh1DA9De9SNwF+WvmDxFOWMjjjC3sY75xiY6pOd5vhitMr0hk9cwiIppWWjychspW0nBFbat52Lkqu3HzLnQDDYXt/CyZWO8WsP1Dz/Gq8+dxWTZRps57WxFOrkci91qnLUFNa6fpy3KJHthmD9xjSwTaTu5jxxllAJqVY+i3cowOzuPxeUVYScwdSLfUEgGpjNPCAu9v8vJi9xn9697VRjpc95O0ZTWSJupgsRR0LYzW0B7enoMkycn8WbyDm7YtyRXLaJRxnBBOnxlLDXG1TlsuD0aoHZBtRc7a3RT7Hp0+HmOftel4tV3E+mK+2JYQ1sinntsjsxaLTWnrst6r+uY6RDmskVfRaJ9Gwn7Jtj2z2DpE6Dtye8yO5TOSit1cCCewcul8xi16GKzu4+nMtIuNlhm2m2dBWaCaItK7+jflPF3zMo14xjXlu5gJewg8X10iLVcqRkxG/1jCU64JRR01jZd2S4anipz0bbtot0JRU0ujDrC0RaXKFO8VDdvdmnZeGZmPw6Sc5veQdSeRxq3RNRI3NztXnMN84BFR6ROygc7tsYw+p6t2hlbz/PgZ+4vJt3jnKaopNtkXWSk2CT61zWUgin4wThWVhq4evUmwiiUOJCNIsKHFxYOqWe6a5GvTNZAwZW/J2h/Ucgjms9VMVfmcC3ENoGMOW3g+KlDCKY9fLfzPSwFVJmmAqICZyHDwsWQO0EqYAk4dlULla/dTTnfNc26xgHFnDdpld7LTCpr617UzDutAd39HBbv7c+aaNBOdkkikbmxeZAUJKNp/i+ALqDtIBbQ1oJkAdpaFGUE7qprkJMithO4cDEejuNV/xWM25Myihpq9S36JteuE9cESZ/n4Xiwx/OBXvXUgjZTG/qgF8QCI28pQj/ckitMcwJr0UJ1CaLcQmRZWI1jXF+8gyapRqKBbIouetceaHBlOnZv7NYYRR6YvvMUOT8vy3F2egaTASOnVcTNBSSdVQQlB1ESiVaE0LtYeBKjBDZSPOgV6WS/+/i0ucd/7+5AH+AbS5Qn1Xk+MH16aZZuw6VYy0VM7omDFBXkdh3Vyihsq4T5+WXcnltAFBd3Tx/ULltgS+5TL+gTd+LTEOABrn9vvkRBiOibOC0p6tmZJ5FmmtAAvoyjJ2bQGF7Dm5230XJZF+n5lm8dwB7xsju6XeMGMzr3mPpb58/ds+mzke1+ZgzdjysekEK/XGG/Z7FmMmVF8JVLHlvNHgqbtf6FRGURlKkiDURRgB/yv4RpawYRC7skSgrLxAAJqYR0QmKjkjEpKTYj2z1vnn7Q5ohKQthUoovChdnO8dYSFygyz3xXmAPzrSZurCyjY0BIcm4GZHvpkyezzHKRYXP2sYkxTJccOMkqkvYisngTtkMRd+0clMYdScFoQehBj3vZ4H7aN9Gt8oOeWYtRLBDxIWD+sbgqiagZN8saZiNPLUn5uN4ESpVphFGC2Ztzol8dharE11vtinvXFXV58Av6QrySoO1LgTp2NyWPzZ9ZcGN+ulTycPL5o7iMd3ELt9Fhg5asmg8WeHwhhpC09MTDl9xzOGgfRsxGIjK2xX3CNG4Ie4ZG3Gxd1mauAWg/xtnRXW277Rf6L/3TVLc+CnwskXcMJf9Os4Fri3eQeC5CywbNQYtUiiy25ixPSu+D9XiPBZcswYl9U5j2SclqorVxC2myIbZklFtgyoAdYq7l3iW4dK+BfPDws3+MJCAuOhUfID6XyMZKu+a46tSoDGo5r+2KEYFjl1EpDcH1RtHsZHj//Y/QaUcIOzFKpYpw43vHALQ/+9HgAslkXY7EbYjSn5N63aaT0ckRHD41g++u/xHWy01EtNoqaHiP8Znb66ciNfKM9SxOeqdEDoD/cTdraGGGM87aCpFDDZoHoP0E7no3M2LkZ4octwB2gSSSp7awlqfCDplbWUYWBMIa4b9LWsSU+grup2y57pFmeFxfgUESK99enOHg0DCOjdThYwMJc9zRKiwrkrQaWSwsKLEQs5U21SsA6TUV31wLOXcLj94NkcXP2hRxNzem/3zF34tPoQ40vQmLOFmbHiQjTVaC6FKUUS6PwrLKWFpel4KjiDxJ6sNRzWsRAepehdklDSLte88vpggonMD0SBtubsNJ+bMtXYWnXzyBbDjGW803sepvIPW4s9SM8ODojQDH7EB6GC+VX2RJXHYsHCIh0XSbgXS+S9e+KY7uxBg+lekRGUjjbC1iMibKLgabeT9JLYjbNrCepriytiyNM5ntIGRBxvO7YjddNYxtiLRlPZHtmSM82yDNMFMr4djoEIKMqZI7SGiQ4LC7SwtHVGnbUlbdInXaLcfqsPDHfqrWfQgWTHMYTkHf/OxTZ9EKkfmdoeF1IaEYOf7eheVWUSmPIc18zN5awp07S4gjVeXjhTm2Ch5tPQaR9v0ibfL4hbdsd6TBhpQ26RrwLZx97Qxm4xv4OPsYG24TqasBwefIeu0ELm37Z7LJZyQcx2u1L2Ekr8EhF5GFTQon3hVWK44Ukcn2j+TTDdpFC62ZAkX+miBB9cjYBtbiCNdXlrAaxQgJ5CI85qOTJGLrpLCjqn39lW7lMzyZg+a05MCK3VQOlPMMM9UyTowNoYwmouYiOgLckUlH9OUT7gnYPeBWQ9m+4zNAm99ZDGfvUfnvVtC37BHVp4/x9pbCOywEXgXl6hja7QwffXwLq6tN4a8L40F0QmgXpm4sW6NsWWo0tLlHIfLJ3IG9dlbjRUNVO2lAYTHSRmW8isPPHcbl1nu4jlnENLa1KMM6AO277zC7JIN2FV+pfxkT2TC8jMqGFjLP6Lv36eMIaNOyTWpJTw4HPm0WPrWgnVMDWJTIDP1O+7t09WTTjA0shB3cWF/GSocdeZSIVMqQtOfKiKlfirBMCnqUiTsLD8DH/XhLHxonC9kApmDEzq5SBuwvV3B0dBhVK0LYWkSSbiDLQw1UjSIewY++giKi1P0OVGAzTiKqkKJRd7+JQ7er7a441/CiJfXPFmCa2m4pFKq6G3/HXKDYyfbZk2hUkkmxt7HewvWbC1jfCAGL2sXCN/mUIbwruz4A7U+darrgJSKVKsuz9MvYOPrcUVhjFt6NL2LJWkVI9gNTb3fR7B73HN6L5yPjyY8rOOEfx0nnKCpZVXIjmdMTNSsSi/pYqqjZ56rUP6aBeWpBO5NImSCikZya6arvnwB2u42rq0tYTSMg8GHFqhG8lWLUJZ3ow2B2RKrf+5juwF2nIWBzi0uth0RSIEpJYjtyObUxEZRwYnoMzLrn6TqzwDK5imsXdqlEsLro6P/mZ8nRq31X/2QTiVjTC14AveRIZfRUC7y/jNuL03q58iIFRSswNhCxuMtuUM+CNA8tzc/hzuw8ms0QtltCwu8picFCra9/IIq7MMi7PtAsEws2ctpJoxRNO5RsD6fPncKit4Q3w7fQdDsikUpv0gfnGj3Qpz8VL9LmJB9DUQ0v1p7DOMbg5ZR6087nPrcHU8c1CqBPCAc+a1CfWtDml2ZRi5glbeSGxcCW9IVWE9dp9kotM99DLAJPPVC+e8AKimgvc/skQZtREqN9ylIqaBMkmXOgCx1hAAAgAElEQVRjC28ZNmquhUOTo6hKKzEfwp4h6afBnHz/LEdMEaC+/AhTEnEaI074uPcahOI4QScK0Yg6qs/Qtw3ssXx7oC3SqMJmKeQ6NaIbCnwc3zeNxRs3cOfmLDzbBTm04ojOTscuUfduhssAsB8UDcUoQg5X1Pdc28ZIZQhHzx7Bx9ZHeD/7ECG1RkwRbaARd++RtZMcdWsIU9kUjpeOo446vNxTtkgRBBUlHk7PHVr9nlrQLvSUpTXXKPW18gxzjU3Mrq4gFAF2F3Gai6lpnqp6XFE623pbiyTJgz5Gj/a6IrFhGrNMgka3YgRCO8tQdT0pQLaiCDGF7wsRJRNbC+RJhVuj7G6kbDz65Lv2OY9LP53Z8qlNly56Tp/Pn46P/q4QCNLzFFNa432BEBFky1DKczwzMY4R18UHb72FLNZxZgGYi6mIPg2ORxqBbmcsfFHY4104NLkf08cn8Xrnddz0ZymGjTyO4XLeSwrwkT7yqXwz89SBHcANSzhVOoUZewa1vApHNLYLhUHdue7k8dSCdjGoidFc3UwTXF9bxnxrEzGZIUKSZ0s6/zRMjKJT7B6SzFKONO2zAqpPKBCURhSbwEwBILVJkvo1ldtc6vylwrJgoYkVbqZCKFdauGUXUZT0VhgXkaIJh2NC2ZPC36+oi+tuhEJBKlJfALouElslULs6yJIz13Eo2E8iVqS2rpJXZwu1FyWYKZVwYnIS67fnMHf9qrb4OzTiVaH+Tz26yHJ3FL6Tj8zu+2yLuy2ZBx4S9nNbOc4cO4VgysWfbfwZ7tQXpe7gJixSci7RYWb3fY8dv6I8FkkKKw0wHI3ixeqLmMiZigwMx48zm2GJW9C3d6AMuYf0tO9FiyxyrV0KTpHDFScPTWEwottMU9xYW8FCg4DtIJKtDenzlnGUMZqPxaz5BGib6HK7QVu62xS0Se9jUYRsLgq3c8vGpgpGs70Ug4l4zQN59zZYc3M93ovQ60zEK+aq1E4xrtsieNXtBC0KLpoC+bT1SlI6puAp+f+MhhAWKhnw7OQUhm0Hl954HUhixFxopObwGejx1IC2ds9pSXtrcqnHadd9TEFVLZTy+tu8i525rqoU0tI7oVo4FCNzkHicJzlefP4MFv0lvNe5iEZtHVGewM9duKlqkwxA+5NLBJ8j1mM4L/1OgAP5AZyunEUVNTBJIklWY18mUsyfUCfcnmVnz0TaxSa66MAtOkzZHi2sVOavpYlDHaQLSt9yGOL6+irWQip6aW67eIKKqFYwXHLauy/86M+j66X3vBR7xcYnFPZ/zjkoQTl1nEW8RxcE5uS58Oyr1HFqeBTL125iafamdHXGGWU8d3ar+Tm/4kO+XBFbNnUGhaVKwFiBgYMswtqwJZrixqJLQMHQ1LUpSlNYOQvN1CE3NRs6JTkxz2Ujog/usI9Tzx/Fu+2LWHDn0XE2EDvUq3HhJo4KLu2+qf6QY/u43sbRZe5aG8Q4Z4O4iqOlU9LaXkMJvjTc6OCJZesOTd09BNoKTN3tuomiNXJJNM1BqpwRYudGZrHdxo3VZazFMVLKosqDwi2/cirEQomFPiMasxtB+3FNyW05j9F18UwTEsc1FqcQoJQArx0+ArvRwrXLl9FubMLxyUfflivb0Q/hnGWEKzROh1RObYoiYFtRgrIXGCyw0Qg7sD0ftqPqkCwei4KkYZg5VJTME2RprBK/xsqL+uJsxU4cC/tP7Ed9OsCbjXew5q4idSIx1GVKjXRAao+omcbg2DICdLjhkCaJKG4i8lDJh3C2+jzGMIxaXoGVag/CTvr/7inQ5vMtegAmV8ItnoI2V0cLScqtoYt2nmOx3cLsygqaWSI6ImRN0IuQ/O3C/ULTDqr0pYvBIPx4pMfYNO6I3ZNpbKKsJ6PFcm5h2ivj1OQkbr7/ARYXbsPzjLnDI33o7n+ziveTLZNDRP9Nay4Bgim6oXoFBw8fAgIb62ETzfUOks1U2vvDOFQncjEr1fSUOKObonCWpYhpHebasCMXSZ7j7JfOYtlZxIfRB2g5TQFpeUchn9o1iN79Y7edV0gs8AjcMe8L3XtsMUYedybwbHAKk/k4nNgBDY1pVObQ1X07L9B81h4DbbVQ6gdtge2cMTQjGRtkiMw2NnF9aQlZ4ImGiDCB2RAioujkQWs5oUiPdJvAB6D9aFPQNCcxxyrbfdF1IYBbcMRA1cLZ/fvhhB28f/Edycd/EXY3QowUrWrmQTV6JsfG8RyMzYxj+sCUGO0ute/ALbsYsoZRz4aQRRmiJEQnaqHRaKCx2USz0Uaa5nAsakIrPz+y2nBcpkgCBKUAJ185hQ+S93Eju4LQCQV8qK3N6Drl5Df65I92s5++dyd2KgJsTkx9Fkuiae7G3Y6PU+UTeMY5jnJe1tqE/Fr2Sts+EHsItFUBWyNtM1CC3wRtFX8nje/GxhquLS8jrZTQTtgl5sB2PST8OzvFxLXauFwYpka3yDkA7UeegGqwquMrbBKTg2ehLIgzHKjVcGxsDFc+uIzNlRVYX4D8CFNwsZOJeqMb2xLJlWtVDO0bx8ihSSxhBVc3ryC01pHbHdiphYozjNHKKCbzMTpmomT5FAsVk9611XWsrq1jvdFAq9PWAlkCuEkZBw7NYOSZYXw/fh1L+S0QiMh2cDMbiZMgdlJjprv9YPPIk+sJn4DyzGwysxKS+mzpk2CMGCQ+RqIRnCyfxD57n+jFM8oegPZ9boha5xY57ULL1lRpjJJcC8C7c7ewnCWIKAZlupnU48CSPBUZDYXpAR8mggoPWTG/APnVJzzvu4Lzqo1YFN7U+MDPIQyS05NTsOMI77/zDvIoVr62dK2qK81eP4oeAU1+sm7CLlwWzC24SY7hchXTh2YQTNZxPZ3HtXAWDXsdmdeGg9Ck6gKRWSXtk17pVaeGOv0zrTqqThllqwwPvghuNTc30NkMkYcu9k1PIhoO8efh97DpLCGlB2LuwUttxE4oTTZuHkh+e3BsHYGiuYxpLEoCiHkZnXFSF6UwwIQ9iZPlUxjBCHwyt3aoErmHIm2lSm3ZTkuOTys0zGpTE/uNW7NYZaejCih270rx3qJNRnFcRfu7zU0D0H7k57jnEqKDWXDbOcG9PIcfJzg6MoqZShU3PvoIa4uLwtVmbrYA7X7fwUe+oG0+QbH4FHOP34s0A2XJ5JiYGMa+QxPISsCNaBa3sYJVi5KpEStgcMgVNqa6PbckdQOifKiXBaikPqp5WSLwilNCza+gatfgZWWhfy7li/h++3VEpaaS8jMffuogdiJEbgQn9wagfY95wYWM/RDcFanbJFvbKb5lwUcAp+3gaPkYnnGfQS2raUPbDmxY9gxoF3i6tevZgLZEdA7aAC7Mz2ElTdRRuu/odfIpWEti5W4LuG1+wJ/Oj9MWfD1M4okpE8dFEkUoZymGcuCVw0fRWFrCRx9+2JWKZZStYlR7d/UUoS5RaNRKCRcibhK91MXUoWmMHRlBw27gSvgRFvM76LgdJJYRe6KGjHFKSWlWIMPAWoxtLNw0h6o7R9Vd4O4xSDz4kY+R0iR818UG1jGXzSNxIwX7JIBHDredSO68ED97Ouffw38r1fzJxShCEq4UkWIDm27FYScuRjojOD90DuPZuDpGDUD7AQa8i9495ggndwHa7yzewR3qZfS1axdnLQoIxZ9yL/YuPjzAYG3vS4rdjNAoC6kqsXJjBEOcyVChTGurjVNjE5isVvHRB+9jY2PDXOgnWOnb+wUe46cVuwYCeCko4eD+fRjaN4KlfBlXk6sC2GkQI7U64jBPTWwkCtDcrbAdXeen8rmNLqNyubkO0E2c0CIFMRc58+RWDWmWyyIQu5E0YxF43ITu46YQaTNpWLjXPMYv/BScio7uYiomRBsWbxlpc83lONNRKsBwaxivDJ3HeDam5IYdOPZMpC1jU6Q7TS1Sy4+adypA+/LqCuZam5rPlmBP/xQdaWM3Uej6i0ipaQ3jTRng96PNwC5ocywZmYgGuXLnafhL6pkXJxihQ3itjoMTY7h+9Srm5+dFS1tb6fd+TlumHel9aYqRkREcPLof/pCF2fA2bsUL2PSbCN2OsD7oeu4acRybbWKW16eqKFUBMTeW4i6ZOOQJkoii7D9tskGKRJrMfAF10STPMsSGyuomKjdsHgjtUBhEK5+Y7CoTzPlK5wN2HPNH0ilzxFkKNw4wFo7h/NBLGM2H4Vg9obZHe3I+37v3DmgXNUd+P91xGhswLoVEBwctWPhwbQU3G5tITTt2EU1L7rqbDjHdaGy0MXy/T/dC/HwD+kV+9d2grSYK2qWaOzbCJMZY4ONIfRj7vQDNlWXcmp1Fq9WUAiRz29p6v3eXT7IPKH/KfOfYxDhmZvbDqgOXs0uYjxcQkuHr0OSYzARjsCEBSWYMmgnKdCPSUWBeu2g5L4S4XGqaF0EMUzGMqNl0k9LzXgMVP7OlsUlSKBllfjUoIeOP+fW9O8JP6gmjkxXJwUwnVWDRssZKkdltpKKQ6MCLKhhtj+KVkZdQRxUuAqOb+KSu6d7n3TugLZNRv0Svv6bIHepE5NB+sLKM6+1NJP2VXSOioXBghOL79LGLUw8m8qNNPql5GbMETbtSC5zceiDILYwyTTA6gpptYWXhNuZn55BEKnYli6sxXHi0q3i4d8tOq9sZyxyyLEFG8aCYOb1CeMYFnwwDAjQbtPhdpReA+ss59h2axsjUMBpuG7MxfdDnENqhsBJoyizf1QiP6I6wT/BGmpNkRLqFXJmbxTiZdU0tr7S3V95gxNG4WWH0XrSr23mmu0zTFl+c/eFG6ml9F1k+qdQA3LSku3eRRub8ZH3BgZdUMLk5gfPjL6OEQNg76hi5vcceAu0eYhegze2LZKGEPaKT/IPVVXzU2hBRnEGH4/ZOJsE5mzGJBTWh0HSHl6Y4VBvGiZExOJ0Orl79GPOrd+A6yjveDQcbTwS0+R+Fuphj5veQdm+V5SyYS5JZEIBmUMyHWrsUyVbkGJw8cwL18Spu5bdwPSabaVWKgIPW8d1wpz/9GijKxvtOih9b8kSkzbZ01yPUvzL2b+7DufFzwpmn5FxhN7Kd3+ypAG2l7WlkdHVzE+9tLEvxawDa2zmVCi0dC3aSosT8dJLA92zsHx3DVLkKa72B+WvXsL6xjtw1geFuaWjqoyVZ0mmoWiEagauFRuFcJPo1joNOGMGjbgh1P2ChVq1g/9H9cEZdzKW3cbV9DR2/ichWI4nBTm575+Pn/bRPgDZVNa0eaJNSeaR9CM8NPS+gTdgedER+5ihvjbQlru6LtCU7mAPXmk28t76o6ZHdAgifd/bs0ddrpG3Di1OUshxj5QpmRkfg2xZWFxawcmsOaTuETXcbl5GpZGB3xVGo7qnAQeEupWmFroa4uVIBbdGm0P4Avn5sdARHjh5AWolxLbyB2eQ2Wl4TqU0/TJbM722vsSu+/OAiZAQI2mTxMNK2GGn3gTZvspOUcCI+jtO10/AQwB20sd9v5twftOnleyts4d3VO0j73JPvd+bB7x/PCBC0mVYlrW+mXMGR4WEgTXD7xg2sLi0iCyP4ji/9UFGWwvM90Y3ZDYdYcWUmh2xSJQrePcpSEWlL3po2mI6HMI1w4PhB7Ds4jUa+gfc3L2PD3UDb6yC2I1XzE1bMXi6v7oY79OSv4ROg3ZceEdAOfZyxT+OZ0gl4KIkU7iDSfohIm+E21RXUdh2Y67Tw5vICUkZzO8F8f/Jza9d+gphOIMcQbBys1HBiZATvvfkmOo1NjVYdB5QQtSxXom1lWewOih8LUKQnEqTZFVc0YGkem/IHvcKkZFJSG0HFx/ShCVSmq1jMl3A1vo4Vew2ZHXWVJ4V3rUosg6aAXTtz9cLuCdoWOyJz0SQh5e8F9zkccQ9Lh6S9Q/qsezanXaRHBLSpKmc5EuUthG28ubSAWGhNu6PItcvn6mO7PKkpug78MMI+L8Bz0/sw9/77WF26Y8SjNJ2QCUDS15IfrU0kO30UTSyqNZ1KWkTSIMxvS47bEY3rJE2EsVGqlnHomQNwh4Ab8XWwIX3N3URsJ6qzkup3NPhuqE+DrPZO3+fP+vx+0IZlCpEWKYDEFxtBWsEL7lkcdg7DzT1RWtyJY++Btsk59oO2GtIyigMW4jYuLC1ITnsA2ts7pRiMJhYQpBnGbAdnJyZhN5v44J13xMaMDTa0neW9osSuZI93UXpEaiSUL7U1ZUMmAd1e+KW4M6BrvVNyUB2t4uAzBxF7HczGN+X/ht9CIpoV7KJjXlS1RggEueRKBwHE9s7Gz/9pW0E7kXlAuWdXKJgK2i95z+OgdUhc2nfKuuapAG0tFLEwBNxut/D64rw4rQ9A+/NP3Ed5h0qxAr5lIYhinBqfxMFKFW9//3tI4kgMZUXbXFqEmc7aPe3UBXs/txJD82O3rAuH/8NBwt1cAEwcmhD+9aa1jtvpLcyniwj9jnJ8Uwte5gunV1JFDqM1CkFlcq4BcD/K7Hry7/000HZSA9pJBa+UXsZ+zMDlfWbz0g4cTwVoc9wKgL7VauKNO/PIPG8A2jswoeBohGnHIQ7VR/DsyDhuffQxFm/PwfYcxNQ+J+fVYqt1wczYiQvd+pnSJCHUUTJGepE27aUItk7ZwYFTB+AP+1hPVnG18xEafgMdNxHNaqZEgtSFnRCwbbEUo351ZlOgiZH2ALR3/i5/9hV8KmgnuSzcflzCVyqvYQpTcKRjcqDyd597WuQDe3xXpdZqp1chEDXbauACQdv3RfNicGzfCAi7wnYQZwkcK8OI5+O5yRnkK2u4euk9ZGyyNh2Bnq01iN2S5ZWWIFL4ZEtsQJuFphSoVCs48Mx+2EMOlpNFXOlcQcPbROKnasBBdUIWK0XnRv3VhNkt4hUmpBikR7ZvIj7kJ90btJnqyuHarjjY/EjlqxjFKGwB7S3qzw/5qZ//bXsm0i7knPhgFPNfFVbZwqupEY7hbLOBN5keEdDuHVLBl+JST02xy8e9W6f784/j4B3G0Z6OHp08getSXS7Bc9MHMBzGuHn5QzQbG7ACgnUKN7elgLxb3NjJzyWDJLMSzUFTeQ8WRsZHse/QDJJSjJvt67iTzaPldRB6EVJ+j8yGxwJlliIhVdAhZtORXjWwc+bEZe5RV3u3LFGD6XqvEaBHpLax8yZyl8Qwg4bIGTzLhdf28WO1H8VwPgyb93UA2vfZuphfU/BGHaiNXKV5DkgloxbEzfVVXJifhV2vg/oQoj9sa4Es5cNEKcvUgssHLU8R8kY5DpxY2QKD4+FHgKMnLewsSHKfk2WY8kt4eXwas5fex+rqEqRD2KafIVka/drbD/+5j+OdBG3HshHlsfxJG7RDxw5g+OAYVqw1fBBeRiNfR4IYua1WVIykRXDMHL3IWvFZ3ZBMU43RcH8c1zo4x5MZAXZRc3NEOVaCtgh28V4jlf7Hkc4QfrjywyjnVWEGDXLa97kP3LAKY9aIxBfKZ6KVw2dDzHqBubVlfOcP/yXiFCgFZbiOg4gRnWPDK5el8ZRefXmSwin7SEsuhvdNw7IHhctHfRS2gDY7CfMco7aDc5MziOYWcOXKR8gCB0mWIxC7KzoH7Y7ok3RxqgyGeSILz+TIGI6dOoYF3MFV3MB8fgupG2qwnHmmxX13cMwf9b4N3q8joKBtwUsJJtSKofI4HX8SsReb6Izia5WvoZSzfYz57J0J8vZQesTsLvnQmEhb8oaU9OQDZ1T95pcX8Q/+4a/i5tUbIufClZPsK8tzYfu+gLgVMwrMAc+FVQ3wF/7tv4zhI4dVZGpwPPQIqDQryRMabRO0K0mO52h4YLt44wffAzwbYZygYrMbcheBtqGS0lORc6Pml/DCKy/iausaPog+RqO2htxLkLN4SrMCI3v60IM1eOOuG4Ei0vZSyrQy0qZav4PYTRGkDqaTCXwl+NdQyqty7Ttli7dnQFsFIXqJf2YySB/jQRUuO9Go587yEn75H/4qbty4CYstxEyRONz2ZsJcoO6wVIIdB2Gaom1l+Jlf+BuoHT4yAO1HfIyKErGkDyR9lcMPExyvDeHk+Djeev0NtDstAevAck1O+xE/9DG9nQsOC6jw1bEESYqXX3kJS+4aLrXfQ6O6gcTpqFUvQdt4Pj6mjx+cZheMAFk/DPIcyjVS75wzmPx8J4WfODiAfXjVfQ3lvCYdrgPQvt9NK3aiuquWaJugLe41Ga2ALIRZilvz8/j1b38b165d5fMnusKMxhMaJzjaocY8JLfD/LfUd/GXf+7nMPzMiQFo3+8e3Of32qzNWU9AZusv4EcpJl0Pz05NYf3OHVy/dlUUiHkP+gvBj/jRj/x21QLPIDWoTN1kDh8/BGcmwFuNt7FeXkVsteHZNCE2jVti2DA4npYR6Aft3Dagnbti2+YnNg7Z+/Gyc34A2g98w4uCoxFyZ4WeWreqdqwdZ8thG7Pz8/hnv/VbmL1yRdgLTqqpEOa0E27bRZgfCPwSmmEkhcif/ms/j7GTp5HQqHNwPNIIyL2gia8UfS0EaY5qmuLU1DTqtoW333hDAJt629wB7RbYE1YSZxJBm8FAGGF8egz7zxzC6+03seItIkITvusjkQ4hpfYNjqdnBCjDqpG2GiIw0ia/PndyeJGFo+4hPO+8iHJel5rGTmhpS1omV3+nPXGIjoNYJqkjCkM55qEJ3MxAfbS+jFaW4P/8zu/h4h/9MaoZbZe4nWWXG3OtNuI8lWgpTnJYricmnq/+xNfx7I/+qLRZD45HGwHSKhmxCHciz+Gx6JgmODQ6gsO1IVy9/D7WF5fgeR4SyjLukjEvONZsRRe38jhFZbiCfc8ewI3SLG7EVxBbHRkcG75E5dQpGRxPzwgUrlZMj5CzzYXZSj3QutMLc5zwjuGs8yLcLFAPVP5+B77+ngFtTWlr04KCtqw54vIdWxaWoxBX22vSCbl0ax6/9cu/ArfZQVkQXaO6RMSlcpHKFCoWKV4W8NpPfB1nfmwA2o9l/kljSQHa9IjMQavaumPhpX0HsXxzFgs3b3YLlY/lMx/DSYTClVMfhd1vmlZzSjYOvXAUV7xrmI2vS06bWwOCdiryrQP2yGMY+l1zCs265rJok74pzevkqNo5/NjCSe84zjjPw8lKQiPeGWHWPRRpM3ctyX/TxKGdM+RgW2hawI12A0tpjJjUvgz4V7/7e/j+//0Hou0ckEGSJbL1ZWRHpxFxtBYxfhtf+omv49SP/Mgg0n7Ex0cSDGIWrqDNBhPR3UAKN4nx6pHjyJZWcPOjjxHlqRQipei3Cw7KbJLGFfPquTuwXQT1AIdeOIJ3oncxn88hdSm5yrnjyUNbdE7ugssfXMJjGIGi+Y60P4m06chOzRg7RxABp7wTOO0+J6BNRpoa0m3/sWcibY2z+ySg1GNM8toreYZr7QaazEVZHOgcTmMD/+S//1Vszs0LaNtUbxMyLpkBGqnzbJnj4PmvfRUv/dRPqnv14HjoESjYI0V6hKYCHGiKMLlZguP1ERwp1fHB229jI+rAtSl7ujtSDJIeIS+X602awYOFielxjJycwJuNt7Hk3UHmhhJd5Zl2w6l/5OB4WkbgbtDO2XCV+rDtFKXIwbP+SZxwn4WdBbLD19Bk+489BdrSq84ikYwUiwbqOD0XR5iNOuh0UrhOADvP4WZtvP3d7+L3v/O7qLDwlUaUAtIuNj6gJr2S5MChF1/Ej/77/x7iQSHykWZgYagloE0tajJ3CNoUVMpiTOY2Xt5/GHMfXcHNO7fhu650Hu6GQ2VZAeIx0lwK2EdPHkU+7eCtjXewWVlDYrfhkhkTUwt893Rz7obxezquwTjN5mSWScOBgraVohw7OOufxjH3FCzmtAeg/QC3vFsvZTStdDHa/YQAPlzbwDJzULmNsuMji2P4ZRvzVz7Cv/it38bG7BzsLGH3NDLHqBRRCoKa25aN6VOn8K///M8hMmwGLUrpDZT4vlhO5d/12B1Q8wDjto0v0Xwgo1UdPUba/Ftq0eggxSgsvDC1H26jg3ffv4Q0TeAKwBcX+SBxyxMaee04l5QNn1f+//y557BUXsZbzXeQVCPEeQeO4yGJyfcfMI22cWpt20f1dotMj1Ca1xPdmGoc4EX3LA55x0Qsijv8QaT9gLeF0bImNizEaY71zMKNVhtrzJ36HqwogZdnCBGj4rh494/+BJ1bt+HGMU1VRMh+vdlElKQolyqIOzFKk5M485e+jshzESap0LrUz5AUQVaSdaGgmIyzy9qvH3DYtuVlRb2BLJyCPuUnBMMcmctccYKTQ+M4URvGxQtvotFqSE2iYM5ps4IaNOuhIF78WBA8n8SXEfsCx4Yd62favo2XvvwS3oku4Ir7EVd7s8tTOzLOhYFWzZO4Ezt3TqV9QlhBdp6KyS+BO3YTjEdjeNl5CWPuJAJRhFTjlZ1IkOyZ9Aj51Ta3pPxP1OEsxLmN2UYLi2mGNhGZWxZGb3mO2MlA8fKh3MKx4RHUGJnnOZI0RjvsqGyrdFRY+ODWLSyVfIS+h1g+h9uijEwfxomIHQPaGV0s9KHeLZoZOzfFP/nJRRs7m5Y4toy06fohRbs8RZBnOFyp4/joOFora7j03kW5Z4UEgYA1efRdbete5M0oWB6UJ7THEXsxdsTFtnTNVkcreOa5Z/BG8n1cd6/BSTwJxQnYYngwAO3dNPUey7WIKqOIRGVwBbRVpTFyE0xGEzjnnseIM46AISO7JslC24Gs9p4BbdLJJRLLU9UqtmxsJClubDTRcl1ENI0VNgKbaVKkjiWg60cxRmwHh0dG4HOIs1QVFdlqLee08cYHH+Bqpw1ndATw6RbOjriCKqj5LSVCDED7s54OSSeZ1BWjZ02VaIqpYjsIWh0cHx/H9PAw4k6Iqx9+iM3NdQPULAQa3qtYl/ckeLX8UIhvP5n0iNxfLjSxBgYHnzmA4f1DeCP5AebcOcltFq0UPSoAACAASURBVHZkBWjvxAP7WNBpcJJ7jgBBmgeZI05OYwuCuCuCUVPRFM555zFsj8IXo2f2GAxA+zOnUhe001SaZEi+mg87WGiHCG1Hmm6EZkaQKHSaGXVnKequi8lyGcOuC59FSvPcFwDz5scf4825Wxg/dgyZxxZsCHuASoCk+0h6RKiGTI8MIu1PvVFC9zNqjMZ8vOOy9pCj3ElxvDaCmdFhSZf4tB5rNjF77TpWllfgey4y3luCPfXR+yLqJwPTW7+FRtoWnNRFlic4ff40klKCC+HrWCmtwJb0iPRKdiPtAWg/XehPE2epa9hKU+XPTI8kTorpREF7yBoRbJDmPtNEtt2jsGci7W6ikzQ/C8LNvtZsYD3LEEvRi94hmo9injQOE5SDABnNWPMEY76P/eUaKtTLlUhOuiTAZtULH36AP750GSdfOY/Ipc62JQUyip/LQypZFBVIH4D2Z0zRQufcyOQSnCMH0pU6kbt4ed+MiHattBoYKpVQcz0gjnHzxg0s3J4XZobcQxl3jdqLQ0H8QQqVD/cIycOaZQgsH45v49RLp7BkL+FS+C42ypsy6fQ/zrHUXNyTu56H+xaDdz3KCBSgrV2xPdBOnRQzyT6c88+jjlHBD6mvDED7fsOt22NibWJZWMlSXG1uosNiYUaNbBaGSMFOpWGGouVxHEtBKU9jVKwch8o1jDkuXHW9UkB2gB+8dwm//+ffxys//uOI6GPIm0GLIdmVM7LSYhpRRAuRg5z2vfeXhtWjvUtIKHOKHNUYOD0xjclyCWudDppxW7pah4MShoMy0iTGjevXcWduHo5U5U0B0si7mvqkWMo9sYOdtUmCwA5QHaniyOnDuI5ruBJdQStoqWaNmIpJjm3gP/rEbsTOnZigrYbMBrSJKZknhhcH0hm87J9DDSNSG5OSZTExt/mS91akndHMwEEbEMbIUhohEt0eWgRpHCZaJCxupdzqsHkmR5YlUgQbcRwcqdYl2mahkbwuprHeeO8Sfu8P/hW++lM/hdBntdhFnrDBQq2jtKXVbPslPaL848Fx1whIXtiWAjC3mJGdi4zAwXIdR0dG0ckzbLSbmshi3SDLUPU8jFRqiMIQ87fmMD93C/SPjOIInudK1M37KOWMJwnaRS4+szA+M47p49O4lLyDhXQBoUtXdRUlU7kRRlk9r9LBPHg6RqAAbYm0TXrEzmhbGONQdhAvBy+jAlqNMZXGibAztM89BNqatY4tBytJhrl2GxssSpouRoI2D+EIS25SC1mMpMXpLU2lyeZgtYZJz4XHwDlLBbTfeu8S/tff+z/wYz/9byGplZH6gTiFMz3CfGyR+xawMY05Xeecp2O+PrZvwQQCQTv3LIR5hEk7wNmpGfi5hTtRQ9g5BGwR20kTlFxXdD5Gq1XBwvmbN3Hj2lXUKhWEIVn4OVzPRRRFsG3ufZ7QIdKsNHD1MH1kCiP7h/G99nexaTekpkFn9aI1X0uVW9M3T+iqBqfdxhEo0iMx6akmPWKnBO0IR/JDeDk4jxLqxkpuoKd9/1tj/MRasDHX7mApihFKQ4RphBG+mPKDKfRCNxtVnGM0Td5lDj/JMOZ42F+toMJtuNnmvH3pEn7jt38bf/Fn/iowOorYlxgbVkoD2q0PaOH9N2hg/rRbZkmhN88TBK6Dk2OTGPcDbLbbWE8jWK4j7ByhBPJ+xTFK1IuBjfFKVXY2czduYn5uViieLA4mSQzHcZ5opC0LPM0Z3ACHThyCNZ7ju80/Quzpoh07rJxQrIxFKO2GfJKB//0fiMErHvcIMPXJYIygbeWppELJGkoR4TiOSnrER3Wn/Hy7X3cPRdosCFpYzYGbrRY2E/5Mpwmj/ycArVG2FAyF8kuWNSU0mcNW77dSmmG6UsFo4COQbXqGi+9dwq/8xv+In/jZfxeVQ/sRclvOYiSzmJQP7YuqBqD9GY+KsEcseBbgxQn210dwbHQEzShCI2ojcyyk1IfhLXNdpBkd+FgnyIX7ypTVxNCQpKVu3ZzF3M0bcg+ZGpG2cbkRj/tR1fPpbipHySvjxNlnsFRexIXw+8g9aaNF5IUK2qn6CEowMEiRPZmbsUNnLUA7ImjL7pz9GpyNiYD2S/5L8HIFbdEA3CF7wj0E2qmA9FwS41ang3bGSM0VPiWHULnUGmWzqUO8RQRECBK52oxRCChNMOS6mK4PoW7ReTnHxUuX8N9961v44Z/+NzF95pQ02aQEbWM9pDfJJLWNy/Yg0v7kkyWRp01QyzDpBDg9Og7fc7DY3EDEhgVGMhnz3ZbovIhcbhih7HrIogg114fL3VC9Bt+2MHvzJuZu3dKuVBpaOOxQezJPtIgFWRbKfgXPnnsWl1uX8KF/WZzXrcxF6KnVmJs6A9B+Mrdgx8/aD9rklbmZI01VzG+fsI7jee8FOFlFjcQHoH3/+8WIK7IsXOu0cCeOJbftpmYrXoC2lvbFSozDKh2UQjoRpBXqCXPUpTzDVKmCfX4APwcuv3sRv/xr38LZH/oyTn/lNaS1inwWKT38XDmt1C3pL6kcTTmnsEos4XUXW+WnLfjq/15F2UVx07Scm1tX/MRtpWdbODY6gX2lCjZbLTTTCKnLdBPdbBzdgnIMLTqTOchjo0GSZhJxB66LWilAYNm4PTeHW9evSwFQP1fBVVvdHx+CS1nJtjA8XMORs0dxYf0C5iq3pbOW3zW1Y+mGdVngJndAUnOP7/Pv/wQMXvGkR0ALkaxfMD2izzt7M4LUxQn7BM54Z8DCZKE78wS5TJ/5VfdMpE2HJ/qGvL+2igZpfrYDT3JO+uiKB6StVByxF5MRVaU5wVz+XuS0yVpgUTLDiaEx1HNgafY2/u5//V8B5QBjhw/i5KvnMP3MMYQsanIbn2RSoPItF1GrjXLJR56niNl5KZretnRYytpghDNUaEqvQ65hDz7fCkyKjYWIUnfXwQYYUvskPa15Xrb++nksKY79I+MSHTdbLTGfIHdeW9HNuTIWjfW+9GMfx4+0PzYwjJQqKNs21u8s4soHH0oUz8ap/kMB/DEMLgvMNnDwyBT8A2W81biIdX8doReKpC95uUHK+eYI5VSb5x7D5z5pJBqc/4FHQAuRCtr8u0EOVDoVnPaexQn/pICIazFxysn8wKd+rC/cM6DN2v315TWsWCmaLt2+HSZHtOAorBGNfKS4yFy2AQMdfCM1RFCnB2CawI9j7K/UMe6X4CYR/sv/4u9idWMdKYHBczE8PYVXv/ZVjM3sg1OtIkYuRsJuKRAmg0TtrjC5BbmEEWG6ABmk80En60CuidewF6tWfS3pha5I8TUIwpmYJqsXpOSm4xgTZR9Hpqbl50arhU4YwmKXqaq1anyubEspEKsQ112zP8/g2aRxZpio1FCyHSzdnse1q1dUAz1LTbSjhcq7gfxhnhB+A+6cTrxwFJuVBi41LyP224icUB7i1LLhcWeXGhVDWWkGoP0wY71b39MP2lycNZrIUA9reNY/g2PucWmy4m5xANoPcBeZuf7jC++genAfwpIvbewaSatAoka1PdAWKiCjOslvG/UuaYohBzMTJcCqZWG6UkcFOb71K7+Ca1euIo5TOLaNhGBULmFk3zQOnj6JmZPHUZkYRYc0QeZgeVamTwxgewQugrbwinUBSSguxBTAXgXtIglSZJeMlrl2iJoIm+MkLf4WSlmGZyYmMVouo9HuIIlj6TglYFP33FDclTIlKSWNmhW0e8DN7aeyShzYcYKp+jAC28aff/e72l1l0jMEa96DxwGeVHRzfRfPvnYK1+Lr+Dj5GHApLJZIvSR0GCAoT7uXFhmA9gM8unvmJSoYlUtzjYK27NFRbZfxQvVFHLaOKFffuBwNIu373NokA/7srXewaecYO34ETT6wtiqvFYPHCFs1nanhbEBdWqpNh52wBHT19JkmSRJMVOsYd138i+/8c/zB//X7YjMlJgkmV525DrKSh7Tk45kXzuDs+XNwq3XkXkkcxyUtwjOmiUT4zJlLCoGLiOmcLPwH98zs7cKiRsTFUexoCtCWVBNHN0rhWzbGyxUcHxtHmmbY3GzApj65bSHMUmGOFOkWZeDoA3Ev0Oa/CY87iSXKJutntFrDOxcuIOp04LL5SWiFCtqPI9JmlFUfGcbhFw7iUnQZs7gBSxJynEu2CJKpsQODA6ZLBoC91+bz/a5XqZxGMMqANp/pSquEl4ZexgEckp5YPs+DSPt+o8nHOwf+7MJbuHjzOl746leE4ZE5Ss2TB98IwWl6RNMlAtdd2oe2RFAAik01JUbAYYK808HZgwfwp3/4/+Kf/87vyFafHpJpksLxmP6w0YpDuD75mjn8ShnPnjuPfc+cRH1iHHY5QMgPIUDxIiRN0meLxsvYi6mRfuEnE8tKi694IzLKZtonl0KunaQYq9RwYHxCfm612kiyRJcvMkREwKunAFjktjVptTXS7hY+xeQiR9rqYKxWx3CpjPnrN3B7dlZSI2mqKZIsI3A/enLRzh3MHJzB6NE63orewW17Hhk6sihkuY3UpiC+dAKIKP6OJTQf4FkZvOThRqDg37P71aWhr+BHJjntc/Xz2If9TMiaPf6jz7mHu8o9ZOxL7P3u91/HH194A699/S+gPD2JDiPqbgRUFLkUtEV5WQggTHVkEvWROsY0BkWKKpaNhY+vYfnWHH7m3/hJvHvhAn7zN/8JwigyeVK2vysDRfiYEmYqQCR8gGt1TB4+iMNnTmHmxHFYQSCmsKR1MxKk5lFXsc7QEh/2Ju3U+4TBZwJK2TUYwC68Oj02o+RAJbdwaGJStETWwxCdOBIDZQow8U/eA459v+aTFjTvDdp8PdNOpA6SdkkWyXi1jnhzE++9886WwmNX/fERB4m7q1PPnoA3ZuH1zTexXFtHM2/AcpmMp0eSAy8RHglih1rLMjqP+KmDt++mESgs5wS0Ey02inZOp4JX6q9iEqzVqBlGz8Nq+7/BnilEcmj+vz/5U/zp62/g+EvP49jLL6FNiVbmNJlPJj6YApduvHN4gY9OFMLxPSRpAs91RA607vqY/+hj/M7//Jt45czz+Dvf+Bu4fu0avv3tX5NiJIWDGGVLFGduj7IntNgoXALHBVMnHStHdWIc57/6Qzh4/Di8chWtKBZ2S27//+y9CZBl6VkdeO761ty3qspauqq7urbe5W61WmpJwAgveJhA2CaA8IQHmwg7vBAO7GGWMIYBG7RijFDMGDGABoSMrQWwZYtNCKnpReq99n3JzKrKfXvL3SfO9/335cusUvfL7Cx1lSqvolSdWe/dd99//3v+7/++853jSJTpkAN8B26n86SSAqyRBTABBgW3nCiR1MWu3j7s7OlFkKiCH5k8FhdTAe4EWZJKnWAtQ+5mOW1iofEDlrF2qLznuOgrluAnCV75xjflvtgc3zVMkrfy+BB+Dx7ej0qfh1PBOZyKLyGq0AGJ1ROdX35M+meK0EtB09c7srj8VgbpO/y9q0Gb/CXdT1UbZTze/QQGMKR4YNKnb9dw3DGgzYjqmWefxV8+/wKsagX/wwd/AMsEYfJ8Tdt6zt6Qh14yFSksx5ImjiQORbUvqTXw8jPP4Ov//Y9h15t43xPvwj/5J/8IteVFfPzjH8PE1QlZBCRCZ56aUWJ+dwxgcQ1m1E0TBXb2hQR3r4Dh0VHsuf9+jN53P9zebiTUzBDKH3mfd2IOdCXN0+Imm2w0QZvsjqplY9/QsEjfziwuI3DYP8byHVc5dQdi1Cxq1GuG4OagTd47aX+McCmVaguPmy3u3Y6LF59/XnLmBGzR3d4kvjY52p5nY9/+UWQ9Ds5EV3A5nEBcInMkliauAkXGsgSBq01cW6D9dsHWrfncFdBmvcvTXaZF0C7hye6n0Id+ncsSMBiRv1tzKW941jsGtGm4+sILL+CZZ54FG4oPP/lO7DhyCA0WuKQ4QE1t46jNNmrXQRiEcF0+XCmcNEFtdhZ//t/+O868+jqyelMYJA8eOIT/7f/8PyTP/Su/8u9x6uQpiQ4lT0qVQJNmyYtvknKJYuERC2ik/CwXMUEcNiLLQtf2bRi6Zzfue/RhlPv7pFPzjs2BCsNjJebOYZyRKVX6vDTFjt5+bO/qgpWkWA4CNJJICo8tA2ZpTdW0VXuK/6agzV0MI2yXkroJCo6DJAgxWK6gz/Px+iuvol6viymw6pFszmJI71GuMeWCi5F7d8DuLWI8nMDV6CoaTh2xG4rzEUE7NMbFb8PzuvWRt3AEbgRtTYJUmiU81f1u9KCXjZKaamX6zojV3cJLuump7xjQZv6ToP31rz6D1PMQFQt47w/8T0jLZQHWFZ1rbbKJoxAlvyBKfXYUYWZsDF/4zO9ifmICVhihp1JBs1HHjtEd+PBHPiyc409/+tP42l/8heSkc2pZrnkhMq8tF3jVMmHimg0k3P5zkZAOSstBnU03BR9xwcX+hx/CY0+/T2zM7rRDNYOVj6x9odx1mMKvUBxTIApRtGwMdXVhV2+/qPktNBoC3OyCpIQAx9LU22UIZBwNLVIZP3kXj2YL5Td8INJEzCisOEFfqYx+z8Ol8+dx7do1U4DcHLqfXJRDYaoYJZv6yRn2PbgfpYqDifAKLkWXMe8wv61LFnsGtGC6OQvGnTYvvlOvdy1oO8ISydAddOGJrneiJ+vV9AixQFJ0b09N444BbUZCzz33LJ772rPSWEMj3wfe9x6M7LsXdP9Wo1UFBII2u+qsKIITJzj18it45o/+GAsT11AERNAojAJJney4Zyd+7uf/rXAVnn/hefzuZz6DKIwUtIXCp4CS14o1v0uzBRYlddUVcCMVLEkk+ovJXnE03/3wu57Eofc8jci7Q0E7pzAqmVI1ypXUKNZurLx6/JckwWCxgn29/Sj4HhaaARpRiMy1EIvoljJ5chaJsntMB6u5dwoGCtq5DAHTUEytdPkFDBcKmLl+HWfPnpXgXzjym8AcyaN/RvhsU2e+nL2u++8fRXHQxTgmcDYeRx0NoftlXJxFU7sdtNvZBFtgficCez4/BT8SpkeUlz+MYRGL6sq6hfKXd+Fu1txb71jdQaCd4fnnnsU3nn0BUZwgLfqo7hzFkXc9Cae7G2FKdpmNJKSOBVBCgnh5CX/ypf+G4y+9grTWgBPHQlPzXBtB2BT6Xt/wID7y4Y9IFBk0A1wZu4K/+OpX8dJLLwsIU4SfW6GC7yMMI7jckktLPLf7qlrHR5SLrkMnnCiE7XiIHA9pVwXf+0N/B5XhEVlY7rRjhd2eg6n+LYDZFmXSyYOLFjXKu30fe/qH0MMibZPqfk1EDnXQNQkocJyQeskVj6ySNfRIfgKLy0YSVyJxyxJNkt3lKhanZ3D8xHHpRmW0w2NtvNNqflkX1TIvOZsUDrn8ro3te7ahZ1sPxqJruBRcwrLHvD2pgJryIg+dkQK5u/SRzKxYnE5SO5bvaqeudMTmzV932hy4m66XjXh8tlW2QIMMP/ZwT7oXB0uHUEZJvYsk1/32Pc93DGhznCavX8fvfPr/k21JyNnUVcE7/9r3Iqt2AaTcRTGqXgFOFCOencSXf/+LOP7a67DCWBgIiFWYiAVK6VikGt3IMH7pl365FTSR/8v0yIULF/C1r30Nr732GhqNhgjyM4rmZ0cJG9oJFtK8DZApYRGwA5R8XxaVhuNh3+N/BY9+4Lul0eduiL3I3SbIdlkO7hscQZ/vod4MUIsDBNLWr6DvMFJlMVHFYL41LhixLwIk1RjvqXSjubiIkydPcXkUSqHQMQ145yfKXYU07dIZ7LQasCSS1jw+uduO42L3vt2oDFUwFl7GhfAcGsW62trZ1LxRJSsn9eCm3HPESJwQicM5YklBy0nZxp+ft7Pr2XrVt38ExMjXdETqwp+hGBZwMD6C/ZX9KpvB7gGjB78Vab/JPcpJAv/ps5/FxPiEcKJD38Po4UM49PgTiI0in5sC544exde//CVcv3wRvuNKgYx/cual6DiTUSKb3Ay/89u/c9OHmwA+NjaG119/HS+//DKuXr0qvpM+pVtjknalgVujRdLcmIN1bAT8ubsHf/N//ruw+3rFKb5D7Pj2z9RN/MS8G5UJlLLtYlffAEZKZUk31YImGnQa8mwp9AqgcdGTYPnGRS0PZHJ2CDW3d3d1AUGIEydPot6oyy5INY1Xj+5GQLsF+Kxm541FKWl92s68c/9OlIYKuJZcxXgwhoZdR+iFCJ1YI7PUgZd5RqxMI21Z2FNPIvB0C7Q3cabdmlPdHLSLOJI9iH3FfS3QNspzt+YiOjjrHRVpp0mKU8eP40//+I8RJjFidimWS/iu7/s++KWyRG+vfvNF/NEf/CHi5UUUZJedIQ4ClApFpMytyk7eCJgLJS3Db/7mb6ppLyNmUXDN5T8VDCgQxT+vvvoqvvzlL2PyuhbCYLuwbAdpzIKZhYLnYm55GU5PFQ8+/W4ceeopNCTKfvu2Uh3MgU17iZYq2TWZiQoiXdj39gwK2CZRirnaEgJ6dnrsktQEt2rH3ORo334avvbuShVemuHkyZNYmJ83QfqNrJTcCm5dtcI8KDcaNqJGyNQG9bMtB5mfYfT+UXT3VXC1eRWXg4tY8hfR8BuIHS7/LMy6cGPuvqhqyN9xehH4mR7R3d3WcfuOwGrQ1ligFPp42HkUu7090BYro+m+lR558xtpKJOYnZ7Bl/7gDzA5M43YtlG3LBx59FHs2LMHf/Fnf4bnvv6MdOnRE5Jc4lbuVezKbAFubs+ZMyV/u7urC7/6yV9Vl3c21bh8SBVI2ulkjLoJ6gTvZ595Bq+8/DLOXrqEIIyM+4p+VuzYKGwfwnf/4A/A6ekxrfYtMeg3/6J38CtykBQXdhaCkxjV1MH2chW7enrF2GCmVkONXYWepqks2netWdTy87QXf5mFGPIKqDguzp89i+nJSakvkGEihSHzYtnUmv9eH2irzIGAq+l4c1JHQDuN2KjlIbYj7Du8F6WeMsbCSxiPr2DWm0XTD2TP5sCHF7lacJXIWqodLX3bLdC+vSf3KtA2u61SWMA7Ck9g1Bo1/CmmRwglb18gdkdF2pJLSlP86R99GcePHxddY+a2vUoVcwsLOHv6FBCSQ50JTUxqZuRSmw5JAWGzmyZw79u3Fz/0d34Ihw8fXnnQ21bQb8kBTjMsLizg3OVLePHll/HyN19E0mQB0kXouzjw9Ltw5D1PIhBKkOkEvBuCLGM3RjBm+onoRdVDGiqPFKrY3dMLz7Ew12xiEaGKSBmtGM0hKyGDIL7y3yoeRYoltbV7i0WxIrt2+cpKPrtFIVxJlLQeqQ7HXQWA2KSu80ZTGw4samgz0qbTBTdiToad946iMlzCeDqG8/EFLHjzUnx0Mw8+QVu8SlNJiWjUn2vg3N6gdbdfnYC2RVXKXF4BktN+vPRObMcOmZuORb2jlaL62zFmdwxok6VBMjtzoONjl/G53/s92WKznTxKUlweG8PCzIxEd9RiZh61WCoiTOgSCWlLD9nSLt1MGQ4dOoT/9Sf/BXzfVybAelZOU4gQAaU0wcLsPP7L7/8hnnvxRSxYGX7kJ/4xkmoJ9BLn4uDcoSYI656QBrTzDDWpU8wvU6PEa8YY8kq4d9t2AfT5ZgNBFiHmDWW6ykgQUN6WVXzWIopeASW6tXPLxLSLyV5HjSZee/ElYZRo2NPG/W5vY+oQsBVWjcQvY2Zek9H5ZvpG3HbYDcnidRLDLbnYd2QvrApwNHgdM/6MtLvbiS0WVQRtgrgWH1Wphd/p7YvN1n0n78o3CG1Y5pLZbWVAMSjgqfJ70J/1wxPzA9XFEU2dt2mU7hjQlmg50RYPshSkIHl1QrsQkxRXroxhfnZaWsalPMioN4pEZY5pkZjC+Y6DcrmM73r/+/GDP/hBeC6lXZW9k0usdnQfSEczO19GlYwEozjF+YmreO7USYwcPoA6AYt6G7TYklxLR2f+DniR1glWOkiVUeLDRiFK0eV62DMwiKrnoRE0BQS5GPPeuI4r942wx4WWDI0wjoXnzY7TerOB7kIJvYUijr30Muw4gni9mQxEvjauZo10NvCium6kOQmzeTGT15ZEsXLyaYRAdUkrxYEHDqDu13G8fhTz/gIil3RSgrMyiRJLQVuDty3QviMmtsmrMbWl9RYLpbCI95Tfi170wTUTjUEfX7pl7Psmd9UEt9pAk0QYv3IFn/v855Gklqj4XblyBQtzs2roi1RAlA8Y6XfkAzOaHhgcxA//8A/jwQcfRLlUMnlrsxVeR6TNmyYpAEF7xQ0KV83HCY6Nj6PuWtLqzMWCnomiYdAZdtwRc/tbXaTwklkbMI40bMRR5pSujKJXEiWoZjb29Q9iqFqW19MggTuiRhShFkdYbNSFaRIiRUBTX1kkM7jNCNurPbhncAjnj51EY24WFOET8+aWNZoR9NFyYMcDnwsByfpqipKMkkktpFOO77tCKeUuoX+gDzvv3YVLyWVcql9EvdhA4vA+6+pB6dbEiSU9IgqBLeuqu2AS3MEzWBZtzjVGWaIyaaESV/De0vvRjR7p6uXvZVbZkvh8W77tHRVpxwRids4AiIIAn/v85zA2dk0A9MrlMczNzYgHJMWE/EIBjUYTrudK9X90dCf+0T/8h9K2zqiO1D2Hkbbhya9n+HMBKRHEp4qdY6MOC6empnCtESAS8X8jR6p9hHcJaCtPpuVsY6IVmeu2JUJSNs170ww98FAqF6R7tUl2ThTJ4stxk4IxgVN7dlo65fSg7PUK2D80jObMPC6eOgWfOhCEbeMBKlFti5FiDJg7eLRW7n/euWncjgzrI0kVsHkr9++/DxjM8FrtddScGkJPHXqcTJUHSfcjiPOQzjpputniaXdwG97Wl7BxRgIy2R1p81x32oV3+08LaOf1Fl3YjfzC23DFdw5oG/oIubmKgBm+8Y1v4JlnnhOBoSuXr2B6ZlJKjiKZHcfw/YI89e991d+8fAAAIABJREFU+r34/v/x+zE8NCJVX9ENEH1tbnP0Z5fReIc3QOhqFEwSMGbTiI2JsIkz0zNYthwksmJzJZYErebA7opDC73SKyhFRUN3ZIpB7kwq1EgZZ5MjVljN+Rq5grGGuvqTFggl753FKCLD/qER9Dkejr/4knSgctfKB00pdhsD7dwPkHlNrgCSu5RdVAJHNFSoLJjJDu3gkYM4557ByeAksgK7PamvzYhaliyNsvk72PCiojTexHYgjJKt4/YdAd51wQSRxVAv0x504ynvaXShW+oueUPNFmh3cB/5QLItulighgc3xBkmr0/iC1/8fdTrTWk/n5q8btxpKMdqwXd9/K0f/CC++/3fjYLPshWXUP0wETKSLbVuo41VZwdXYgwW+B6zgES2jdMLM7iyXMcS2+ndgqQCKFplc6u1rnbqji7hzV90Y8/JTd+zdqFau7yYxvO29+ZO9/mvWgRniT6Y73VTdjAqijLClv5CKdxwZ6J5XnFz4ha09SCsEPz0lQrU+re23zhWAi9NsLuvH7tLVZx+7SiC5SUxCM51uJWFwpby3PKtwwXTSiStYWUurJQajjqAeYpEBaxS7Nw9ir6dA3ih+Tyu+RP6uUzd2L7meYQ1kp+LxgkFAe3EDjRdsnXcxiOgoC3uVhlNnG30oQ9P+e9GNasKPVWLapoetcTg18SQbfxSNsHfSimpOyrSXtVvwW1omuELX/gCLl2+jKsTV3H16oTRAbHQ1dWNH//xf4BHHn5ECl2C0VI8XA1T+SPdaZQtM85E2lKwAlADcHF+BhPLdTSpfyJqf7lfpZE2/XYCd+6ink+o9sck/6Lmi0tUbP79xgywAqAua8qeUC6zZDBkYuvaR1VEgrOyLpinFnW+RHPR5MOLYYG8X7WwRbtFhJduNr1vvBva7JIKk6SnWMCD/cOYvnwF1y9fznmCmhunLnZKJ3fqSOji3tFhscOVvPEikHEPxSuLJa0h3c2phaJr4/Djh3EpmcLJ5Dga3uLKeiyiYgbo+YGmkUZog8YMeIun3dGdeNteRLNu5rMzhHL/i3EZO9NdeIf/KIoJpeZM95jYzXGxJjibLZ7IGaRiswfH1yBw1dTbPAHuOwi0Vyu6ScEAGS5dvIQvfvGLuHTpEmZmZkQ35MiRI/iRH/kRDA0NwfO8loziZllTKQ4oLYib4MCyMFZbwsWZWQFtEYcyzvCS924p123+fFyJT/XcArxvANprG0/aQVu/lTnycxCMTKSbz0IBwlxPRVZS1WyQ3YuYF+jORVJZfKnIARLUGcnmIq+qm91p7MlP0d0Q5QgyPDW6B0vXJ3Hl7NmWg01CE2Hbgp/a8BJG+Z2DtkXQ5tWkTMAwB01KdiTpEZuyuwkwunMIg/cM4aXgFK5hHJFL49+t4ztjBLhlciTKTuymsH9KURW70j14pPAQSllJAxPZrJvajQiFmefOptGJzubYdoTmm/dWaZDHB2Fz4u87BrTzibEWeJmP/uxnP4sXX3wR4+Pj+MAHPiAMkVKp1GpHz/Vv+fdmibywAEmAIrOBuifXG3WcmpxCk0a2JpqnXgY1pwkmuQ71Zk/wPH/cOu8ajaS1ceb6QFsnmy4M7SbJGp2TiqfytBxXE9Ma0NbPZS6bkbUCNMeekQm1z9XJR9MPnRx5Htx12fAS45Ftoyg0Grhw6pTIFGh6hKwdwBe+NB+wdYC23CHuA7gkaCu6ZuIBl4qNSYwDD96HsCvCi82jWHIWjChUJ1e/9ZrbfQRYC6HgFwE28eqU/UIhKWOntQcPug+gjKokPbi0E3rZTyBHvpEW7SHtOaAsszSHmaI8VY70p7sYtAUO2nIlFHRimuSJJ54Q0BZxcimImY67TRYt531Syp9ujWILmKrXcfz6JBps4jHARWccAjdBm1v3W3HIVMj5pWs+oL21u7XoGZDMsfKNI23ubhS4MkmTmFdTp0XofNxQpkASy9aQgMomKIFKRuJMixjONX9mgU/OQ/U8SY0kyDIVVnqzQxcnzb0QVre7RezvH8DZo0fRXF5u5bTZJeuldNVhg0vn7BHuiDgmZP5oXjz39VS9iWq1hF1HRnEeF3Ahvoym2zRqgG925Vv/fieMQA7anNOx2xARMD8pYbe1F4fdgwa0XdWKEr9YLX5z3nOB5/Ot0bUtapY5aCfccUtAcBeD9toJwEibeiB0M9m1a9cqN4lb5TCRd+aJ0S8sMT2YCRo4dn0Ky66NUMAqg5dkcEkhIgvhFoJ2DqY3RNVmsNrT6VIWbHvhGxcidcJpukWde3KdYbqks1zXX6miy/OAOJXmJ6H2pTGihLEKc3ypNMhEaSrjlLENmO4wkjZipN5pgoQKuA6iOIJvAd0p8Miu3bh65hxmr09qvtyMMwtIjITWA9qO6VhsijsN7xuDKFvU+1gwve/+Pci2QWh+M940Ujr9dsw3uhNg626/Rs5stqhTctfktKMy9tr34pB3P0ooCyBLLdI8P01JqZHsSfGDDEX4Eq3zGcj9JfkMaBiwNjza+HjfcemR9q+6Vo2PIE3RJ3WT0Sg7PzYzNdICbVIHuWVKMyzEIY5en8SCA0mREEAI2ATu3KZs47fpjd+pS8fNj7VCSmoy3NmVrEwz/Q4CY8aRnlycXYPbMFIsivmBFB/JCjGnziGNH0Vl6Xqc4srUNOaaDTFjjukByUh9HR6PEq1zMQTgRxEe2rETWFiWFEmeauHnEYClaUc2Qp19WWG7wELTZZWCOiJc3pgmccWd57EnH8AVdwLHmydR8+aZE9oy9u1sGt0Rr5L6FA1OEGtDXGqjEnbjXmcfDvr74We+NtJJFYuvTrEo4gUB5qNZBM0IO0rDGHAHZd4oaMteUtQBDat1U8bijgbtTRmBDZwkZ4qzUSSnEc5FgYD2vA00XU2HMG8r5DEmdDvDjnVfjUTBwjHn1izTVn9u1ST9oHFAroJH0wBVAJeEh9Gx1iYB9RJYKfaKlRfz84nYJ8IRKl8s9m30a9ze24++QhFLc3XUFiIByoQo6bJ7kKbHnNdqlusVXFR6K1iIE5y4NoElJ0VUoAhTKrSqjg7TeSr6M0kC9rPu7e7BaKkLR7/5ItI0luuNwlB0SyjwpEyAzg4q+vGpDF2mevjQsoDqibTJjp0jGN7dj5dqr+Oqfw2x19C6krTObR3fCSPAeUJ1SqlqSHrNQ6nehUP+Yewt7oSbuUisGAECJATrLMC1ZAbT0TQazRrKXjfuL92HIWdI1B41MKKcAdMmOcNkc0ZqC7Q3MI4tIDCgTZ2KWppIIXI6jlBnxMmwk1RDGi6IGNKtyY9I96HYnSk1T/JtOZuDLbemhVyaBHODXeMII/ZfzPdL48iKloK8RzEdMVz4jgU3ClGIEuzq6caOvn4UMgsTl6YwPjaDepOSAWXUGyE8z5auVMn1EfyQoVBwcd/hPSgNFHFmbgZjwRKW7AguPHhxh8CXi1HJ9jSFk6TYWe3Cgd4BnD92AvMLswLaNLuQJgnRO+/cMUi7KJkHj43MqoOUYl+ug8MP348Fex5HoxOY9+dl+8yE5q1l425gYm69ZcMjIGVxh41wMbyMlNEC/HoFB4uHsas4KjtZAvY8FjAdTqIeLWEeS4gc1jYylK1uHHIPYNQehUspM3nuhC+lpuOyBdzw5a164xZov4VxZKRIoGAEywabE2yljyJERR/1LBFfRDb5ELSliHYLDklbGLMHRpcEbW7qBYLaOOl5E0iuFa56HoaF1MaqERswpjrYMcpI2fVghzEqsHDv4AgGfRd+nOLimSlcm5hCnLmw/RIWGyGq3d2Imk0BPaXoKcAii9E32IP9j2zDbBbj+PQEFqwAVubBWQdo01CXsz+XDxhyPTw0tA1LkzM4f/6MtLJ79Plri687jbRzJQnm2IVTbjtM02Noez927duOE9FJXMEElrAIVxqFFOS3ju+cEeDuMI1DqWe4zFCHVdxXPIAhdwBhFuJyMIax4Cos5ueyGIkXI+UfJPCiEh50jmCfQ4cbgjYf+hy0zZZvC7Tf/skiuiMmmmNMObWwhNlaEwthKEL/se8gkBzZ5hUh1n5rNYzVKJmrO/NnNC9mm7i2gOs7cl1n8VPhawWUNRKXZhmyPUwkzpqALEhMQ2QZeotl7BoYQBkO6nMNjJ2dQW2hLrCc2S6/oTBFxF9T3Np55E3ovJYYrpdieNcAdu7vxUSjjvPT44hsVuPdzm6kdK+qLKboy1gpuhPgkZHt8IMYr772KmJpcxe1HyN00DmoamcsUGRhOVVpArqy7zu4G1ZvipeDVzFjz3LfDCfR1NMtWoc7G4+tV236CHA3TMtAR0w8XCDyMOxugxNaqEc1LFJnpkguv+rEi1SvG4lkQSEq4yH7Idzn3Cu66pJXsxOhCNLRSLopt0B70+/ZOk+oXX1qKmW0mI07+0IQ4cr8IuZjFt2AiLnmWxWVSasgJ1Em7vHU/JXmWslfG9EjXqcU/CxkLrf96iIvmE4OeV4MZJQu2iyZKNt1uz7u66pgqFyFazu4eHEBY5dnkMbsgFQhLvKXJTKlvZhQHblAsCuU4G0abZgqSQIUyg72H9mGymARF6ancbVeQ10odh0ceU5buN5ar69GGd6xbQdKSYqXX31VGCtF042aGMncTpPaTK3zO3fBFZYLVRt7enqw98AormQXcTw7jbpXg2e7cEMHpHJttaV3cN/umJeoKLv2ioWIKUWQ2vCTIsrwEKcRAjcCGSNOYqFil0QuOHYiYRL5URlHrMM44NwPj0VLETGLpAjvUpg4b4HfhPHYSo9sZBBNvpdQrGQf5SCHzQzNRohSd1FcWRbTFOOz01gMAwSpmjFQY5vvkKjRfLbmoU3TlNFy1ihOI0VTKmwL7fJ3krOcwE0iEbzqKpYx0NOPbjrSm3NrMZLa1PoLSqAu1utYrtcQZSki0ayOzEetVLorxRJ29g9ilLrkywmOnbiEhaUAsEqIRehfI2RG1sJDzRKJPoS1w0VBQJs/OcLEkDabpInBkQoOPDAsNYCTU5OYpdmvUQFUsl2el8+9H3UnIN+Di4qxGOOSWYlTPLptVED71VdeQ5ol8EToKUPMvLcRtV99i2+WMCEAZ6K5XoEvaZHYBnbuHEHvnh68svQKrvnTgJ8hJuUwdfnF1eXmNjiUnaTc8nwuyU5A7oWZWOY6ZY1vidYqy0lnWi5VkKeX8kBkxeF09b5lJQmlvzcOTUYB7zYYlnVegs5VZuDiLBT9GOXrO7BjGrCQjUQnIkty3mT7ZXQ04uusDE5UwEH7fhxyD8FLC8pmshMxIGftZgu013k7bsnLDaWHFCGFAQ/LSwm+8cIJDAwMoHegguHt3bIlWooDzDUamKvXsRSHCFjgE40So1dBkSnmj4WcTzceOnxzzpCCRGqcJq5zbWo683D7xZR1MQ4xUnTRV+lGT7kqaLO0WEMWp+LSI+YCdH/xHEmB+J6K5vH8dDacb9bRjAJEWYxGvY44iNBb7cFgT58YFUyP13FtfBnzC4uiFcKJLddjWnL1gV0RdcrV8nRM+P/0THRV6dBiS3iEfff1YduuXowv13FuZhaRQ9aGhUC0RdjxmBoaoSZaWOjNzXpNy5Tkygtxgoe27xTQPvrSq63EiFD9uBtN8r1GrhejUMYBUD0a0zEpKSJR5YaTFbQj0s/wwKP7MG5fx+nkEmppDaAmVBKpfM1NXOBvyTx7k5PKYsbvwu8rrAfDI5YdjzaAcPzMhswAu0kf0ZSadnwcB3ptsidNLNdEe0AEkShFwLHJVRvz0q6m5czSQBCjn6YYGOtY3pmHUkp15ubWhEaVsvXblZ9ZQxG6fpTAtYvYY4/ikPsAilmP3Af+OxUgGUi0xKY2YWC2Iu2NDqIBbfIrNBZxUa8Dzz93QlIHVLtjz8k9945iZFtVHp5mmok/4uTiHJaiBpppjMx1AdvTB8Q4YzDlIBkOOu4wgiVZnznWNEWJ6Yt6AyXHRsUvYNfgMLodVyLexfkA589MIGxEzFYI/U9iILaZG9Emxvmua6F/eBDDO/vhl7Q1V7jnpg23yAc5tXD+9ASmJuqgARA/n1GupPIEsPK4y/zdCtn4mbKnMCNLBGVULj7tgBUgRR3vfvoBxD5w4tp1zAZ1xAUXTTktJzgfBlEAUU0Ts8iIHZRRMaE8QCGO8eD2XQLalGmVfHpGxxgFbdp/aV5fqYz5Fbf4/UZ1UJYdApbk8rkVzjC8vRe77u3Ha82TuGRNStQkno9ppK/dpJbkjU6/9vdJzUQW0nYDBwUeGa88ApdMmrl31NiwWCwX7hFsuKrMGBOAuFNK1cjD7GzULk2DitxZPgdtlTjQQRfY67QRYDO+/Nt0DnmyHAYGgBUxEvew096OB9yHUAJBW5e3yE7gZSoatllTZgu0N3zTc3DSuyERcQr80Zdfgu93I2WDB6PpNITr2SI2NDRSQrFSEEeW6doSFoI6FoImajGdTjzxu4yTDJ7lmQIh0Ut9EO00hpumoNZYf6GI4e4e9BfKNCPH0mKIsSuLmJ+el4dPuNqUJxVTYyNBK4JOjJhiOIyGGAVkEZyCg96BXgwOdcGzM5TKZWRxhvNnr2NuZoEmYRJZ50AtxUrx2cwHbg1oCwKqerZGLdq6blv04uQ1NAW4e/qL2P/ALinYnpu6hoUkQlLwESQs6Yr5lwKE6cRUFxzdbfBb0RBBQJvpkVRB2zOencLPNtFle7VQm60MzVFXH6VKMirNc/6Zj2K1jH0HRmEVanip8TqmSpR/TWVBMEkHDaNug4PXTlVDgnFkZ4hoUJ9jOAvT/GNuRb5o2Y4PmjqwTJY5HGsXXuLDD11U7AKSKETDaaJZjBAggpf6LWMJAR9jDCEiAaLvYnZbudTAbTAu345L4ByTTloRt3SwLRvCI4XHUEavgjZ1/S1SCE0j1iZNmS3Q3tDdbY8ktSmDz3ySAL/z2/8V27btgW0V4XkVAVWCVJYF8H0H/QNlDI30oauvhMTNsNhsYrrRxFR9GQ2+2PWQGFdohrWiakePxSxDX7mM4WoXevwSihYwO7mIq1cXML8IRCFZFaYlkTxTNpiwOGkeMHm0TMQloM1uLT645FLTFd3KJI3ie2wMsFCvN+CSGSKa4atBe3WkbR7YdoZMC7TzaJvbbNPMKznACGkWYt/9I9i2qx8T9SVcmJlCwOYYNQHVLIYZV81pE1yZamGAwwYIakPEeGD7dgPaL0unJL8PE7tqqGsAJY8A83Zi0YxRtozreiiXKqhUqigWy+J45JULUjSdSy7h9eYJTFeWtb1ZlH15HWbvu6G5s7lv4nhQIIuLdOhk8of5eQkECdiGBqppC5UikIiYNRXxrrRRSHxU0jK2F7ah1+nFbDSLscYl1MqLiNkhGhO0TbTYyn+bMZYAQNNMEuzLwto5a2dzR+PbezaOsjz9Ato2+sM+vKPyOLroJ6lygALaQg3YKkR+e2/OjZ+WR5J8+LXkZ7Kl+PCHPon+vm04eOAx1Jcz2E4JboHaG3VhHkjbdpagUinigUd2Q9hBLtDIMlxfWMDVuWnUye2mTVqcwU8zDJS6MNTdi26PaRAgasQ4dWwCS4t1WE5BCoNxFKPoF5HEiYJ3/uAIoUP1QwReKWgTqU0am16YQ46M+wsNbB3PRPlsz48jeD7lmVIkwt9mlG3DIVXPyFC2xsY0pyglheOTj5FO6HwnwvdHcYBC0YFfCHH4kX3IChbOTk1hPmb7Aq/VCH0Z4M7HV1ISJtJ2yFZJEhzZsQuFNMWxl15k9ly45TRF0FSBaRxintd24UiKx0Ol0oW+vn709fWh4LvaDcqMlLQpZ6hHgFdKcS06hePBScxWlk2ETUAiQL7d82/l86XaIZG2Fk9Vb4VfnwubKeYat3r+O3cufmTBcV1ElARoFrDL24l7vb2oogryHZawhPPJaUwFE0i9FBThatc9bxcbU7BWJo2kRVY5B90+43SrrkQSdsYTrzuo4p3Vd6EHAwrazDYhFhs6FTvbnKvYirQ3NI45IKn4v4CKYTh87KO/jInxKTz5zu/B8NA+pImPyGYeVI1ClYqnhcQsi9A7UMXQ9gp6+srwii4CO8OlhTnUgyZ8y8ZwpQcDpRK8LMP8dAOT12uYnFxEKq7fnrFhMCJQ4qBC0ZsVZx5JSRhLLy2zcN2X7gAmvU2ruWVMDQwjQMBOHeqTNBKwyy2/vjVeKYNGZyZDD6NPzc+WyE53JHmnJdvOPSdA70AB9z90D2aDACcuj8Mukb2haQhyz9lYyoKqI/KvBGUuSnS8oYsNsHdku+i7nD99Sp1wmPJwXUnhkHLo+z4KhQLKZUbTFXiuK6KEQRCJ0BjNeuu1FPVaA/XlJpYbDfSOdGP/4R2Yzy7itfAoZspLKtXKKJKBfJ4dv01yt5K5lpurBUPtqeL15gwPRtjGQciyUYgduJGDLq8HO/xR9GMQfuIjaAZoJk2UqkXUrAVcrJ/Dkr2MphchFmcf4aiYhVOLazqnNNomu4LgJPntu+CQ4qxxvuK8rjTKeKLrSQxiSNretaN4C7Rvk6mQ52tXxC1yatWHPvyLuHBhDD3VEfzV7/1BZBTVd3yJVBgBS5ehFPK0ZdbR8jPKJRdDQz0Y3D4Au0rlQAV5kofmZ+oYv3gVzQbTFhFst4TM8hGllEjlmUONovOQNM9YmNFSfx09tLwnFqYt+ci8Yp6/JqeQtfK3K2d/g/HPQdtU4FspkvwtefHSJFy5tbRCxPEi7j20ByN7ejFfawqrJi9iins7XdxZhOXDIVxt2o4Z41UAJccVRb+wGarOMcGdgM3o07bk5zAElpZCLCwsYnm5jiS2EEUJwiCSlJYMl2yVdLEq9Lh48DHm2yfwYvAy5hhpi6sNI1qyJHJ63O0Rckt0zfQWAdukQySp5Tiiec5NvG+5sBKmQyyUrRJ2ejsw4gzDzwpYbjbQyCIEYSg52oLnorurC/PpIs4uncViiWmSSABIFRKEyCnnY4t2bjOXN3rdDekRZdNwsWJpn01lDorNEh4pP4ad2KENNiIYlYi0b14o3gwA24q0NzSKeTLEaAoYkEyzGJ/4xC/j6NET4oAyuuNevPc93wukPcgyX/PL4h+oNKoki6VST6SgPjUjJf7d31/BPfuoFgacPnMdS8s1KWwmLG7yYREqllLv+La8B7EF3Hkjdyu1mF+voYHlnF4D9O0BY7si4UrBu9Mc5Qog59S/1cNrgNvkv112jIUNdPVWsGf/NhS72ARk2HT5hpyDkMsqisGu/ruRMhZ8DxoZGvUQSZyi2dQIOggj2bYGQYBmEEojkOO4qkliIn/mdaUeIUJZ2m1Jpk7mR3jsyT0I3Rm8EryMyeKcMlAYWTI90ma/tqHps8lvEr44dcYlR82vzXQF2fNc7Dy4iQsvtFDJPPR7PRgt3INSVkSSRVhuLKHRDGnagkTy4ZTYTdHv9WGotA1jjTGcTI8hKDQRuzEihFom5lxMPVBoS0KQfG53tMBv8gC8DafLKZRcMEV72/LgBwXRKtkPtrIzUNNODiqyy0LW6WP0Jt9nC7Q37YYLYxYf/siHcf78RaQx86clPPTAX8GBe98Fx67IQ8KwUABbcreZRJEEZIIB08SMLP0sRppE2r1oW9IEw4eQOQyBjJgyNIyyTUFtlQ7GCkCv+mqytVVHdGVW3Kjwm8eN7WdQ8an2o9PoskWwa3FfTUxr0iQE+ETVAIVGpk0KfPhlIExrjgC0GBRY4hCk1uuatVUKIg1WXcm5M28t3cNGowQUfzJeokyXyPImKRQ1Z9BUjWV2PhYS8m09DzFqePTJ3XAqy3g1eAUTrlL+8lSYLnK56eimTaANn0iNaNnctFJgFJ515sGOmQ7xMeB2YcTrx4DTB8Qu6mETS016XCrgM4pOXY6xBc/24TU9bCuNwCs4OBkex7XwGqJCiMChQTE7ZslM8YQLLwsf57Sdy5ZuEjpteERu/Rs5B9yMhfNUuNjy3AYl3FfcjwdxUBpqNDml5cot0L7192Qdn9AOdcCHPvSLOH/+EhzbQxynKJe68a4n/zq2jewVgBE+g+E5k2ZGOhwhyvdLWuyLYxSyWHLgwtM2PpSqJa0Kdvq3uplLgUgA6Y2BdSWaVvNdAzutN630vbWDsmn+aWcDrMrjrgXw9p/biqHCBV59XmWkqDJhEsciUMXXJHEoOWm9PjWR1LQPmz5saRbS7Xe+CJEFo69lgZSvZ2TDBSFzaMzLoqs+Ppqb18hQakdt7fu8J2lMbr2HBHUcengUPUMhXm++isv2mHFYz1PynS5c65hGb+GlahRPQwlbU0Pk1ScOnNhFn9eLEX8YQ3Y/fHhoBg0s1+rSN0CQTUlAtfgGzk3u4HxYqQs/cyh7hP7eXjQoltS4hJlkGnW/jsRXVo5FHrwU4leD9t2RHmFqyBI519hRf8hiXMEe+x485hwW0agctPMx2oq038Ik37y35iupRn6Ei49+5GM4e+6cRCIseoVRgt7hPXjssacw2DsMO+NDkbeB25LqoNOLMB4IPC6Fl5oa/Qm+E8Co8cFIUoFN+CBkSVD4UbjYq4+1cU7+80rOW3/D4lR+rIXUlTOuMZ3kP7SA+81AO4/SVaZypeEmz2+zmSyF7zDrZyEKA3iebwqnGmtrpG/KXeJ4zUKkppLIm5aivOSwje1Cmkl+kT+K044o8ikbJb9LXCxzU4y85abF4SYI2QF239uL0b0+jjdewwXnMlIrFGbGqnHZvIm07jPlV2LK4DJmNvPWqS3KiV12BQNWD0a8YVSzqqTWlut11JshkgIbhSJYBGvjX2ilHviHuWppsmJXrh3Ct31sK42iZtVxvnYOs/YMQj9EzPtpdojaCMbdoCmE3gWUPy5MCtopIke9YN2oiOFgGE93vROepEc09NgC7XVP71v5hhvh8iMf/gjOnT9veNtUt/PQjBLs23cI73jk3Sj5/UDqC89POvMkINVGDwUOTZ/ow6j8b6FRyQtNay2jR/Pfyrd947b5grZWAAAgAElEQVThVSAul2y658xnbHyE3gS0V3oQ20iR+aetaF1LvC1pDsNGIDZrr7i+OI+sGUAzolzVaqyLirbh5CkfZZmAkbc+N8ZRfiUzY35tgDyvCtii4OcgRqkrxcNPbceJ+lFcsM4h8puSQiAw2ilFt9pNg1dSQcpV1jEmFY8lO10gNerv6DA5f6ZkhLHCz3NES1F3V+TPm7qIT4NSmUcO/LiIQlhEn9uPkcIQeuwuMYeoBTVhI8lUorGFoWSq1RuBVqmr/BxhNkkBLULixNJVyvP1lfoxlUzhXHAOi/48AoeAb8u/C+efWtQMIu4Syp98TwPaqZOIvjv3JoXFLvz1vg+gIOwR7l54uG/gLdXRjFj1oq2c9vrH7A3f8dGPfhQnTpyQpg3dsjISZOddAYcPPo7Dh54EsqJQ9siCU50G08CS9yHnzuabfG130+nyPZDsf4wdWv79JSdroF+XBhW4YoLdTxy4CUWslvH4B+7Fxfgszscn0Swto5myCEcBIdYajLqi/KU7Ci0wmwVEqG9kmijDiAJEHWtyGM57asdybqYrEoeaJzTUsJHaLmrioBJjMCvDInDHDrrTHuwq7cE2Z5vsURZr82jGDTSzJggsJPlLV+w69N0JTj5c9JR6UfTKuBKP4VzzLIJigNjWdJ0W3FKVo5Ho+27IaVNWwkbisgwcUsdPmFnVYBDfU/oelMQJiTsak9PeRNjeAu1NRDJO3o9/7OM4c+ZMqxFFC2XMOVooFfrx5JPfg6HB3bAd5rzanVVMVjnXkNjE67obT7UWtIWiZYL23O3H7Dnk9+IMSZ47i8GsKfgBHn3ffsw7kzi69CKW/AXEXrzC3mHhT/SXtbFFEzgKznxQtSNTP0GZBusAMikS09XbfIbMCXUB4pEwhcFGocxCpeGglJXQVxwUf8IKKsiiDLVgGUHEoiHTFizy6kattfXocFLk48aouq/aj6JdxJnGBVxLJ9AoLCJy2crN/Lml7uTcIa3D97PDy7jtXpbvKDi+sRXB44oV2pg5togfe+wfoETKH0Fbds1s+1rH/X+Tb7sF2ps4HfiYfuXPvoLPfvazphFE89CinJaQ1leEX+jG+973V9HbOwxIsSLncOaxX/5Ybd5N3sSveEedKs9hrwCPqQgYi7YV0NYWb9HgZm6S3HmniYOP3QN0BTg2/zJqhSU0fSpxhPJarWCsBm2NtpUBI9H8ShFBIuROI9DcNEMWF+HhExi1gcoibZHRd+igmpYw6DJvvQ1VuxtJmqDerCEImgLWpKKxwCjrRWKuVfTGlXLayaE4r4GHjyIGSyPSSHOmcRoT9jgCt6GGAWSRtNJ9HaaBOrmA2/Q12kSk2zimhriD6Qq78Kmf/nV8/kNfMEbATBixuYZpui3K3216K8lGS/Ebv/Eb+MYL32ixE1RVzkEcs3W8goHBUbznPR+Aa3cho96nVOD5YOSEZMle3rbf8U65sBtBWzVWVkZZqgYmStY0lUP6W1ID3Aj7D+9C/0gXzsyfxEw6jQaZEyWxdRW3khyTJcWyBqck2s7T8dJq3nmslefEk1yvGTEKsUk7eD6iJMMgBjDq7kA/elBEEc1mgOX6suSiKXUeWaFYZLETidRQJ/Uk/ywNROtI1eQlEGF9py5KXhXbSkOYTedxKjiN2XQSMQubLCaz0SbnsN8pk2SD16mdp7qr4HpFXfrKbAn//G/+BC48dxGu9GVwnY1k3FQ7d4MftuZtW5H25oyjxiPCYAAmJyfxW7/1Wzh37pwBbkvEmJjj1pbjIg4efAwPP/AUMur2rQJtlcrcAu23fmNWg7amojQ1oskTBWyNZH3XQle1AL+YolIpYXhbH1yf3ZUZAquOWlbDVDiJmXgWS/YSmja7N1lc1C1wHrmqfKw2GeV/68Or9lSdHPnLEssH89oWQpQjzZnGLuVjgUPeQezBHjSjOoJ6E0kUSXSfOIm4hlN2VfVA+FWZf3VEA0OKtuuItHU3YsriRu+9UupGj9+D2XgGZ+pnMFecR+wzleOo2P8NfKZOvvWd9RpZqFUeUnoomDi7+ueX8Yl/+ku4fOyy6OvrMxzL2G+B9m16f4VWZuhkExMT+NCHPiQRkKriMdqGqObZdgm21YXv+xs/hGKhV4qUotPMvKVxIdkC7bd+k1uMklY+mRocGgtKWzpjbtqqVco4tH8QpaIPr2gs2sIMi3MLYgzRP9AHr6+AyA7RQANL6RLmswVcDybRRA1NuyG2U9wqS/OOTTVC7bAUyKMGOqWoOgVtybOw067QAu0SNVctG02k8JwC7sv24YCzHwtLi6iFi4ht/XziMtMkghet9LIuJPkilutsdzrCRklb/TllkfMwUBkUJclTyWlcTi9J6simBZ2II3WWeun082/H18mCL12yjLF8xLGFr/zqH+Prv/anOHn8JO+S4TMlCtp8XYd2qG/2fbci7TcboXX+Ox8YAekMOHXqFH7t1z6FpaUlYZAwEne9AqLIxoEDj+HBB98F16kaNximR3KRpa1Ie53DftOX56CdFwPVfivXDYnhIEHRc/DYQ/tQLGRI6ynm55ZQqy0iZRt8xFyydqHSB7A63IWubT3ICsrNbVhNLGMBE80xLKTzCKVbMBXBKy7Ork8zODb/iIvEOiLQPJOs0gcWIhRjMlxUyY9SBqPRDjxSfAhhM8BMcxKB1zBjwHlG/BaLZxXxkt0FJRSUppibSaxnjAnY9AklAJWcErqq3VjGMk42TmHWmUHs59osK9ox6zn/nfZagjbplBxjxy6gMZ/iP/6r38aFPz2NE6dOSKOS9Bmwr8AogW6p/N2md1l0H6jk5ziigfEnf/In+NKXviSqcmLVBQ87duzD448/jVKpH1lKvraq7DFvKJQsUQ7bymm/1VucR5YacuZ+iconJn3OtWIcvH8ntg1XsHBtEYvX56Q7k1xoNvuQFcHOQpEOMB6BIQJ4lQJKPVWUuyuwuyGAWbdqmAqm0MjqWEINS8kymlYDWTETIwGR5+z4nuZtGVrA4o6A+uEsLGbsCE1tdNW78Vj1EVTSEq7Vx9H0apr+MR2hTqJ88lwPlDn42HSIqpRrZ/Mrl14VhmPioYgKhqr9aLpNnIhPYiqcAC0R6UEqvQQS3d8NkbZJj4hmuY/Z00v45D//JNIrAV4/8ZopQhunpZYu8lud0fr+rUh7c8ZRc9q5A7jsbvXBI3D/7u9+Bn/5l8/Dtcuw7Qre/11/Az09Q2a/pN6NIkikXSLaaLOJ13W3nsokJ9oU1gTWQKUN5om3D3Xh0P4dssW9cuISvRkE9Swq5Yk2m2mZp9EvWSWe2+JhU0VQ3GxKCYqDPqpDVbhlB4EVCS96LpvDheg8ZrIZpAXVme6UPaL3S6gJ2j0rbZ/MWccCBoROt+Fhj78HB9y9mK5PYTlbUod42bZTQpaFQb5XgYOAz/czchfud4egnXcmsXnHDlwMlYbhFYs4l5zGpeAcgpIuSFlErqSEHXfFdMs7UfncupGHM18+h0/99G+g2Cji+InXkYJyzGrcIXIVrEO2dSC/lUHaAu23Mnpr3psXInOzAJFhtW00GnV88pP/AZcuXMe7n/prGBm5B1nmCcVMImzTDSn58FXdipt4cXfhqW4O2mz9T+A5CZ54bD8KboaLx88ia6awYxee7Un/mpKO1aLNpvO6iJVwbVUDW94zFvyCLIDlWiJD4JUKGNw+jKSUolFtYNqaxOnmCdTIOlk3mOmyTSU95opjJ0DihCIM5aIIJymgJ6jiHZUHkQQp5puLCMlq8egYrpotZC2olCxz+VosVZPezmN+uQZxC/JRKXShXKjgejaJM8unERUbCEVIS+ybVctEBLk2iSZxG89ZqVJJu3+GSlzGF//N7+Or//lZ2EEBZ04fg2XzXnGsC2K8LBIVHe+03viLb4H2hifGyuY7P4XogYi7ixHsFxBm1G3hyuVxvPD8SfT27ILjlJEyzyX5Ve2a1NdJ83PHBasNX/od+8a1W/o32Y+0GmpWGt9JvfC9FEcO7sRgn4+58RnMTV6Hm/rixM7EcW5iq5xr6sJofC4Sm7HK4yZWIF3yWUJet4804vtcheaqhYGDvWh2N3EmOI2x+ArqhYYAZ56WyDsnZY1u5wa2XM7199x6E7QDj9zrUB58mji4VgGFpo9HSofQlw1iaWkZy+ky0gL78yJVLzSsEWF0mE5NOanptc9pi8o5ZvqoFT8aeFFNd0bsZbcL3dVuTKXTONU8KekRdXknhTCVlncW0x1q5WzYBMHc37W31ShUtuyXDJXyhpeZHcrK3c7nS9u8MXNi5RFYfZb2DcjNz5+/UwMsAnM1rODn/9bPYfbcsvRivPjNb6BSIQZw8VTQ5g5ks5rZt0B7QwCWt563ubFIskkr9xSsk9w0ixFy521cvRrgzOlLCAOgWOxGsxlK3rsljKFKI61pt6HL+o5+0xqThVxQxND3WjolMgYELAmChLURkSXikXKZwbdT7B3txT17+hAs1TF5ZhweSkiiXPukzbXdNMtoY7pml/PGFzrztDwo+TimrhQtidqpGyOtpNjxyE4sO4s4tnQSF8uXJCovWUV9jZMiSAJYHvU7SMfTAp6mMBglK01MnWIsAUXSCzlHKOqE2IIXexhOB3CocghhI8JCfV6KpEFKpUTdLeSde8q3VsB2kyIit4nIW5ZmIj/2JXJnCgg+zaVZPKMqoqoFlmlV292HJXsRp6PTmLPmZGEQOS/jhcgFQAx/c9pKh3MxB8bWqN+wC8hfYeTDqCPP50wszvIGply+V+tCNjtaBSYdkDaZz428yYrmBeZxbVE/NSGlaQwKqemiqs1S+aHvz39WiV838jF/bBG/8Pf+DbwlG4ViBV957i/Q3VWBxx0HdfBlWhC0NyfW3gLtDifX6pfl7RmGf2n+MZECJA1+Sd9TwKZc6MxciNOnJrG83IDvlYQG6HtFdQBfURhao4K3oQv7Dn4Tn6J82y2Pk1EO1MdtBbS16EgNbhoiC1/ZtRFSETCLMdxXwUMHd8BJYkydHUPSSJBFrnhHattNp4fyrrWPVdUICWBUfiOAhU4Iu8fGyIEdWPSX8UL8AhbSRTiWgyiNYPsW6IfOa2fTCyNapi4EtGVx0Hx0fkjKgw4HJuXGtnEK7RfjIh4qPYhiWsD0wpRojPC8lqP67PlCsxLME7R9SbVEbl0YS27MRYdCrA7XAlmM+Mn0OfRRQG+pD5mf4Wx4BtfSq2h6gYAmry83QVAf0tyLtLMiZw6UZpld0StfdQvMvc6XzZbOi0oF5O1RJrFoQFhBW4qwuXRs2wxZzSNvA+W2oIlr0cqYqddmK26Xx1bnX6nZjc99/At45re/iu60ggceOILf/E+fEYs8XTC5EzHSwFvpkU4frlvxurzYYu5sa1dnxOjzlo3MQrMR4+ixcSwvJ0hi5fDqZDJE2jwCksvMz9v5pL8V3+72PGceaefth+0Frxy08xuhrGTKZUYEuYKHMGmi6KV4x8N70V1wMXFqAvFyIMVGebBI1bxBl/xbj0QereUPt0adFqjLJKYCdOUpxqiMdKGys4oJ6xrONs9IY07kx4iySAqgruSc8/b3FSd1phgUcHWOSeRHZ5kkEk1xppKZf3cCG0f8B8Q6bHLpOoJUW9ipTaJa5Cb1kXdnCrdYvO3ly7FBiN6OBDcvLch233YzZEksC0JXqQdesYCJcAJXmpdRK9YRWAHgqcO4KBnK8KvGSd5Q1Pkcart3a4ujmjdqUSXz6JfnptO8mGNIFyZVF/nH6J8Ys2HS7ci6yY/29+cfpTRQfQXVC9oLtO2vv7HrVamj7mIRP/P3fhbB2Tr80MUv/MK/xff/7R+QVCcXco6HquhTxmJzcv1bkXbns+tNXskbQ8qe6F9qxT4BTp28huuTS2I3pq7kSstiBN4S4W9twbZA+w1gshWJaUfDzY7VoC2FIAIxywdo4jDpfSMFLEwsYn5sQfLTvk03+pqYH1DTo9ODYk28mQQ8kzIWAKNwUBSEcAoO6lkTKAHb9m2HPeCIrOn59AIWvAWkrlosuyGvWYuHomHRRubNTXKlUUfMc1kYTST1Ibl0y4Ed2dib3YMDxQOYC2exHCwhypiHV7C+EbSZxgjhxdR1LwjfPHDJTEkl4iYYuqJPlaHP70VXqRfj8XVcqF9A4Adoek1E4ghkuOAG8SgjqzlyBfJ1H2vGXk+b76jUpJinpbOO7E5Ej8Xw6Dk+lDpmckSAW9Mc3MsQuG882oOi9nz3jQXatf1Q7esKF63pY1P42D/9KApLJVTcCp5/7jnYngYY6pCUf4+VztJ1j82aN2yB9kZHsH1HLhGyNkfLg28elitXFnD2zDVhiljinG4E0Iw+dq4Dt9LevAXab3w79IF9Q2CXZ0Sre6129TTE9u1dOHT/MLJGhKtnrwJNskRcJFEAv5CJLgzEcKKzQ4FJi3DMNfOqpMgYp/Bd6oNEsD0bjbQJt+hi5N5RxH0Rjgav45J1BZETyn7bFUxRAwHKw4qAmOCIsjykw1DMc7X9XOzYmKzXyQYv87FteQSP9j6C5XgZc40Z0IJXRK2+BWjbVgQroWFCAdQ3iVxG2zFcK4MX2XDoJ1mqoFqqoo4GTjbPYNmqSddnYIWwaNQRJ1J0zF2EFLTza+4UtHODjdU7yxZgrzHb0HSFCXyk6UgLu0xJiXcnU0xyT3JN+kw9M80tXZk9bbtck4Nvz1/nuWsuFHpl+vpWzC/Ty4KX+vjaf/wqPv/v/jO8ehHve/f78eu//qlWakauhSnS1vfYnB30Fmh39oyuflV+91p7Js1N5k2+fMLGxxZx/twUkpgGvCyPmKhHTAvWLp05WG+B9kZux+r35AwI3ZYy2iq6MR5/dC9KJRfXTo0hWAhRtKuIg1iKbVHSgOt7wvLp7FDFPHmQTYQp0T8fZHKWyfO2HQRRCIeFvSxCsVrEwKEhzJUWcCY+i/FoDIkbiORqrlsidl/GxZukcdXSXsltq3muKscxRZIl3P57GF4YwhODj2M5WsZMY1qoiOzAvHlOmxKvWjBkaQyZZ5QJqdcdoxB58qevbxANl+yXs5jFnLTwM1fOKD9OYm3VZ3rE5OJl4RKEZLqkQ9DO9VnaluKVCDtPg7UXAjnuLESqAbHk0A2k8jp0Z0KeOp8j1ULhrnf1bW1v4l8B7xzsdbE06j9toJ3Dt9QwyMxh/WLJwe997DN46Q+/KVS/n/wX/xI//vf/vuxUuL2Toqb8l9IDydvejGMLtDcyiga0ZcJIkYGgzTulJr215QRHj45heTGE55WFtSATZ9XsyQGi3SD2jaLIjVzod9p72senfVubR1NaM2B+mqAZZzF8N8LDh3ajr8/F7MUpLE8tCb1vpZU734KvR+YoL4oyqmPhUJkTObNEqHaS0tDYjuBCzeWu7b2o7unBtDWDE81jWPBn0HSWtagluW0PEel8vo00o5bHTUBbjKHF4FJurp952BmM4oHyA1gIF7DQnFNnGnE6ulkhUuzaRf1PuCgEHzFOTuHZFvzQw2B1CGnBwan4NK4kY8oPb6MiKjtHHdn1YOrGLD4C2B2C0xrQbgdsSW217OJWyj0MfUQ5l1+OAmwWGSJq+iysG4t1hRhuSuVBFw1ZW/k9E7hiok3WixJphJrLwnGq9nOpky9nKgsueUyjJ+S4ruzGHHqI8vMTF/FYjH//L/8d5k/OoLvYj49+/ON4+r3v1msTSq+auUkmW/i8nQYFb/zcboH2RnCtvQ4pLbu8IXzQLMQRcOzoBGZmanDtEuJEO9Te8GgVXDZyMXfTe24O2nzoXMcxEaAxC2ZBzc5w7z192Lu7F7XpJSyMzSFtGOPfdscg0TtWcO3s0DSGXI2x7tL35pRAbcBR0NTzJm6MOM0wtGsExZ0lXEku41jwOurFRcROgkyiVhUZEmd1MYsluGi6LQc0ZZEY+7SUW3QX+637cJ93H67VrqKZNNS/Udx+bwTtle9ookxJM9D8wUIh8tFd6Ea10o3zyWWciy9hyVs031E52Zo6UMBegSBj+iB9B+2phzcZzXbQzk0j2il2mu7XLlXKy8ozFit/3XLEGs6KHRStEip2Fypel9Aqm1EDS/VFoMtBjUVTSS2JCowwiBxb7KRVAItpJFkdOO4qyiVzQXLhqcqvcr/GXY3jyR6FBtzFrIKpb07jIz/xi3AXbNy/7yB+5ZOfwK57dqohgmE6aW4935p3uJi9ybBtgXZnT+kN6ZHcz5EKbqT6ydpPkaiTU7h6dR6uW0QYEjjyPOkbRdFbEfb6bkN7xKJkrySN5eFzHBojx/A8C9WKhwcPb4dnZ7h2chxpLYVFehtTB3YkhWOJuDNyeQk8nVP+yFbQQ7fiK3G60fswfGMF7UT0renQzS17/55+WDuA89Y5nG6eQliIVNskSjTtQcCQaFpWBY1lJdJVXQ/5npmClp/6OOIdwTZnBFfmLrcof9oscCNoS06c9ncJz0EhrEjMkt3URTd60NPVh1lrHscbJ7DgLyNAU7Su1J1HI9MWw2LVZseU3NYTTbZxsltOP3JOslf47Kjui83EcP6IcKeRUWfQl7b6HnRjX3kvutGNglVAjBTNLEKYpqjZS5hKr2OxMY8oDeAUbIRpgIyhOhkydoYwiaTblakLaaqSqrLufmVHw8/jTtl8f6V3WvCDAv7817+OP/wPv4+urIr3PPkefOL//hUpiwiTyMjg5mG9LmdboL2+53xTX20mUe7wbduIogxXrizi4oUpyUtyYqkEaP7YfasbdrPocQvEv/XtunGLqQJdBOtQzYFtKtLFeOiBXejvLmHmwhxqUwtwM1M4E8aH7pAUtNcbabNnQu8nM8PCCTYAq5GmSY1IJ58WqQkmTurCJ+OjZKNvfz+CnhDHo9O4Eo0j9JriNUgTBu2Yb8u35oDNv2Wb78KJbbiJh0pWweHSYVTSCq4vXBXQJnuEPO28IC7djiY7p1xq5Yaz9VxSOxnpgwUMVIbQtAKcqJ3EnDeD1E9lMdR1I88ZK1lQ57aohJsrZaSaT/bO52+rkGm+Y37f5VMYCRuVRd0/UU7AQykrohqUsK96DwacYbl/Qc1CoxHDczJ4NlAtlWF51BYPhavPxWcpW8JMfRbLcQ2hG6HuBGiQaUMZAiuDT3poxrmhWuScI0yx8Vs6DovWMTzXFxCvxlX8/N/9BUwem4ITuvjZf/Uz+OEf/duyGGgbEAvIupaTqqnc9y3K36bC8HpOJttX010mCn2WjWvXGzh35jqCgBVjR1buNGM7sW4rV6j57Z/UDkDaFLLCJOl84q/n2u/s15oxWjWEJsLLEnieI8BtOzZ27xzEvt1lLE/WMHtlDm5EHQ7VQJaHUobedAya87XYPB0MEkFbMxV80JWSppJfyhdWtgezxgrotuUhTcSJUiLz4kAZvfuHMF1YwInwNK4m48j8psjFsi6i4st6HrUvMyYKCUHJgxM5KMQ+eu0+3F+8H2EtRC1cWom0zbZ+LeUvL5ezSukwB5w4KNpllMrdSFzgfHweE+EYsoJpS2fayUSZrQ5NaaThOK40uGg6SKF1pd/gjQdSg+o8Qs+7D/WZEKVFpkBM7pzPUCEpYI9/L7qdHvRY/aLLEi3bmLg0jYX5GM16CNelvV+C3t6S7LY810V3XxVdvUXYBYJwIkwZqjUuU4kxJq89Qy1dxmwwhdBuipFEZMVICbZk9QgMq72ca7nIogRzF+bwr3/o/0Il7JWo/4/+8EvYdc8oUjtCYqurPXcz8hXJr5f+zC3Q7uDRulUv4YMVKxfT9lCrASdOjGF+jltJdjoy0krgejaiOJBOs5tL9KwB7dblbgH2jXdupeilaoha8NJYllKrhCPyh0Ns2zaIBw8PIFisY/LcdWQNF17mSVU/zkKjK63vV1qc5nXXI4ebv5aArYUnXQTkeljUMh1zymKwkMWu5qmFWmchpBZzTxGDD2zHhH0dxxtHseTMIHMDzWMnviwsOWhL7pxAyYKhVYQTOihHJQzbQ5IemJqZEp0UAXcKXImue67mZ5qvjf4IrznvevTjEroLvahUunE2uYBz4TmEpaYU7DzTdBpJVc604+R0StNGnuctVtruRTpU88hmp9nKbbQVRgWYpZKvPPd8oRMOtnSz2vC5ijRsFFDAYGUIu9xd6EsH4KCAOAZef/0iaosZ0tCFYxWEyUKmjliuebwvNpJmAt/34LgJgqiGnr4q9u3bga4+X9I+7Erm16P35zIW0QCldZcxFcxiqbkoIlh0e+Z5ybvmYkLzh8/9v5/HV/6fr8IPyti7ex++/KX/ooVLn141WjfhrcgjbebCeT2bcWzltDc0iprDTDMXUZDh2LHrmJ2tm+jIVIlWsUM7/RDdeG4dNx8B7eOj8Dy39KSr+UJbY44yShvw/UzofY89vAdl18Pc2SkszVLEh1I9mutmFK75a+UI62K6/jHPqWaaOFi9e8rPJstAviMTITBDRTNENeJf185elHZWMGGN40TzOBaKc1IsK0Y+QtsWZoQUCjNGtzFiJ0NkOfCjIvqCbhws7kHFLWN2aU5TGRQnEtEyW2stJuKWiE9SJLrtFx2M2EWX34Oecjfm0mmcWTqF+fIiGl4gsONRSzylZ+8KtU6/6WrpYJOG1nEwnZwaheet7bxzREiVhRXJWxoNE2TtAHBc2t+CClxZEoJ3tRy76Ev6MJiNYEflHnGcTyIXc7MNXLu6hNmZeY4KHO5g2JWZdxmbon6uGaJ1zbwH3aCoLCcxvIKH/r4e9Pb6sN0UhbKLcsnV5iWGXSatshjNYKm5INE5o+7FRg0/+7//HK6+MAE3dPFTP/VT+LH/5cc0qm6lRHMO+rfYZL+Fh3wLtDc0eFqwihMHU9frOHXqOqKY27L24lR+4nx1XT8wbOjSvoPfpEDJ3KByoskxTuGLqarjcTs/j0cf3IuRgQpmLy9geXzOeBaS3qX3IZfL/fYOU27CkOulaMpMQLQI9O8bQPuQh1EAACAASURBVDaQ4Ux0FheTCwjcmkTNBG02k7D7kkCWpWyCoRK4i0JURl+tC4/3HUE9rGO+sSi2ZsZrtq3bVvPjK/sUZeQxp12wNYJdSBdwsXkB884sGn5DWvAlK5t4yhM3i9rNdovatr4ymq1UTutX+o9cSBxJGfJ7sFWeHGouKtyJuLCSIqzQRsly0e0Wsc0dRB9GULT64aVFjF+YxezMEpZrvM9ci8SmQvLoyqZbkzp7A0aW2v+xe9mkOTm2NOYteSgVqUMDFEpFDAz1odrrSvqEuW3eEzYunZ84j3/2j/8Zpk5dRW+xC5/73Oewd+9eBW1jN3gr59cWaG9odJUaxmLjhfPTOH9+DkDB0IVkiraddQu0NzTEN3lTHt0KaAv5igLzHiDiXAu4Z08XDuwbQX0qxOVT4+j2fMnbRiQ/E6uEp6sa59/eQzv2NArLC6BKM2M0l1QyjD40igVnEacbp3A1G0Oz1AA73Amf4ncUMwXEfQYTbz660IuRZAAP+vdhtjGL+bSm4JgwBWMaudRIRgpnOWhLOihhN6iDoe4+2f6fbp7D9WwazUIdmc3Wb7aHU2bBM/zx1Ymj1TuLvFVb40wt4mk7OxuQNPrW3DyLown/Z1I9ZMI4aYpiUkQxqqI77sLu7lH0WF2UwoKDCiavRTh1alx2tdJAY9IqBG5x6SHrQ7j5a+ma3zpIEoNtkxYRWoxZ1rRQSHs4grmOY5KG8NnRumMI/UNdKJUtfO3ZZ/CTP/kTCOeW8fhjj+FTn/oUqtWqkWW+9XNrC7Q39PSyqs6J7EiUPTG+BGQF7Xq8YYXfAu0NDfFN35SnMvIcNOGMD1qKgX5L6H12HGPy7BzSGrfjgbAthFGSZ63XQ0nbtAtnB5128q0CbWFDZEj9BGk3MHjfAOJChGPLR3HNuYaQGSCLVDTAZ8MQN/UiS+rBC30cquzHUNaFqcY8amzGYWQu7kkmJmZUK0lVBTCOHqmCflhBb1cPHB+40DyPiXQSy34NkcvGkwxeoup9TEGpJgoXvbUgmP+8Irgkn8HWe0M1bG8mY2Ge6Rq5F5b+N5tdqmkBPVEPRgs7MWyPoJj6CJdC2JSwtX1885XLWG4y1cIFN5YGIEm1tK7IRPqG4aK37I13tbmHq9ii5RRD9urQsd72YJE5IjUrLYaKR6gwcmJEyRL+9Cv/FZ//wmekaPyjP/rDkh6hdk1+aCR/644t0N7Q2CotizS/Y0evYmamAdsqtbQuViZNO2tkKz2yoaFeeRRMe7TmdpklJTee6RLPa+KRh3ajp6uAuQuTqF0PkDQBr6Ai9Qpm6t2poHFrH6obv6dR62s18JhGFUktqGkw9T+qI2X07exH3a1jIV1CkxKvsiEPkcZN1OpLqCdNxA59ZHwc6NmHalLAdG1WQJuRYWuXJ9sSjSLz+ch/JxgP+oPwCkWMJ+M4WzuLsBwgsBsQS0npdqRVmTGDkEVCc9omaG6dL2/wbWfdqDztilaK5pbJu2aNjiXFIkCRQPgYKA1gxBpEn92LStaNbD7FzMQ0oiDGjr07sdjMcPzsNJZqTfi+gzgmpdNo2Jvr0ca1b7Wg5EvVTe+IUUlXkBcBLKcojTMpOd02G3hspLGFNLJRKrL4WYPjNfFbn/4Ennn2T+AXPfzrn/lpfPCDH1z1Abd6fm2B9gaRhLuxoBnjtdfGMD8fwXGKGsu0HpS1NL8t0N7gULeiRDWVYLGNURFrCBZsq4n77u3BntFB1CbnMHVhBn5SRMEtICByk5lgts4EbzFNvkH85a1cWSfv1bnQnh4RGiBjZ4KjbQm3Gn6Gwe1D8P5/9t4EupKsuhLdMbxZs1IppXKeMytrYobC0L3sHky3/bsbf/DC/bsX9nJje327aZtvQ9P/Q2OMzWj87W77Y1OAXY2x2xQ2BRQU0EAVBhc1DzlVzkqlpNQ8vTleRPy1z4n7XkipzJQylZVS5YtaKiml9+JF3Lhx4tx99tm7i4UxB4HYmCnDgst1ao6wRb0AFuuS8tjK+C6K1QLytSJ8n2UyX0SKuE/+TEs7wgHMmJmBJxwXm1o3YcKfwgv5U5hNzcFz2SZKXFeUN4TJoaRDNh+RG25ErKJSQvQgEGZiHdJWeIIrCmG/GHErkcglp9xF0ksh5+fQk9yIvvQmtISt8vsgH2Dq/AyqMyVxfCdpZMfLtuHs+WmcPj8nRgJW4ElmTrM1ys7Kyoka6UsOf/y3l39Aq+qmWYVElnJMB2zDveeMS8K1siiXSkimAszMDOADv/MuFEsT6Ontw599+tPYu3evPjANtr6cKXEdr2kG7WscPK6s8vkKnn7qPKoeObVshTLLd4O+xidMM2hf41DHgjZhKUaGpDrYWxVs3JjCnYf6UJklvW8EdjkJruZdx5Z27rUy6kIBjGW92qyigbvRpq78Z2aPyUQSdsqFnXRgceXNJTsRi4QFK51AKpVCJpGI+l5EJ7VOsxMZV4bsUBttKPDkkSNnW0inkrKvocowRmsTmHfyqIYlAYjJxBAWOcfNpQBUVYuGIcc7MosknTHSh5ZMm4dvYBjGLT6EIg47gQWRv60l0Ol0oMvpQm+iFx3ogl20UJwpozxbRX6ygBRLrdUq7JSFXE8b2ra148ipcVwcL0gx1Cbzh3ASedL1ldL1Xt3FAd00Q/FhoOVbSxQ6U/BrNThOFcMjx/GBD74LllPBnXfejc9+5nPIZmnYras54w97PXP9au9tBu2rjdBl/h74wPR0Gc8+OwCfPn4MJPWbshm0r3FYL/s26d0LyuKv6XlJJFM20uky7rqzFxnXxsVTQ6jNBnA8CwlLC1Omk3i1j2Wl+9MW7QZMoS3qpqNScWAtsEWpa5QVqxSZhkhGTXEzYwYtfeVklTD+Msh7sEhZy2TQ2taGVGsGcF1iEKrdFMUm3T1xccIuFdTCisAv1O8TmEYKnx7KfhFz3izmarPCW7ZIp2ABVeRMyKRgNh/AEtEppfUZ6EQzfErGJhDmQ7RZrdjdugdddidakINTcTA3MovZ0RnJyr1KgJSbVE61X0Hg1NCztx92awqPPXkOFT8Jr6pORCmKNvG61le0Cm0svS0zYYopEmr3qhFw0zYkUQrksQU1uG4N9372D/Cjx/8XbKuCX/6lX8Gv/6dflxWOWgdGLJaVTpAVvr4ZtFc4YDo7tbYzOJjHyRNDYnBgOyldhi+GR+pdjtebFVzLgb6U3sNb1UPAsbZyqPoF7NndIoJQxYl5TAyMi7C/X/UkCDC7lFbuNbBp0F6KUaSTyTAilB1Bbgzb3rUoqJRuoV402uONzK8CLGBriMBGkvkqpEKKnRQR1XEDyUwa2VxWqGxs26bGM+MMOe6hY8NyEnBd8p75WapKWLFr8CyPYVxYHzwmhvmyV0a15qEWEG833ZEKw5RDdc7JhllsTW9Ft9ODFJOako3yWBGzYzOAFwl81WqSlUuhjyGSx5P00bNnM6oB8KMnz6AWZmE5abm32OIf9fhfpXM4Rv+rC1Bd6f7TAN/Qz+biR9vmOZiEYQiZVLw5/Kdf/0UARYRhBV/9ygPYt3efHpvDbtxG8L6R064ZtK9ldKXSDBw9MoIxutKANk2q+tZgjxjAT/G9q1W0r+Uwbr33EHd1xFDCDwvYtjmLfbt7UZ0uYfT0qBgCENCl9ohQ+66mrvhiDWA9027od2hmysAaUQAN+kDrM2a8pM0Z7F3ijYiSihO8/Fr/FxUeVVqU52uCtUiNihBS1Fhu2sWpgeRQF4O6HlHzD1u/E46IVTmOJQ1IosdBxp8LZHJJ0XZxkgkxQBAtjSgYqr53hLf7ngRtBvdWtw0ZGibPhciPzKMyXaFEuNL2ovMmsydhO6iSkplwxPos2ZbCpj39OHVmDEPD86gFGVgUX/PJjtHmHO2kvBRu0stpArYpUDYy56tl5fqQVMxHC90Kd9JHM0QZZ84cwSd+/0Pwa0Xs2r0NX//61+oqgbKyI36/Asu6a51+zaB9jSNHeOSxH51ASQR706ixw0sSOxOgm0H7Gof28stdkc5kHlqGY/tIJ0K8/K6dUpKbODGGasGHI1l2BQ571hmUlm1ssLpHu3BvGmBUn0MlDeQ3kQ4K4QXNtvkaBm0W3FjQ0xZral0bESlDXhSgQowHmA8mhPEhIVz87qJwEzW0CDgjJtMa0GrEtyMlO/6OWTcLnRwq32EiTPlR7kxd7aXIJm9V3JyYN5mW6VxGzB1SmRSS6STcVEIlUzygVqhidGgMhekCMk5GOzDpKs9iqfhx8uFBlUK9YyqOhaLto6W3FX3bu/Hk0wOYmfZghRktjLJQwXEKFqtmmgza3G8R0F7vdI1WOPXEaXHGbWAUlTPQTe3L5EFJQwlUYFklfP7zn8bDD39TkKdf/qV34J2//k7V4X6RWUnNoH0N96rQ/arA9//+MBBmpK2NWsnMUoxMp3aKRUvaunbzNXzYgrcsZqTo8vpWyeIpuqQBOZTCUMKxsG/XRmze1IqpoWkUxoqA54jSG30fHRKRFzWZX+8VuNb3a5iOtEAiNTwBTQQr1msYxcRIq9vocSsn3Wjp6ecr31ta0oXvQfVClQaO1+hktoica/QWMQNg9q2ZqnQnysMkYkswaxbdlMjjMGo5l1RE9ErixU7F2u0I1xaMm9m+rAdIMDergUjKNeokF/ZOdA4iryUGIRYqhISSQHtvO7r6OzA2Wcbg+UnM5T14PuCkaEJQgyvpv8qFS5u8dCBy9RGDwqQArQ/CxvWP3yfxQG+uaP1Rqll23cyBmi8VVCrj+NSnPo7jx59D0k3g05++F69+7Wvq4x1nJTUpf9d6l9zA9zGZmZkN8cQTx6VrS0xF5W5RBTdBwwSf5GRidtiwlFreYS2Fv8UzCbU80i264eo7vhp2fnkK1PKO7ea9SpbVAnskEfjkAnvItQR4zau2wy/VMHBkENkgB8crww49BK6aCqzfzbCRrnQGJqBf71k25o3u8erjZoLvpZ+8MFxe/cgUFxdp2lQCLd3taO/tQsmrYXB4DgPD4wicBELfEYqgGl7Q3IAPDWqP8BMMf1t5/Hov8jyWr6xnZGJFS1sCt77XcT0MDD6PP/2zj2Fs9Dz27NwrQXvL1i1XP7Ub8Ipmpn0Ng8rM5dy5OZw5OwoExLPVtNe4mIhqnAjnMONgJ9xKg/big7rcku5qN/NSf7/6zXgNQ/IivCUKEZJNUgmaLexstihg//5ebO3vwMDhC7DmgaTvC9vAJza7jODzIhx88yOWHAF115EGKBYhLQp/Udo0RLa9DRu2bISbtTE8VsXJM+fheWx4IXvIg+vSZiwQETAGcWNSoFRKDeC6Mli+sYVh8aj3pMm2gao3j6ef+S7+/C/+EK4T4E3//F/ggx/4ELJk6dyErRm0r2HQmWk/9+wQpqbK8OlqTT1GoSGppVEjaOvTWoP21TLg+IGYwBp/z+Kfzb9VYvTS7XKwyXoN2jxDhRjE4Y08C3LeUEYuC7zy7j1A1cfAc2eQs1IEXoUi19zW7ggIV4bsDF8t1MgfJ0uF90qVbjrpNNr72tDW3SYwyYWhSVycyovmjEiHEf/n66kRKNOaNEgaDifli/ddQNf7ZbL1DTwlHZJRMZKfQDGyv/27z+HBB/8KjhvgN975LvyH//COqAP1xR/fZtC+hjFnHeeJJ86gVARqng3LTkXYmaqWNfBJo/msy7/lb0sF1gj3lJ1IySnanbq9X4LdLtBAiX/2+g3aLLIpI0T1ytV1m24iFg7u78XGDTmMnbiACgtYtBWTO3kl4778K9R85fWPgLEvE2suQaEjjJ6IoqNdor4VIt2awYYtPUDKxsh4HmcGRlEq8/rTXiyUFnff9zTMBi7sIClfGrRpK7e8OaBB24A+EY/eItVvFu/5z/8nyuUJmWuf++zn8PJXvFK6Tm/G1gza1zDqlTLw1FOnUSqxxdeFRYxVrnWDXqQTQHFoKeGsKGhrJrlU9tzg7sYyz3gRZkHCfrXiyzWc/M18CzOrqO3bpvt35NjNtXFvTw4HD/TAm5nH6NlJ2DX6MWp9obmt4RFgkbH+IBbJNcm6a3TIppkDmeAWG4dS6NrcA7cjienZKs6eG8VcIUBop1CpsltR7zTeZtKJyWVW5Pqz3LNv8LQjjrbQ/TzM50fxG//XrwBWEdu29OPv/u7LaG9rv2k17mbQXu4VlWK4BgDOp7GxWRw/NgTLyrD/K9L1VT3jOBtA3rBQcngZnxgPNNrmrI8A/b2Gc6WBiYt01PpsDEiN9Kgc7yUZ983JDpZx0ld5ifKQhYom+hDMsRQuYaU/naziVa/cBjcIMXp2ApVZX4wD2CxirptpNb7+Y2nuYfVGIFL7NrrYZoZH05R2X4RAJBO3fWR7WtHR242a5WBwcBpDF2dRDdjNyfoRV2JKk6TtHL00F7BKrjrDtJmJHBgKR5HaR372F7/4F/jO976GICjhZ3/2f8dv//YH9ShfdOExPYFm0L7KhVxS1DzQwD1ysYCTJwfhuFlUqwwkUeODjmyso22li/TFQTsyUyX2J09/dikrL7dGM1sxtWU3FvF1mgyrfrRprV3YiLBeg7Z5+kW8BmEISPiO3FKK2L2zEzu2bcD08Bwmh2aQodBQdH01cEdqbi+6nvbqhbiX0p50BWqaixTiUwaHSVRiLeVSHAylsSeVTaN9YxeSnUlMTHo4dXYU88Ua7AT7JTxlVNksRhvT5uWNmni/yh2kmLlt1eCH8/jN3/wVlCuz4vl6//1fxIED+xv31vJ2vaqvagbtZQ6nCd6892l11JLLSbA4dnwIExN5WNT/tdSFXYuSEb82Is+ubJG+MGibBhGqtGng8RHSJDZqWdaMUx08ROWbWYc0CJjGAgOT6OvW82bGQhQuZAVj2o3LcO0Sfux1tyOo+LhwYhgpj+pwOpaSpQd8sHFc1vMIvHSOvdHeb+altg6ZrsToMV2vS8i1DgiZkBoYomtzF9JdOZSrNs4OjmNiqoyyF8BNJFCqlpB0ktrQtOyNrC8LgW+JYJfv5zE5NYD/532/AVhVbOztwcMPP1xPnG7WvdQM2su8oCZokyd84sQJqQPu3XcAxUIFzx8eQKnI0En3Gq6ptIW2IUCzMmS1EVp1AmtY0pZjagonksxEfPgBswoboe1qC3NAzNdQ4uLNBpdjkizz5NfMyxo6HVqM1C49fWjVEPolHNy3BVv62zE2MI7qWBFu6EROJBF3+CYtadfMEK6hA9GH7mLHGROqVQWxwfjWhh/p8afLgl2FZ5eRbW9Be183rHQa4+NFDAxNYXa+BDvBmoZCHcvf6D3Kd6RUoMufx3e++7d44KtfQKVaxM++9WfxgQ9+QAqQOo1uTgLUDNpXuaKNDFvTMwbtI4efxezsDLbv2I2tW7djdibAU0+fQOAnASsZC9oRy6PeBbac6aMhuk70V3KTPgAsKo0BmYyD/fv70dqWxOkz0zg7MCLB2rGT8kXcV0w5jGflFfzylnNEa+M1hj1jWtOjOgILklCGAPWWM0kLL7t7G1IU9HrmHCjKb7Bs6kJ4tarASM3t5o9Ao0JjdOjjGj2aujRkCKIVLOUi+KCm/rdVhU8HeidEz87NyLW3olwJcfj4RRTKPqrVWsy39ernSzZSrRYgaWe0yI0iPv3ZT+Dxx78reja//4lP4l/+1L9Q2VYVQLkpgbsZtJcZtI2+AFtpn376CQR+VfDUPXsPoauzC4ODczh7Zhx+EKnsRNmxpOQrDtrUaeCBRdk6zU+tGjKZBHr7WrB1a5foN3CZT7rTfCHEyMgEJsaLqFRUZlM6MUWM3pygmWTrFRtYFLSp8cwRsqkzV5HONzbd2PBw+yGl/00fm8TcxCxSSbqO8IGnrdAvvkfk1QPGrfkKaWTXgo9M+AZlVue+mbxRcBSRPzoROXWNFYqjkGESuiHaejYg19MCz3fw6BMvAFY6sqNb3ujaFBpj3ch3qXyLqalB/OmffQTnLxxHX99G/PEf/wkOHrytYRmnegDL2/kqvqoZtJcZtA0DYXR0FKdPnVJnkNBHKp0WMXQS/l84StW/IiyaktpJlMp0u2BGWF/nLeANx7FVYzor2HRAiUzaH1Husgzb8bBlSw829bchm3Uxn5/H+YEBBIGHzo4N6Nu0WUT/K5UAExMFnDs3LFZohEtIR1RbroRkEZbDIk0UwBfE73hDj/lDtCSNj9HlqItGmCnSVl7uHF0JE7K+VI4+SzrX5CtEWNOgTZ2Ijb1J3HWoH5WLZVH/Y8dcwEItDYDZLRkvRBqWwnIPuPm6VR6BOHwRy7TNxJCpaDLa2LwUHZeIUMsWeGqEWwGyPW3YuH0DHnn0KDyKmVAbqJ5Axd9v9mt+R00WNm6xRZNfFQxeOIGPfewDwhp51atejj/8wz9ER2eHugj5pBneHG2bZtBe5hQkO6NcLuOZZ55V7zg+kenuwcCdSuHuu1+NatnG4cODmJ1h5peAm0jD88juWPppTIcS/qXqeSLio8HEEqpSzaMwUoBczsbeff1oa6dYkoehC+cxNjoir61WynAdwiEWdu3eiw0burSqbVm4MDiF4aFJeDUbXtVWvQ7hwLKQWRMHGDFhNQFsQdCNRfOoJViHyVTzlxi0CMdXGdrlbXXO+TJeLiMYPxaxszL6Eq4Uj4gzOk4FW7Z1Ys+2DvizNUyem4Rf8+B7Phyeq7/Qjb3hc7iMg2i+5KaPgJElEI5JZNgjZhFWCM8KkezKYtO+HvzwiRMolhiEswvrS3IGi2ENXcUpE4nzowrLruCRR76JL/zl5xCGHn7+5/893v3u35L71CfE5jIRUpbJi701g/YyM23qHZw5cwZjY2NIuAlUK1UkUq50YvGSb96yHVu3bMP8bICjRwfBBhyKEcskk8yWXwuLIgz8xFnJAmHWrApoDEQespkENva1oL+/G6mUhYmJcfnsfH4ONY9u1TZcN4GaVxMn6IrnIZ3OoKdnI9o7OtDa2iKOH2Nj05idqQqvXDFuUgUb3G+ZwpZaJdXnc11elr+JH/NqQysRLXJZs14LU8rM0fKV3sCOSLDaFpkhHjrak9h/YDPSlo2ZMzMozOY1ewoCJGx1tFnAr10xh35ZB9t80Q0YgXjhUq3AVDpWnuciGQtYuST69/XiyIlhXJwsIES23tfQIN5eJmhL/YNTvoLAz+MDH/jPGB8fFM73n/zJf8dP/MSPywpb2Fviw7nQZPgGnPKSu2wG7SuMtAlk/D4+Po7Tp09LZkpclIGb8Ec6nUa5UhGYZO+e/ejs6MDw8DROnZxAQIdSNt7UvQo1szbNMjRZrXq00NK27DCg24qPru40du/ZhFwugUqlIp9bLOXhVStS1Rah9ZB8bF/42twHj0Mcx8MQuZZWycB37NyNTJoZeoBi3sPZs+OYniqJQh4DtUPlNBo61Jeg8UagRpkoui2ikbpc4L7WwswSmcoSH6G3mcqYasMzHz6sHzhwBYucRU93CgcPbkYy4WLg8CDCPG1g1QRWGy+MNOlCNo9k23EE68W6+5qfs6IRWGzbRp6H6H2LIbEGbTuTQt++XlwcK+DkuRHUwrjh9lIfF4NHkJAkjA//SmUav/4b7xCYJJG08P3vP4LOzk5xAuJDX+bjTTLZaAbtZWTahEaeeeYZVKvVBd11Bv5yE7bYLxEmufPOO+E6KRw5PIj5WUIq1FFQeproKUc8VF50tuq6tH6iUE5QRUtLGps2daJ/W6tAIVPTUzg/cBY1z1OPOsdFrVpDMkmjUVocJeT3iQRZEZ6asDoM5h4SSaoPWujuIhbej1Qqi2TCwvREFcPDM5iZKYBGDrUaM1SFTszSM66MF8n1LxqlxVHVrCRMBrOSJeNSQXtpASwN2sZWlkGbOtLMuMro7rRx5x2bBb2fGJzA7Ogc0lDvwUCwoMZCtqHpbNzFowXzai8kVhSSmi++2ghc4rUpglN67aSMyWCaSmDjro2YLdRw+MQAfAnaS6g9LrAh0wtP13l2VMIq43vf/Sr+5xc/BwtVvPEf3YNPfepTAjuKHRzvs5vYoNUM2leZKbxAx48fx8zMTN0LjswNVZdnYYsFQ/5MjYQaci05HNh/CDbSePbpARQKDDKESeIdX1pAkWq1mNUGAoNs2tSGbC6BucIsLgwNYnZ2OmpX10q6LMn4dI/a2lkvIYYtYvbC8TNUJD0pn8YMLivhrmgldHdvQHdHl0y82bmKWKWNj8+gSkM+OUYjaWmq4sbNY3EBR6b4FTLv5QXty8fIy9QAFsjnKxeebJHWnIXbDvahNZvC5MAo5sbnkUQalq9aFHKTOWrFJQXfGBQUP7OVFEWvFmCaf7+xIyBpguk6FokJHz5vjYSNvl2bYKeTOHxkEDPz5L8qJBix/BdoBMUhE5VT5n1Uxgc/+G4MjZwU7ZF7P/OnuOeee6L29lBWt0zYblbcbgbtaG7FsU5m1qSHMRiOj43jhRdeqD9Z+XtWjvX5HtHqZG1dQxBW4CYcdG/ow66de1Eu1PDYj87BsrOoslPLYWAMIpSYhbEAyRRw6NAW5FoS8hw4efokJqcmhdJnCn+XBhNDeYhntlG2u0hrpOG2pdoddH/Zu3sfuro6ZOJVPR9nzoxjdJQPiCR8Ni+EDhybbBO1hYo3EjDg11kv9aKjybQ5mJcP2PVYaQ5fBJ/U37COqUeaDnVoKtZ6LsVGGlc5SXi1ChKJmnRB3vPafQKDjJ+/iPmxPBIBM2z+RpFvg/7Uj3IJxoiMZDPTvrGRdgV751wVc2Zmt9H8EFhQgGtls4pdG/FlulSGPqqhh2xnKzZu70Mi52J8PI/Dh4fh12wx3vZ4DyZTkQlyvZc2SogUQguCCgrFKfzOh96D+fwY2trS+P73Hxb4MW5tb8DAFZzSqr20GbRNvkg7JbEuagQQ4sknT57E9PQ0kslkVMTi8oi8aalfx4JUDbbjR80bKezetR893b0YGZ7FyVNT8Gm+x6ggkauGdNpFV2cae/f1ScY9NzeDgcFzKBYL48mTqgAAIABJREFU0grfqJIvzmgXRRaJyiptqZtCAfpv/aoTQ2QJqK7Z7e3M7DejrbUdiUQS8/M1XLgwgfGJeWGaVKs+bKHQxYqUkVt4Az5Z6kFx6dyMUxvF7Dta0DZ8a6NxMVihFGb50CK7JboeUeGH/PNaNUAqaSGVruLuu/qRTjqYuziDmZE5OLUEnMBBUOODV0N2nCGiGdqlx9jovlu1e6u5o+sYASZOXBXFi8YCTgTa4UoLRxoKU0yKfqCpbAq5rhZk27MIkwrq+aGF48dGMDNTRo1puJWQe1YBNuqMxNsY+BQgja+GH/7wO/irv/4MytVZ/JN/8o/wR3/0h5HWSON+bwbt67i4q/XWeKbHnzlhWAAcHh5W7zsuqwXLon51nNYWRYDIB9KrVpFOZ8Ux/MD+g8hmWvDCiXGMXpwRdw5mBBu6WrB1+0Z0dCRRLpVxYegCJiZHhUHCDENNRRfjuvHgrR6BuhlbpHgwj712QfrIh5JmJnV1vHQLevv60dfXh1rVQqFQwvh4GYODPG9CK3xYMXA2NCF0DBZ93jKpfvFs2+J5hoQrGgFaa4Z8sHCsTdDWB43wy8kY4IohrOAVr9iC1pY05i+OY3JkGraXghOmpMuZ1C1Lf4g0SqLH2hJsEcNAWK251NzP9Y9AXDbC3I/yO9aFKOPnALUwQCqbRGt3K9JtadiuA6/CTLkg7vLtXe2Ymavi6WdOIQipec+OZVdlDaK5oYFbIUcLJYQo4m/+5vP43sMPoVYr4r3vfTd+/hfeHhUdG/dkM2hf/zW+7j3UG2Ak6QsFwz569Gi0PNPsmptgyEK3WCx7SrxZsS5mCSxKMtDffuiQUPEeeeSwFBdf9rI70dFBjC3E9NQ8jhx9HukMqXtVwcar5Spcl6T9y3Vbmc82NkoG444PgUkl47CFZt90+WDQVgVAMmHIRlE8+7bbbkd7W05EeUolD4cPn0GhSPye7fEuiAqZdvkFQdt0s8khXB4eMR1u0gYs/zV0WoT5Il2elMSMViXMo0SLNYSbdFHzi0gmbIQ1D699xW1Ip4D82AwmR8YBz0LazaFWoYckg70G/4YZbaPoGB8pE7BNMeu6J1JzB6syAsbl3ARsEfyK/qP2qocAPRt70NbXqvlHJUB+ak6d5sVsOES2I4dsRwbHjo/i4sU51PwEnEgJUNvQVb9bID/Wf+wixsbP4KMf+R2UyvPo6m7DRz7yYbz+9T8Wc0zW02sG7VW5zNe/E1MVLpVKErDZTCOLeYqpRxVjTqK66/UCl3VeeFafGYgsMR4lXNLf34ctW/bIwREjJsxSLOZxfnAAc/MsbkYZqzTsEPdmOm4CsuYBjQKKmS7xh0Z03gvW/PGF30KXRAli1N2Rri8ao+qE5a8dN4nOji50dXaivb1DCpgjo3My4Wem8/JQ4griUqecxWDw5QqJCnWwEKiUKd40rA/o+fBYkklXKHtOwkEiQVoicW9bOkszuSxSCQvtLUk4gY/yTBmT56eAqtpWKXcxUj8UqEszIwOJLD7KeMA2r7v+WdTcw2qNQFwWmfcfnBBWzkaqNY2O7m44aQe1cg3V+TJqFS9CBnXuk5rntiaQ6c6CfXDPPDOE+bwv4mrqUM97zARtR5ogK5URfPreT2JkeBDT0+PYs2cn/uzPPo3+zTED31g9ZHnl9tUajcZ+mph2bEw1IIcYGBjA4OCgNK2Y32mgVqxVSfWcG3rhdWNRkhQ01bkWGCIsC962c+d+bNzYJ1nj2XOnRGyKDwRiawyMNkjZ85Fw2d3IAiUr3uZZHq96m3wwlkHXC4/xKWSgDP1d/C/CnBBgWc9VCqOCJeu/TcNAR3sHNm/ZimyuFV7Vx8xsFefPj2NuJo9EMougFs81FofDxf/WESIMwjEkZbEllxXBq1yW/9ZKPJe9LPS6LgtHjvDXNWNWXhcxSrqLuDz2QhnnX7gAu5KCU0uR/CcPSicZCg1SG4l0tSJHs/gOi6hi8V8vfdSrf9PdSntc3HFaH2+BIxZuDfa8zlEpRIppbyDQR2tnK9J9WSQyCaASYn6OvQs1Ff1jY0yg/qFMLtgb4bu+ON3kOrIYGJjGmbMzwuSSpCGq+5jyjxUG+PIDn8WRo4+iVC5gcnwMb3rTm/CJ3/+EUGvrWz1ox7VRXtwressFbWaY6jPY2DR4qf9gsVjEc889J3/kUmtpd4oY/FDHjBcHSl1+afHRwe49ezE0dEEKjao6ZwqG5jgaU5iBKXoqyLelHcVjISa+tq9PqoW3RONmiZ14vWAZH4z43y10dnVh27ZtUj1nu/zg+UmMDE9IICfWTdiEnZkCvYQUZeJDTPHoltYc2tra0N7eKpAHgzOLg+ZJohCLPizoFOL7/FkhEd6wfLAV8nnMzc+hWCLeaKOtrRWH9h+AXbVw9shpuNWEsEVc3rBkE9AXUJT/IvzT6JRcEiBe3BvtVvk0Y7Mn6QAlE6ITJylJnp3RskdhCXVjd4hRB5wD7AoO5WHN99aoKWIHyHW1orOnC27ORVgN4c1W5D4Vymsk/SCSrVFpsZ7a2D48x0f35k7UfAvPPHcWc3lydDOoVH0kXRdhUJEk6fixJ/HA176AUnkWnlfB1NQU3v/+9+Ntb3vbmrt0t1zQliAYY4qYoMzfsSnl2LHjyOfzkZpYjDlxHZdOW14Jf3Dpzoq47qyBC+vUjoXt+mS/po+9TGv2koH7Sh8g+/GRTKVVmKq3H+l0CtVKiLFR0hLZ4OMgk8kgm8lK51jCJW9dFwoCK0XKbGxMYkdnqVwWPRZhAMiNSgnNqnR+ymvEdUdZPIs33pekTR7cewDt2TaMnB6BN1NFIkjA8dlWA/i2Cdpc+lJU6GYtYq/pyq37N9V1nqJhD6JfSFoUZdcGR1aLZu0nEKjOZa4dwA+p2mch29aCbFcWmbas+ESWZisIC566t9fvGO1fiLVO1cdQOmcdXwyBO/vaMT5RwuGj5+GHKTHj5v3o2jV43gz+4r5PYWj4JGwnRKFQkK/vfOc76O7uvqmNNEtNiFsyaMcHIk7zIyxy4cKFOjf0Ep2Ka7ylTOu7kQZVrY+gkSUssd/lOkgv/5CuAQiwaGfWgBoof0p9lS1bNynCYm5MsV8LJegWCvMiZMVCLvnshCqkZktoCTX4tZoEe+1QjOCLRVYyuhIxDzWD+SsQRcriru27saW/H9MXpjB7YVZ52YFKBPDmZqZtSkXNoL38GXJjXqmTRPWp46FW5wQf0k7SlUS5QnG1pIV0NoOeLT1wMg4sFsXni8KyCjxf9GP0mppgbY46vnqOPlPS+BBe6KO9tx1uxsGRo+MYGZ2GRe15Nsn4JXzlgb/CU0//ALbDuR5IArFz507cd9999VhwY8bm2vZ6ywVtE4gliEgxTrNgBhk60hAS0czYWjXtZT4YmJESAtAiiGaSOrXMsi5CUmKZybVd0su969qCtkNxrCqNA5g+sxCp2is9GzegVCwK/hcIhqxYomS3sFCpUrOBSLMWPfWc5fatrzCIO8edReoNNVEQb6yCdF1tO9rY1JLJ4a7b7oJXrOLiyYtwPEe42TatoiRoK0QjReRmpr260+gqeyNEJbNasmrjvGQalyLGRqQfo3AWS9H0fgQS2QzautuR68wqA7sUoJQvISRuHRlbN6inJttm3UMdmxpbA75komAlbCCZQGtPBvlCDUeODaNQKktWf/rUUdx3358ileKqryrNcYRe3vWud+HNb35zM2i/qLPnapMrFhgIi5w6dUqaaJTUr8WP1XJbZqBTOhtbYClKE3V6RUE7Hlg0xhgLrWWM2BVjcTy3MftaTAO88mcQzuEyUlojIyaNmghHjxy5SRVDVpoGVQsjo+GoZVy72vRzJDAb7MQ4cNehEJOVmQC/8D5kAYmyuPycQwcOob21HYNHziMshnCoQR4dggZtLZQ2uxyXMYdW8SUmaPMBSg6+fK+DFyqn29BBD0RSNZHOoHVDO7IdLbBcG+ViBaV8FSE1Y2osHVpwpAgNBPWEenGmfSkMxgK7UHVdIHAsZDpySLQ4OHV6FKNj0xgeuYD7v/RXuHDhdL0YbqDMT3/609ixY4ce+xqzqLvlMu04aZ8ZNgO2ybKZhZNfzcySfzNdWdc7pw1dkNkql16ESeL49UJqQxSwVwDFxnkc9WO9DM7X6JRc3lkRf85ms/DIfxUdD19YNcyeeV7iYG2rgp6aCUcrhwjT5upCaIVRw1L8U6M6ZCOYR380uuKmUCnUvTrbhfaYATpa23HHoTsxeX4C86N5uL4DJzJxrQftJRgKyzvr5quufQQaZXMyqUz7qQRz0UDnV0113a0AfVu3INGWgeVa8PM+8nkKmVFKV3V2JMMOwnovGWEUWSFL3SPey3DpDWNMEuyEjXy1CDeTQtemdlTDEI8//jzu/9u/wZNPPwabheuwGsF4joi+sQjZ1UWHqJsrDrXUdbjlgrbJ9ky7Or8fOXIkJghFzWVtPmHQXq2nbPxhwX1v2LBBCnhxSMB8lkzKZaeIqs2wYAstOfapyUlhYFCzgcUefd0KMm3ZbSNrXfBwiffG12mPhkFzuVs+fpwrPJYoS+cDgLg4LcRedufLYVUsnD92Hi4tosQIQT0El2IJXXsgar5zuSMgV5WuLtQul5WPVTdXr1EnxAmFX51rz6C9pwMWceWqj4pwrauCYcsXH7gxmz4VXLvSCnSJTDuaviGF2RyyUQLheLd0ZfDckRfwn37916TZjK3wNMpmzYYr4Z/5mZ/BL/7iL0pysha3Wy5omyAZD3QsPrIIaUQeG6R+E1iu79LpA0JBN/6cyqSxb+8+yWB1GjYAucXiSVf7ZI2dwrKuS44wA+F/M9PTOHX6tLi2mIeV7m+ZjOR6p6PJ5U0WbXD4xTfKkjn/EqfQwBwbPPernanqF5PrbfRIdm7dhf6+foyeHEVxqoiE8OSNwNDqPXCvfmTNV5gRIF2VlYoaV2F8gFIqmGwQOjMlHbR0tKJ1Qw6JdELkhfNzRfhVDyG14QNbZL4ECmG5SYK2BZ8wR32qXc69fYlrEIRIuUkUKkW4aQeeVUO6NYNsZwa/99GP4JvffkjqMUyi9B60hQX1nve8B294wxu0Z8JhHWcFy94XYSrcckE7Xog0gYwdkE8//UwU2HQ5FO+AvO7rEHUeCpZt29jY14udO3ZiYnJcdTFYqIvioFCgKCm63A/ljRE1A8ouoqDFLKGjrQOFQhHHjh6FX1NM/dKWhit80FLt6QJBmKNbXLFfQRavJcplP0D4ana5qcQqxaws9G7ow+6du1GdrGH4zDASYULlWOtNUMsexeWOdvN1VxkBQhmuxUAdIGQxn4XApINMaw4berthtQChF6IwV0ahWIx0ZEjyoKiBBcenKJROC94TLFSSd3Jp0L7StW0UQ5krJVIJlLwSElkXLT0tePgH38Pv/t7vwgtoKxYxWBx1NXrjG9+ID37wgwKbsnt5LW63XNCOU/xMVsvfPfXUUwIliG8ju+8WG8Bex9UjNhdQuMNmq7iLAwcPIJlOYmZ+Vp7wdSU6o4C3ZAvf5Q5Ai3bSih4L2vzMbCaHdDKNmZlZnD17Bl41EqQyrfPLOacFUq/xTLueW0U/xLPnxTu+Uma/vKxf1jymM5K+NbaNVCKF2w/eIdDI0AvD9PSVJtV68StqXF3OaTZfs0ojICoJNmrUl3e0OaZ3Wx8yHRkJxOV8GeViWSqK2lzTEGmQGSSRukEn1WxbZnZ0gCYxuHrQFr0SmoUkXHhhFb7l4dljz+IvvvA5nB+mZDITAN6TmvXv3LUTH/v4R9Hd1V1neJlehFUanVXZzS0XtM2oNRpb9Dek+9FSTDnCcVraKmRrwhphq3oNnd2d2Ld/P2bmZlCpVRpu4hEczNxVC2rL+1xpIIha3k03msAlkq1baG1pRTadRbFUxPFjx8X5ZrnoyMIbxcTmxUE2Os7LPmiWMgOONUcsk5LHTyGrp+ZXWaHS7kcvFOpfe0s7Js5OCkTiBuT2UtjLhi/6Est7KKzK3dTciQZd0vhoHu0ESLeksGlfP0r5Iqr5KoJaIDoxohVTazAzmJULIZCTmBS+SJ/G2IkZQO7Ka7mF11pXlpRipQl3iInZcbz3fe/B9PwkQodINhliNNH2xSDkt979m3jtPa+VBIgJHamt5HIv7qC+2Zf5lg3aHHhTrOLTdHh4BAMD52KskcUSrNdxqcSHMRAO6N0vu1ue8HPFWVRrVQk+izNt5bgub4verdKSknJrtsJMVChToYVsNoPWbBtm5+Zw+uRpeJXq8na+4CjMDXEVM8XFQXjJguo1Bm2LQkC+yrzIY81Bb1cv9uzZjakLU5gbmhUWiV2zpTWaAcBQ0CSJW+KslzvOyxywl9jLrl6jaDyro3w4oHSug5pVg2f76NjYgc5NHchPzIuCJYO1ayc0wxb+ns4nZtSqj80kXJkhkoREjuuNoL2w7Sx+pxj1SPMKZR1Rs8YXeOR3Pvo7OHP+pGTdtcATUTIW6Cny9m/+zc/gl3/ll5BIKEwizV+Rtn4zaN+gaR3PnOPMkKUy68XFPv6bWgO0FeN+eNFM9+LqeMFpaOju6cau3btQrBSQL+XBqrbZdGmoCfZKc8N4YDLdYqrpoAI63GE2l0MulcXs9CzOnTlbpzUym1idc7xBF9Yk+PK9EezjyoevedWraGCP80fPIVFxkQlS8LmiSGhGri7el0qzag3gxh73Wty7MXyoj0t9EhqILdbyJQwQ9TiNat7GC0ivyCK9dsGk4aBsVeGngK17tgOJAIWxAuwa1Ri1uBjHqAX6ig9UHQmJP1IjUTMRadOLKf9F3+X6CtRho8ZmL4E+Ij9RO8A3/9c38Lm//HPplhUsmy3zNAQJga1btuJjH/84Nm3atBYv1yXH9JLNtBfDH/EK8GIGCYM0u6BoesCipClCkmO88hB66XXngzuZSmLnrh3o3tCNi5MXFcteJfX9eBeafnqUfwg2yMmp+g6EStoyLSjM5aWZiBorFIJi0WWtVcgXj6LevubWjqv3hdi+ZTs2b9qMc8+fRqqagFUCUlYCnjRyNIP2lSKRCdwLkofoYWbQZPPAk5l1CQy2cK3iUpY48BAkLNgtCWza049qpYLiRCFqgGoEbUFSFhiKLH3VG7/VlZPBvjX7jmZGoJLJIjZF2IPoCymGNjA6MYr/+qH3Y2p+Cl7gRSs1BVpSqTT+4A/+Xxw8eHBdBGy9Bouj27o5dD1QPk0XL5GkkcMo+UVzSixqA1WQExW5Wk1aredm5+oCMQxe8UKlQ0/HK06q5Q6WJZnuwdsOyNKMqnVsMrjEnGa5u1v0OpnIi2AJOV+fzS+Ay2YYttDDQi6ZQUdLByYnJ0V+dn5+XptlFvYBX+OR3Li3XSloZ9MZ3H3H3ShNFDB6ekQybba1s9tOmnKamfaCCxOPu5eFjFR2PcKZI7qqCZL1uWYy3XjIJ1ZcQ80N0EZoZFsXCuMFVIsVEfVivcZk2pq9L0XhW/wIMf9m23sjKWlYxOlZuCw4Vgn9hRK0q2EVo1MT+Pxffx6PPfWY4OxstOF3eb3r4i1veSt++Zd+WZXNqDa4DrZ1H7SlaGicUGJ8SlNMNBKf+fm8ZNPsdlRVuao00dCEQPR6I2vlRpatPN/VyEBJK9qybSs29m7E5Myk0IyoZBZ1ZN+QadJ4+OhEJEWOBRZymTOJDFpbWzE7OyurC2XNrIMJKzK3cjb1Qi276pJuErcdOIiWZAsGnz8HpyJplnCEG7f75b0hb8gFWKM7NQH70mBtUOMGZKQzgnRUY8oRiXyZ1vSoA7WR77IASdEnoAoPPTt60dLZisnhSTi+DZtfUZG9keFfLmgvPR9JAdTP07mgqwE1+E0mEyKrSlpouVLCwz/8Pr7/2A9w9IWjknVTC6dSK8tDnAF+z569+K/v/6/o29inGPpih781eg3XfdCOjysDLgMygxBb07n8n5ubk+U/s2YyOJhlx7NKE6wZ5NTaSp/Aasel1L/r3dKZNG6/8w6BRKZmpiPGCPcaZYLyATED3mUyKq50XPW28VD5zQzKxLiDUoBcKift+tlcVlYaZM5w3Nb8Vtf9XBi0mSXt2LoDW3q3YG54CrMjM1Lk4n9xFk6zEBk985asm2jhz2x1vD/Slon/Jdaofkn9xWeLuhvATjno29UPO7AwNTkNN2THKml+KperQVsD7qXblRIIxdfrnb1kEVG/3QG8modEwsHR40fw5/f9OYqVMiphBaPjY6AnBlek9JUkI4T3+O9+6EN49StfrXOEUCIz7XWRu6xjeISZc7FYUrH8QiOTNhityTbr7eERBGC42KoZZRzYVdkvHqhV2+D6K1WZbAb7D+xHIplAvlRApaoKY7IakKe74YCoYMeluOHyw2n9nM2Ryxo0ApBCYr0pWL4l5gTMSBi0z58/LxDRmt7qlVqe2KKgHYbo7ujCvr37UZktY+z0iBS9HCQWwEaNTtc1faY3/OAuyQkkYzXRKgY2RtU9yWbrQTbqVBTWk5m5CnbLVGOu4wCtXW3o7OtCcTYvsqqSZQdsn1FIRYP2crob4/dfpNoYKXTy9qRvpJr8VnFu4Bz+/h/+Hs8dfhblqtJpvaCG6dlp+SwWJ2vscnQdvPWtb8UvveOXZfWpzk3rI2BzcqzLTNswPI4dO4b5eRoWGF519AyOpE9v+Oxf5geQWsQAuX37dhFVL1fZDVYQrWmRLY14TdI7wgfHCjPtBc9d41jNhW3kHi9yqr4njTbt2XYk7IRARSMjI4Jtx3npyzylF/9lsaBhLQra1BpxbRd3H7oLCTuJkdPD8As12DVHA0TM31Mm/XqAgm7gCMeff/HMWhJOsQ6NpIPtiKEhWaiMnNAohYMtik6abIhSXyqBtvY2pFpSQqVj4Z1RfHZyGr4XUNUDVpRpm89sBO0rpbfqZMMaFA0w+LHSl0AEjFrtLjBbnMXXv/l1PPXs0yh7JRQrRSQzdFpijSqQec5jMrLCr33tawUWyWSzxj9HIZd1kGWvu6AdD07Mph977LGog7Gh7SF56xoL2uRjp1JJCaJbt28TpgMxODbYEHM3imcCYxj7pBXctHU2jDSgKM2P84+LUbbE83etuVZk0hmEtRAjwyMykcW5eg2O15KnfoWgLaulEOjr6cWuXXsk2z537CyyYRYO/QIlEkUUyEVz4/rXUSu4UGvkpZcjLclD3mHwIgQRSlbKmk/CIVZMswL1P2WhkTq4dtJFR2cHWrpaYKUpLhJ15pYBr1hBpVJSaqlFEiCDuFkhGYClzqi+ZGSMuJmxn2OxnEVGZsWJVBK1wEclqODZI8/ivi/ch5JXFm0TZtZuykW16omuSOB5wgjjufhhIMp97/6td+N1r70nknUwDCsWL9dH1F5XmXa86Mhg9/1Hvi/Mh7XOM+ZkMJonnKZsk92ydQtSmRRKlaJg74LLkWPq18TUdmVbxKKNmhGkTBOEou6XSWWQTmkLMdvZL45cRIHyl4EvuJ6BiNY8SnaFoK1QU4Ck42LPjj3Y0N2LsdMXUZ6siNmrafN3uKymVGxUdL4WTvzKrsvafPXSQTsSVIiavaQzMWpOodxuwnXFXNdJOUjn0lIPobOMZLxeDbWqJxl1jd6hNH0OfKHzuWKewflIkKURtOVBWwcfFwdLXTmrO5JmwLWawhrU42Yn8bPPP4sfPfkYXjh1HFWyQRyFXJgMsbuSTVicD77nYWxsTFa6fBgRFnnHf3iHQIY8trWW4C1nxqyroB0/IWbaDz30EFpaWtashGJ96UkNBMpVRs4rCTeBVDqF7Tu2i/ktuaPz+Xnp3JKesJU+8YW7qgGJcIBrO0gl0shlchK46Vp9cWQUM9Mz+vAgFhjJzhpxrDUPGVwp0zbUPj8Q78j9+w4gaaUwemwUlXwFiUgMSAqxNaoERjSBa2hkWs5NtfZfYxx9jMSA8p8l4JFlRCdzhljXlkDd0taGbEdWbMFYzGfs9Ss+KoWK+nwyaNcobaocbAZHh7Af9XtkJcffOQJ4x4uIVwraIvvgeZJYMFtnV2+hXMSFyQt44MGv4MTJF1BhRzG13MkSskORieC1FcEwX8+Hmfno6Kjce/v378cnP/lJkURWUbGFRidr/h6IJta6CdqLn4i8oF/72tckaPMirOXNtJfLUtN1ZanG33EpunlrPzZu3CiGtPlCHlW/eg2lT+Vp8z/S35hZp0QEJ5TMemx0XDIhceShenCkF85jMDfG+sy0o2ADSmjaqFaqaM3k0LdhE7Zs2YbKcBljg2MiFcoHGh9g0dJCp8stGrRNN6kK+ppWfxbFQ+kUdJMJkTBt7WiD08o5o13CoQdUi1UUCyWRSHCp20GsGWRbURY3hC94Mzsf2aYeSNAmTMef2Cmgnx2ZGMie49l3A+1WZp/a9JGeOz83hyefewpf+tbfCSxCzLxcKQtWXSXNL3JY4vw3q0w+IIrFPMqVikiufvRjH8O+ffsE8tHaUQMSIdzCZGc9bOsmaNcvZ1R0ZLD50pe+hM7OTuEcyz24xNNzLVwEXfxFS8DI5FaCZESN7drQhc1bNovT+XwhL8s/acBlG25EUeKkUvskrgSVokTsmoFI8GvLRjKRFGU/TtqJiQlMjE+A/HR5QIirTMRppzhP3ZFef78uijBmFR0v1EaGB0aOlfgrzV9vv+1OJKwExs+OojpfVj0SWqExSEg2aeAA9ZNc787tEXcjmmmxphde51iTETNoY7ErxUU7EAyYUF2qLY1kOiUKlMwcmD0L9FH2Uauyr0FhC7aiS6ct6yWRBgwDs7EokE5H7jpiZ3FfwhNhUIykiA02QiaTeItG1D0R+eJr6B1nhyiUCvjR44/h8Scew4WRIVQtFQwjjMiW9XhckJUUHxRi76ceobyHJien8I53vANvectbBGIxsYLf4810zUz7BkVLE2x4Ub74xS+KkQAVugw1TzPG9VEJFjUxVugtijplsXnzZnR1d4u4zdzcjBRWODnZFixPMMh6AAAgAElEQVQ60tQq5lKfgvF2QopsgRcIKySXywlMRF762bNn1z6FbxXnR1z7nGNACmh7Wztuv/0OwAtx+unjaEEL3CCB0FcVOp9FM2ka4c2tS3uxx1qXm1aeJYsNVfKU/GgRzWKfgVDiamJGwOJhNaSsQgJtNCToyMHKQLwZ+T6/7KNcoItMTTBqusg4oRuNSqNsa3JmgThUFF4DueQTly/v8qEhQZMeoyGQcTLwylWhChIcFP9IJ0TFr+DkuVO4/4H7MTY5KkwRgfQuAx3yvmdWblaOJiDz3319ffjwhz+M9vb2lwRzaN1k2oufiFyWfeMb35AmGtrdCx2J2ajBK9fBzRcXrmLgIczT19eLjb29cpPNFeakc1LxRmWBSHZDZ5rQlqo+AzalVxmohoeHMTo6dskNtg6GYlUOkTe1Fld1Ob9r927092xC/uIsxs+MIuvkIB3MNgtaDNomy9agHZHmV+VYXsydaCs4M2pDF41MmBs0IiABuNkk3FwabZ3tcJhMM8CSIeIF8CtVVKhzTUlfyaAd+WLE5+jEtfW0G1GDr/Q2mEZVA3yIrMLCEeCKUEx25U0NlIqFy3QqBc/3BJqpBh4Gh87j8acfx8N//zCqQUUeOiw0LhZ6i3+C8XulcQHnAecAf2bA/tVf/VWJEXy/caN5Ma/Pan/WugvaZgAYtL/97W/jzJkzuOuuuyIOpnY+rkZDzGoP9OX2ZzIE/l0zRkuy7S1bN4t4e7FaQqGYlwyD1DWBQ2hwkMwim8pIwYWFFn6RlmWgjjWPUa/iAOs5K0vEiNYTVqIY1m17DyJtpTFxdhTl6TIci75/DcUL5TSY3HB9UL4WD52gxXxQ1W25TKs3ucweWjvb0L65A3balYDpFcn0qMGTbLomxrnCZSdTg9KqmqvLbRSQ+WG7sdzZNMQYM2cValJVYGLafBhoL2rUkxO1nGug1wY2PlQj3WwmJBF+XSwX8K3vfBuPP/UEpuemxbtRYRJ29bIOJDn6kjPHSE5o97MjzWP/+l//a7z+9a+XDDve+bxa8hSrOIVXtKt1E7QXnxVbVr/1zW/h+eeflwvDIhuf5OsFlzJBmpkhA40UdKL2eVbLW9tasWPXDpl8lHItlVV9kMyTllwrknZScOvzA+elum7YIKbtnm3qhoe9ohmxDl/cyKBU4Mtk2lyC7+jfiq2bd6A0VRB8GzVb9JMFQjNlBYk6C3Wa19Mw2CKappk2/RQjAEKjJmHkhIWujd3IbMiiUqqiMl9A6NEMw4Jjqa8mk3XRKidezdVqRLUTY966xkgUiTXsInqZSiBYlEVl0ZI0uqjOYjqOo8yctRhzfSRwuhbKoYea7ePZZ5/B//jL+4RLTQglNJ2OvKdZ2Ixos0sFbV5vzns+pLm98pWvxK/92q8tsAsTQ4OISrueYsRS83BdBe149sifv/71r+PJJ58UE85kMhWd3/pql4hPIMYOw5/mJGNhsn9LP3o29ujyUbilCRTmCxgdGcX09LR4P/KGMZmEcd5ZLzrZqxEczRjGaYxRr54UH+84eAda0q2YPD+O+ak87NCRLwarBmd5oWHCahzXi7UPcXeJoAn6Cpg7gK71ompHOdKki57NPch1Z+HNlVCZLwqjhswPrtYsOyEZtnkvs182e/E/Oqs3xJn0rIx5B4uZZHCoUa+PaqkGy2fQjkSd9NVydKZQKJwRxxbD3WMDx/GDH/0AR44eEe0Qrd0EkVZIlJVHovDyPnngXrqxJrRlyxbJrl/2spfVDXmNbWAcGlmP3Oz4Ga+boF1X3yNdzVbhp+9+97t49NFHcffdd0unk1mmCaVn3a10G6xVU/0mJZDTvaenG1u3bRNWyNDwECbHpyIhK4VMtCKvhaBbcRNGQ2QTVz//qNGC7e3ZVBYHD9wG27MxfGoIQSUQDRYWwEgREwsslyDD9YuD3YzxN8YXaoTbOAKh2ol5rQ3fCmAlbHT2dqOlLwevUMH8TB5WzRJZA7/qw2EnJJPzKMsmxMS6rR89FSQQR24u/J7OpuBkbcmwuW+/6KE0U0FQYnCNWYmJJZ4vxU7uE66FkYsX8dC3voFnXngGxWpRdUyEghc9FCJ2lbpLmc/lPtnzQEW/pBQduTFY/6t/9a/w8pe/XFao4g0ZOanLI+Mldm+sm6DNwRd+se3IcowX7Uc/+hEefPBBHDp0SJgXSpa3oxv4Sjq9N+PWWt5nSn4SFXl4M2j2CFApsFKuSHsuYRQRs4omo9wIzW3hCChJRChryURKpAO29m9FeaaMkTNDqOYr6GzpQrVURTqREpqlMBrW4UYtFnGXkTpkBI7IKoJYNTnslAJW8SQnnUDr5k60bcgJ73pmfE4ajpLMtCUh1iIi38cBZKZetX2RueXrmCG0tSp/mxuzdbKZmE07uQRKFwsICuqJykBNjZ1cW4scV6FSQKXm4YeP/QO++uBXRXHPt9Vyr7HpsoGsqVRSOdd8QFD7nhk/bw0yhBgDyJj6p//0n+LNb36zQCOmUYz3h4kV6/ByXvWQ11fQXuSQfuTIEWmw2bVrF/r7+69YXb7qSKyRFyiFKuKcR8FYJyOZMdp2ayYnGxzY8r5+0dgbN+g6jmp6bDmuBO5DBw4ik0hj7MxFeHMV4W6jppATefDWKjkJ3bizutyejZOP8s+5saCozS0Rl5qYMOil66Oc8NDZ24mOng6hQBZmCupeJGlplGlHyQMZNoQ+KLWaTqUlePuVGirlqhgbzMzS67Qs3O4de3fAy3uozXmyPx4Lm2BK1RJKtTIef/oJaT0fuHBejkOV/vhwuBTSFKgmqk9w3iuhkYa/EFlhZtVvetObpFmGWPXi7kZzn7z41+LGf+K6CtpGB9swLigpykKkyIxGy2OFCBpQw40fwtX9BMEmyTnl+USMkjjs0cBtiRs2moJX9yjW/96UkMAuPxueBGQbGzo34LZ9+1GdLmPohfNIWmnRJiE9gdS39SKCv/jqGPQ4bh2mwpHCAUFYEwa0MKvE7Ngm7OGjo7sDrf2dArFNTkyLjIIUITn/Ekm0ir4ITZKF1I7abBUzkzOoFKqSPDAbZpHQmORu2NiNXHcb5kZntPHLtVHxKjh3/iy+/LUHcOHiBZS8ihj3UjpVlABjvJR47Gbhsd6tS3kG6sG7DrZs2Yqf+7f/VlrSiWPLKjNKcgS35rUm92VBPFj/8zl+BusmaMdxKf5MNsXZM2fFfYUXiIU3Q+UxxYf1eqlkWc9VhUA9xCUNJ9aRf4vyWaRcd6vi2Fe7tnLjsquP2RpNXCOxqNv3HsCGjg2YG5zC9PAUXKRE4IhOJiG78dbhZh7ewj2PHb842kWNL6IpIim4NsI4rgUPnliCtW3qUBnV+VnRfKcapJ1UOKRWqqE8XcTc9CyqFQ8JKyl0QNYBOPf4+mpNtaspz9p/YCvmZ+dFUoC49SPffxg/evxRVP2K2nwRgnJsOIRdvGrEBdcDV3BKz8CvkbKZgudVpdOXXc8kHLzlZ99aLzLG5/7Cgv5Lu76zroK2mY+kug0NDYk6HjcDF6wb8aOrBAa1P2NwlrtsCdgnujXrC4r1icXeyPioQduSLjvqPVP5jQW2jJvGoX0HkXYyGDsxjGqBPGUuxhUPXmokIw3F+uGutXVco7kmahePzkIK2hRyEistFgEjYz7hUocInEC+2rta0bmlW7sNfaBSLKI0V0I1X0KlWBV2CTNt7k+0zAm9RFICUuyUFnRfBKU6t3XDT4a4/4v344knH8fFiyNIJB35uzrM6DUR8916F+riUSeko4JO1BZ63eteh3/2z/8Ztm7dFtH/TJu6FhkJjyzVl/BSTWjWbNA21V9VpYuexJaFixcvYmBgIKocr4929RsZnJr7XnoEjP+KoabJq0QTw8b2TduxeXM/CpMFjJ26qFZYQmg23O1G8I6zMSIJDyWzrSledyO/XijL0giG0fO/rpIl3YlieqxemmSCtORaxHS6WirXm2s0sNYduSJkWQuWLlkaVdIKFXaphAGeOPEkHnnyYYyOXVRVS66AZWj1USdUVGbajiM/cxVJUoEhF9Q59oB0tP7qr/4aNm7siTjWlgiD3erbmgvapqCgVB+9QCLI7tWkTZvi/fGiw63U+XerT9ZrOv8YUKq0MuoNubjr0B3IJXKYGBhFcaqovG3qAQoWrJJKUlOI8Z4Jtwj7LbQEl11fHQGN0WMAreu7R8JhooDIjDlia8h9Jy5I2kUu2bTRN1EBPmGnUPa2QupdwsHE3Az++sG/wonhF1S/z8ikUiEwYjoZrNkUCnksDN5khBhYk6SCf/yP/7EwQxjcGdRfyoXFlc7rNRe0zWQxF5AXmdZYLDpSZ4TKY4QOTEHupboEWumFbL7+chm38Tc0aClzRwe5VBZ3HboT1UIFwycvwKV/YcCmGy1gLhW0o25reU286Lfext4EUMO5jic+kihFvH8jiWCURxQXV2iEAVtpToG0z9fsAD94/FF864ffQgH0G1X9l0v489Fgcd8mEJOix6IjtXd+6qd+Cm984xuxadOmBZBHM2jHHrrhGktV41k0JxUD9gsvvCAGvqYox6Wd0RhZY4e/3u7fl/zx1gECwV1FwxY1j64mKWzv3yKSuMWL8xgdGEMyTGpre1QUW5xpC8KiUhjrNss2SVH8wpvExwRSOU9ytCVTZpeuqGyp1Km4qUdjIC3nNbpF4+LUGD708Q+jva8d+ep8w2cyaowxn7c4WFcqFfkTuxh/8zd/UzJuWQlEK21zbPGV90t+0l7lBNdkpm2y7PHxcQwODkrAJpZlOh55Tot5mbf6hWye/+Uy7Xq4iJT9GHtsEUpqzbbi4J4DyKTTGDsxAm+2plrR8aC9yGfZZNsvhfE291C8y7EOi0TBlubTglKK5KsWIo2dne2E8GwPZVTwhb/9a/z94z9A39Y+FMvscFzYpRonCRjcmrAHedY/8RM/gde85jV1rRAj+iUBHiG8qicsFdOR+VIY++s5hzUXtE3mzCfwc889p6T/OgbHwK3df0qoF5Tyes6/+d6X+AjES3Eqx6ozRjjLno/+jZuwe+cu5C/OYebcVF2L2hQyVTnPKHtEvhXrfMqZeyyOM8fhxngwZ1ej+EZEAZu8dsoCs4BZszx4jodzowP47/f+MeYr8yJMZdrLzdSqZ8sRXMK/9/b24qd/+qdxzz33iDkwx9sUKU1wNtm16c8wlN6X+JS96umtuaBtnvRTU1M4duy4ZNi3kvjRVa9Y8wUrGoE4mUxobkpTFuqZCCXVQrzhx96A8lQRU2cmEZQ9dfmhd4CbiJSqNdirw43M0DrlbUUHsw5frCwZ4+xjw5FmJJIMA4SJEAW/gC899Lf45sMPwUoBm/o3o1QsC7TCBwHhDt6/fEAQu+a/X/3qV+Ntb3ub6AUZ5b11ODQ37ZDXbNBm4ZHQSENydb0jiTftGt+6H0yK36KsWDnFCtGyQSTlJHD3nXchFaYwfnIU1UIZTqjZpHRKCr3vVg/a2kJOaESbdQCf0IjlYXh6BB/7bx/DfGUWoRtiY0+vdEMaCh+zagZwQiEHDx7ET/7kT+KOO+6QVvSXgiHBzbi51mTQ5kAQGqF1FhsDCImIQFITCrkZc2R9fmYEgyyUE9GuQOkPieoiScdFf28vdmzeiYvHhlCeLyFB3rak1srdrsv+UykvKsdFqff6HJsVHLXGaBO0tcMysALU6NieCPH//cWn8MRzTyBwfDgJC5v6+kXUjFAGAzcz6w0bNuDf/bt/J8Ju7GyMs0qa7K8VXIzopWsyaFPT4MknnqyL+L/UpBVXfpma71jxCMSCtmbbEbARubtQaF+kSIMA2XQar7jz5Zg6N4H5sRn1RJQWcEc7CevgLB1ilEOxdO/kio9yzb9Bg7aqm+i5a4ep7wR4/tRRfPJP/gBWiiqCNbEN6+zuQqlUksy6o6MDt99+O37hF35B6HyL6X+m4LjmB2GNHeCaDNrMsA8fPlIvOq5nAag1dr1vncNZELQNsq3fGbApVeomEtLmnXAcvOruVyLMBxg6NQhHFPLIlFAx/wYnu5Fp35pB2/CyA8x6efzZ//gsnnvhedAPmavhZMJFb1+viDaxwEhWCNkhxqAjXpA0Pzcz7ZXfkmsuaDOrHhsbw+nTZ2LSjIRI1nnJfuXXpvmO6xmBKE6bLHthtk3vRNXBYBrNYvedB+5ALp3D6adOwA0dJEB9aUYjBeVMIVJzdu3rXjwjF/97oaLG5fVh4kJJesqL981284WDoVlvZKpbhzAWvmaBeJRZWq8QZFyQaUc2YGykOXLmGD71F/dirpJHYPnC4uZwvu6ee/C2f/tzdclUUd4TTXjlfXNrrpyvZ2JL89fNjYZLXcDjx49jcnKy7sTS5GRf30W+1d9t6HsSMIyDItUTKYSEUHw3N/VuwrYt2zDw/FmE5QApNtr4xjRL+cKNwBl1BEYDW1fXu1T3KMLAGbjYHajeidLdJ9CMoazG8nYBzbUAGj0uREGPBVRFeHjcARK0APMCaSOnkiFJHdqvqFvjQdP4hfA+VtjNadg23KM0t4U1eLaPT933aTx55GmUwwp4KLYVYGNXN37vwx/B7j37bvUpd0PP/6YH7cVnR3rQsWPHpGW9oYnbLELe0FlwC+5cC9xspdZW677ePuzaugszQ1OYvTgj1mRJOrdTrlnS9Mg1PMqE2cZdb3WPoJiFYk0NC1q2fWtuRNNcS0SUUukUyuWGW466mUfKqdIRaI5NYjh8+Kj6NRQKRczNzmFz72YkQgdpJymrBnHZFdxZjyvOSddQb3RTVtaCHym76gyxQwS2jyeefxKfuu9eVKwqkLTheSUkHBv/5qf/N/zaf3wnbIeO983tRo3AmgvabFtn0OZ3g3epY0vTUutGTYJbdb/xwN3d2YV9u/cjKAW4cOw8nBqDdlJpJsJVXphp1/VJTMCuQyiXNuCY7JdGBMR9K161ngnTFNfza2JSwMAuRgSRbdjU5ARGR0dxYfgChkeGMTM/J8YDLdkW/NRP/kvs6N8u9EQWTutiV7pn+T/9Hc2DxHRymkx7+dc8kgimyU9QRSWs4L988H3IByXkvTy80EMmnUJLNou/+h+fR661VZ8yze2GjcBND9oGnTEBmqYG1BrxPOodNNzJTVfUDRuJ5o5voREwObIaxXJLJRK47cBtcK0Ehg5fgFuzpRjpREojAk/Ut8b7za8WuMZEMES8G5MGAKGtrd0M0vlSAYVyAYVSCXOlPPLFPObz85icnsLc3Czy+XkxAJCGHmqrU+o6QjJbc624be9BvOyOl6GrpQNpZOBQ8CpS3jP9m6JQGOHdJttewtnrKtc9kkWmaUJQwfcefRj3f/1vMVOehZV2UAtq0jTzrnf+Bn76X/xL0XZpbjd2BG560I6fHttWJ8YncOrUKS3GhFQK82VSNIP2jZ0It/reiTEfOnAbWtKtGD89iupsRTNYidWLC4ENL8Z60I5+kJBVd2HRrJu85mJQxJPPPIWLY6PIF/Jiw1WsFIXFUqqW4dHVhSk26XRiocXeBDX44MbgyF+w/Z6elof23SbdiW947evRkehAwmfhVN16xEsxJitr4B0TuOPHd/XrrkGbGfVseRaf+fy9OHzmCIIkUAmq0qR0+8Hb8cH3/za627vECGFJJ4mrf1DzFcscgTUTtGVp6Puil02TA8WzAd9Xrd1m0F7mFW2+bFkjYJq24iu9vTv3YGNXL6aHpgTbzthpKfpJprtgr0ubICwO2OYtZFecGD2F+798vxgIkxLHwEYzADqkCwlE9LlVYlCgEvOJov+t1vIM5jzulmwb9uzcjaybRjaRxqsPvRqtbousCmxxlVFuNbNsxbYbGj2XO8bG6UWOB4tG0bd9/MPTj+LeL3wGYTJEMSjBci3xj3z7v/95vP3/eLtCSdrl3txu4Ajc9KAdZ4/wZ0IjZI40t+YIvJgjwFDV3taOO267HZPnJ1AYyUsmyyLipWDIpUHbBEMxWZIVYkPlrub4+PL3v4qnDj8V2chFmXs9gsbrNRqujWOOBmDjHEOnJgfpZAoH9uwXPNsNbWzdsAW3770DKTsBm5opcISZIo1BEriXF7T1AaZBmysPMckVB7IAJb+MD//BhzE4PogwA5T9ChzHEqPd//5Hf4z2lnZpNRXj9OZ2Q0fgpgdtWU1Grhb8/vTTT0tHVXNrjsCLOQLiVm7buOdV96A4UcDU4DSCogeXfLZLtkbQNnE3iqs6l8WMOVD7MrZz2zV89LMfR76aF4Ek5S3TAb4mgU/z4gaBWjJkNfySTdgnhE2EDegglUpr0CbHnFKpvo0Duw5g5+ZtSCIhzUFinxbtQRzYIzC7zhxc4qwMFMl6kqpoBmLAW0EVD377QTzw0FdQdWqAG6pJrwV88AO/jTf82Bv1aEUNsZlo3+h5e1ODdjxYc3JTXObxxx9vNtLc6Kve3P+lIxDZir3ijlcgY6Vw4egFhJVAstbIYTn2ngamvbiwxwzV8z1YDnVLaKUY4szwOXzq/k8hkUvQWhEhTTwE/qOlgEZrbZSJlS7p3Rhl+abZhvl4aNvSLn5g337JqslioX1a6IV4+e13Y+uGTXCDhBj0OhYfOEbwSp1mro5cKEyZcJPCVIELnBs7hz/60/+Gibkp+G4gno81z8MrX/kKfPKTn4RPNyn6QZLLbVEjsbndyBG4qUHbZNnydLYsUI716NGjdarfjTzx5r6bIxAfAeppEDvetmkbtm3aivPPn4ddbhgixF9rMl/zu3hDi3RQklctAv4ah7/0tS/hidOPwc1q1i6FQunIpMaJgUaElBftUhBpKSoabETxaQLhFpKpFPbv26cBm08BRtHAQmsyi5cfvAvduS4kwoQ6p1Nmth6plce9uLvSnIdJoox+vdSZXB9/9+0v4+vfewg18akJ4NWq6O7sxHt+693Sri7FU4q1hgC9JtXbvrndqBG46UHbKH7xBMkaYQv7TW7SvFFj3dzvGh4B3yKcAXRmOnHHwdsxMzCD/Nh83cVmcdC+RPM1egEzawZW4UkjRL5UxGfuuxcXi4NIZF3BpAWzJvTguNrgU1cSNPBCCIdFx4ZSlTwIBNt2LLipBPbv3QeLuHnEFHHdJOxqiM50O173stdKR6fLTFsCdyOI8sgW0hcbZxY3R+DPyWQCw1MX8fuf+QQGx4ZRI4SU4D4DvPZVr8H7/8v/jWxri9ASRTkxsm1XmmRzu1EjcFODtkzYaEnFn5966inQsaYZtG/U5b4197uUVILRxKg7hofqGJ5L5nD3HXfBz9cwcGpAYIa52Vlp9mpraQU50gy2ZGmINZmw9Jg7q3ei4yRQZvNMwoJn1fDC6Rdw/1fuRx5zSOeS8jqvVhMYwXFd+BH2LUl1RNyQDDrCucn+E40UPgTCQN7Dhpx9e/dJFBdmie2IHCqZJGxS7N/Qh/079iOXysGxVPRKjjA6Xrm/BErn0UQBtk6P4d8s6cBke/wDD30ZX37kK3DSDkqVMmzHEYGt9/3f7xMDXlkp0AowoipSOTEuG3Brzrgbe9Y3NWjHl2XE0R599NHLujff2GFo7v2lOAKCGUfUUcGNo0JZnOZnAjqDH4t3jGUH9h9AJpXGQ9/4Jo4eOYqJsXG4joMtm7eis6MDmzdtxvYNW+D4KigluHdgwQnJ2rBgJRwU/RLcFgdf/9438N1/+C6QhARbOQYpVtI01xKWh1L9GqHOkO7MKpTSDnwt+xWoTU2rLnV8CeEHoeDm8n6Rk7Ukw25NtyKshWhvaUNP5wZ0tHcgm0wj6SSVlcdxCWgEwQeEgxQfIDVfiqikIVopG2cGz6nBQTgPO6HBnffpj//4j+O9732vUHGb24s/Ajc9aJsbiJ2QR48ea7arv/hz4CX7iRqk6T2oovzGAovfKY1gTDUYFFkYLJXKcN0EivkCHnn4EYyNj4kgE7naba1t2LFjp8ARDG45mwyOA+jt6YMVWEg7KZBQkXJTqPoefDvAnDeHv/nK3+D04Glp/861tohGPIMv5338Z/PwYDA2RrttbW3YvXs3tm/fjgMHDmDb9m1Ip9Iol8tSsOfKtG7FJ3C3ilDxGKslD165htAPlWseQlYJHe3t2LxxE7q7utHe3iEBm/K0dOphWCYkUq5VULNCfO4v/1xEoapWWZqBeGwtLS247777xCqsud2cEVgTQZuT9MKFC2IvZmQcb85wND/1pTQCAr+FoQQbE7ClDEjucUS748/5fB7jExO4ePEiTp8+jWKxJEGcziuOrd24XZ1d2LZtm8ARsk9qbbP4l2vBpo196OvqQ0umDUmbuDX50T6GJobw2c9/Rgxv7aQDN5moryQZuOniQqOA9vb2+tfGjRvBr76+PuRyOTl2KQwS447Mb5nhkhb7zW9+U+pAjg1hXhG6IFQjSoBBgEK+FLXpa3YfRmwUl4gGbCRTGeGmd7Z1IpfJoi3Xgmw2g1Q2hXMXBvCnn7sX0/PTIhLFDJxjSLuwd77znXXn9JfSfFkv53LTgzYHijcBb5bx8fFm0F4vM2ddHGejLcYkA3GjWTZxsZmLyQI1QNh9yyDJbFWdwbVThLBtd3cXNm/eLAGUeyXzw6tUBTZJWK7ob7ObctOGXmzo7oHj2nj0yR/iqw99BVbSgp1wccedd0rg37p1q0Ac6XRavrLZrHw3+PrioTUPHwP3mL8XS0V85YGvYGjwvLJNXFeOm+dIUapCsSQ4OQudAofwVTUfTqCuPXy4WHAlMyeswt+lkgkkUgkcP3UMzx8/GslPKd7Ph8vv/d7v4bbbbmsyvG7i/L+pQdssCateFSdPnBQ51ubWHIHVGgEzv5h1mmBNVyQmBwzWQ0NDkiQw62XADEIfNY+cY0cZHSKhkBTIrqWtVbr/aKOlAd0U8MjysOES1/YgAbynuwcbe3vwwINfxsjECCq1Cm47dAjvfe9/kQBtYJF4TYc/G1gkzqiK4/DmZ2bVZvXAB89Xv/IARi9eRCKZQNXz9FyZaReLko6h5QAAACAASURBVKGrgqDuX76Emqd0FOp8E49XLNyWZh/btXD0+DGcHRyQomvg+8ikM3j961+P973vfZLVN/Hs1ZqlK9/PmgjarMyfPHkSxLU5SZoGviu/kLfCOwx/2OiGmECn4mKqix2HRDT4OZicnMDExIRAcKSUMnDHGSXys8AmEYzAnDQK4iaAtnV2YNu27fo+WR2qoJPqqCqDhJCJE2imXiyX8MxzTyJwlAL41re8FT/z5p9ZMkO9kuVWvGi6ZJAPApw8dQpf/cpXoz8rP5waJ7yvjIaJslO0GKsel2ZTtocUJ0WnKoDt2njh5AkMjQwJu4VQCrH0e++9F/39/XXG160w59biOd7UoK1LzwCFQgF0qyFO1wzaa3GarI1jqgcdi8XFmmS91PhgoZGZHzNABnTXdeTvDNLPP/+8YNUG0zZBffEZiYVAFNQk+Ef/ZoQmtt3V3YXtO3dIZp50EwIzKOc5plnNlnLqlcBGoVjAs4efFSEoy7HwB5/4JPr7+uvZtPn81fBI5D10/PgJfO3BB9XJplaThwrlXeXBJoIo+okcG0rDGhsxw1SR9nYWMaNs/NTp07gwckEyd57RO//jO/HmN79Zjp+dkq4kV83tZozAmgja7IQ8ceLEgmr6zRiM5meujxEwMELcf5DBmsG1UMjj/PnzYqQxPz8vSYGBNAyssFSgFJw6UmZSCp6OBZkXLCC2tOaExWESDQo1mUYVEXeS9Jtcbc1ciTc/9ezTErR37NyBT3zk48rsMKuBqD9hNUacDy4e+iOP/D2ef/Y50eFm0Ob5K29afHckcBPqsFzyqrUBiF2WRo9EYBPKSVQ9DAwO4NzggJzLrl278NGPfhTd3d36EGgG7tW4bNe8j5setHnkLARRjpWbmdTXfEbNN75kR4CBmcVCE7SVqwxMT0/L/GFmzQTAuB5p16ERaFpoLLt4kCS0MZD5GgBp9sufZB+ug7a2Vmze3C+4MSl/ogAoQU87DBm4pURJfNiyUcjn8dzh56Tp5Bd+4efxpn/+Jm1gj5ggfM1qbiyWUqf729/6Ns6dOysPm2IhLx+hXpSaZRPc5t9UlKphPSYPLRVLkfM6c+4szl8YlNXH29/+dvzcz/2cFmkjNs5SDUureT7NfV1+BNZE0GZWNDU13cSymzP1iiNgGmVoMMuN2uvkK/N73PE7XrwzvzcB5/KU0kYQNYGVqncM3sw8ezb2YOeOHXXYhMp6krnaAdgCzyAoXdw+RBmwMJ/H888/i1xLFh/68O9iU1+/CkRFpgareakZhE1hlBzu//k//xpDQ8MCjxDG4BdtzAwfPUHpVgZvaT03Yqwa3F0pUIY4ffYszp07h56NG/H/t/clQHad1Znfvfdtvai1W96RJUu2JQzexsbYYGxnYrDNEMyQUDUBAoSyIRkcJpWpImNmKjOpmlCZqngyZIGpyVahsoGNwWAbsGzLGAyWvAiziNiSLbS1Wi11q7f33t2mvvPfc9/fT912d6v1Xr/u/9qvuvX6rufe+/3n/853zvn85z8vST1G3+6b/WRSxPm8DrevmVmg7aBNT2bnzp0ytXWLs8BrWYAxDwaryVEzcE0Pu3lmxufJTlQhSHNRIFcv/aTjSOAx+5bT/3qISqWMtWvX4IIL1uPSSy8VsNq7dy+Gjg+BBfAkAOqzU7ppW0BPu8DaImGC+kQVLzz/PN582Ztw96fvRndvryg56GFPpQg5tTtvZgQyKHgeBo4OYNtjj0ldeiqyWBrCL5hSq3KOxiT5DEEHHG5P0OYgsGfvXry6bx9+7/f+M26//XaJF9gdpHSWc2rn7baeiwXaCtp8SCj327mDmV1hzj3qSzY57dgoBPQ7kWjlFdLmculum06wgIIRYx5MJCEI0ZtsTkWfarqunq2uy+ud6rkxnrVpXEAqhP/euGEjbrjh7cLnnsm08QILJaXCE+995RW88NwLODo4iHoUolA0RaD4d3LIURiJhvtHu3bh/b/6ftzxvjvy2tq2zeeTYqDqQ7TYWR/JiYlxjI6NYWx0TDI7yfMfOHhABhxTiMrw9lpI0GzHmuKGctrz8svo7unBn/zJvaIhd8vCsUBbQZuexzM/fCbXfVIzaqakxitQUDZJB/wYtYl6T5oOvHDM6c5kPiyg6ed6vzkLe/LJJyUBazaLBiqVklBNtnLd+ozx7wxWUoGydetW3HbbbXnQsTnoqc8mv6fiaceOHSIn5L5VHsi/URHFgebTn/40rrzyytmc9rytqwCugxfPj3z/j3/8Y6E+COT0wrlokFbpo4MHD+LXfu3XcPPNN8/b+bgdzY8F2gvaSYK/+qu/Eu+FSQcrV66U1F3+zpfI9opsr0k6WlvTtfmQTc2POd1e5sMCthetzwBBm7GP2S4K3Aq2zd42s/yYpUiwvuKKKyR9XMFXf9oesbTgyppOc58EZ1ImnAUwEMoBhuvze2rCqbro6upqSwahnrdtT4Ky8vs8VwZuGRNgwhF/J+XEtH46RB/5yEfknXTLwrJA20CbDxIfoC9+8Yt4/vnnxcvRLC+CNovlsCgNZUb8EMTth4+gbXS6dn+9hWVcdzZzs4Bm7omUjaXoAAk48jmZzSIcLqmPJBEQUsAmN10ul6Va3bXXXisabBaE4tIMcNw+580zhYi9jj5/fB4JeozPMNuS/DuDdx//+MenTU+fzbXM17qqU1cb2944QZzUEz+FYkEAW+mS+Tq+28+pW6BtoK2n/oUvfEEedD5EfGjolZjkABNc4ctGTo0e0dq1a6WYDiuNsdBOVpHy1K3g9rCgLMDBXJUKCrxMkmHpXpuffr2TtuV+XJeDPJ+ft73tbfilX/qlXMmhwG7L2eyZnc7k7PTyqfhoPW/y7t/85jfx5je/Oa/T0Y7ZYDNA0wYaDM0Dl1oiNuPCReYYG6mkvpO0m1sWjgXaCtp8qP7iL/5CmvnakWmax37I7YePDxuro73rXe9q27Rz4dy+xXkmBkQpj8vacvm+8Mfbt2+fFWgryJLyoPqDFAhLnNIJsKmDZmVJs8LEBuup1CfTPav2uu0A7eanY6pr1tmF/m2qAWpxPmWde1VtB+0///M/x65du8SCdiBHTWpPcTml5TSUU9rNmzcLvXI6dK+dezsXx5mrl6uAQiDZs2cPHnvssbx+tNaRVi+ZnqHqh9UKrEXNwf2iiy6SAV4dA/fMLI7nZKleRdtB+y//8i/F0+Zia27tF1c9b9InmzZtwpVXXYme7l7XMGERP7UagKTHzUw+arPvv//+vIaIVu3T54YDOGMhpM04oJMC4bPS7EEuYpO5S1siFmgraNPGf/ZnfyaeNl8uu9axrRzR38ll33LLLUKPqCpgIUw7l8iz0rLLNAN21k5L+FVf9Nn/8i//ksc67Ip+fG4uu+wyXH755aKrZgBQA9c29zzVTK5lF+UO5CwwTxZoO2jfe++9Em3XKLyCsQI4p7Qa7edUl6oSLtR0F4umbZNbFpcFGkDbSKiiouFLX/qSDNbUFpMOoTz0mmuuwXvf+175nckizWoH1WK7tOvF9Yws5atpO2izRu8Pf/jDDIhNQfpmfSxfYmpoGUjSxAs7O3Ip38DFeO12AM/2uqnpZ1xj/fr14llTnUGvWlUftr5aKTWdielAoOqJxWg3d01LwwJtB+0HH3wQX//613O1iEqRtLYB/82SmAw+8oXVwBOnz8yedPTI4ntQdbbFe5z1JZD4xZe//GXpT0jZHp8FTRKxgdl0oDE1Prg0J5gomC8+q7krWioWaCto84Xatm2bvIz8XQvb20V+SJNw+lsus/6Bo0I6+cG0M1kNoDL4bOR9BGWTtUh9PrP22CDXKIp0oKb2+Q//8A/FBJoc0sn2cOfuLDAXC7QdtFm34Sc//Ymkzx4dMG2hmFnG1HYC9o033iie1VTJDHO5YLdN+yxga4Cbaa7JKg/DZdvJU1z/iSeewGc+85mT4hhuttW+e+qO3HoLtBW09XIleQapVEdj3QN63Ozjx9oN6mVNldTQenO5I87FAgqqnEFxINaiX1oETH/qDMs0C2gkWGms+bnnnsVdd92Vp6Rr0pXTXc/lrrhtOtUCbQXt5lRau5gNPe0XX3wxr/bnekd25iOm6h5DZ7CAfiiV5ijb1L6Nhu6QLo059aHJM7oOqRMWZfrQhz6Uz7rsTMXOtI47a2eB2VugraBteM0GT82GocVCUSqksaIbpV18MVX+56bBs7/B7dzCBmzeR86eCLxsL0f1x1lnnYWuru5Mc2/aiPHTaNrbaGjAgv7PPvss7rnnngVVgKmd9nXHXpoWaDto28DNF5ZZj3yxyWtrUo0t+1qat6kzr1pBm4MwZZ2sh63tqlgLhAXAzjnnHCkAZrcBo+yTA7bKP1nd74UXXpBn42/+5m8E2FnOQKgWSynSmVZyZ+0sMDsLtBW0+VJrQXp9wff9Yh8OHjgoQSiqCMzUOWuNPbtrm/XamjrfkB0yecc0Y1AAMdy6DDX5/hcz3670RLOszly8BgzTzEtm5xSj9iAFwpgEB2A23SUo27OqN73pTbIH1gRhFmODLkkE2JlM84tf7BOwZq1nVZH8/d//vWznAtOzfrzdBovEAm0FbfWSNKBEBQl7/xkJmDZCaq2lNfCpoKBBLtUOayJHg9VZ3DJEHchswFUuWQOH9Hi5kNYg2CoFQiWQNgVoHtgUtLVrzLnnnos1a9YK6LOjCumxAwcOyP5M5yIOECkcaLf2fXBHW3gWaCto2x4Tp8M/+MEPcnWBbSoGqU4/iFMvbJJ1Gok9ZuDQoBjBiSCkfzfBM3p9hntt5ayg1Y+SXh8BlLMO0hNMcKnXQ7EbPWty1ax5TaDVWtY6yE0F2uo968DAEqrqmZP/ZglVrd6ntnWg3eo774630CzQNtCmxE/+z5JqTHftIZF6NS+toB80CKbTeP03sZhV5hRgtJeenqMNZjoILbSbfCrn08hONN6uDbS0BQOE7DdICkS7ozdsx8JPpgHzVKCt1IsWf+I6DDY216/W7XkdDrRP5W66bReDBdoG2jSevpycDrP0Jr1tre7WauOqt6cenQ4mrC5Hz5Jednd3j2TwKS1gV5ozvwtst/rUT+vxNAis8QUNJBKo2biWFAhba6nKRwOKWgCMttPvmjltjWmodpsXwjK9dscZuxmvA+3TeqvdzjvEAm0Fbb60DT22diphUGuy9VoRdNIUa1YPHB0dEaUDG7bSe6TSQRvDsu0Zg2f89PT2oFwq55yrzX93yP2f8WlqMJYeNZUg9LCnWuxYgAL3VLw4OW076UY9cbYV09mOBn+VYuH+6GkvdipqxjfFrbgkLdAS0LY9LJ1iE+BUt0s+1E6isNef613R/XFftvLDTLVNIodKDDlwUKHADztT87zIYyuoEGAUeLRbjoITwZzcLus38zj8nVwsvUd+x8/UZUGNJrnB1XOkMgHYxvdmHfPhzMQOzpr1bZrGUBFmnflS3NiUCPn8Rx99VKiQ6bIQ7QHWpkSUZtEiT2984xvzgdA+V9Ijeky7aJja4W//9m/lkptnOXN9Ttx2zgKdZoGWgbYtGePv5EMZdKIsjEBnF4maD9A2L7kBZ6U6tNs7/00PWlUOHDRIzfCcuB3Bl+voOTWDtl6L/XOq2QCPZ4O3eOc9PdJhxVwzBxDzyNjcuMogdeDRmtD2YGPTOM28utnjZFCf64OpHjZtQarogQceEDtNd4/s2IB9HTy+Dnj8/qqrrsqVIRps5KDA2IYOmMpl2wOw1tTW2IIeb67X57ZzFug0C7QEtG2j8GXn5+DBg+Kx6dKs1z5VQyqomCk6C+dXhYohf07agwBkB8JsLTZBQ705gkIzaKsHaIOt/q7gze3UG1RO1wZ5/s6GDgRwJpeoR85tdHDR9fW7KKK6pQHy5u/GC9frNfaltv1ULTh5e9qHgEpPm4PadIveXw5WOvCpx83vaItVq1aBEj/uRyV9OhvauXNnPtNQPlzvDe3Amtr6b0eTzO89dnvrDAu0DLRtUCEfSs5YPVnlLJuVGadiQr7gzKqk1pfePD1r/tsG82ZP2eZjeWzlZKeiR9TTnWpAsv9mA4tNF0x1bQRuApt++G965Poh7aL7sAcHBUpzXNU0c7Can0VnLffd9xWxJ89HbTPVEfQc1QtWGzBtnZ1mGCPgvf7ud78rVBT/rl41sx91wOM6vGYGOtetW4cbbrgB7373uyfptp2nPT/32O2lcyzQMtBWkwwPD4unS69Xp8X0qPjy6bR4PvhY0h3f+973xDvUxVYxEBAJFDxmc5fu5qn/VKBtn6MGzjhQqHetwN0M1DbA2o+Jgo+9vc1v6/HomZNiYQYhA6GlIgOh9OqDvNHxfHqgOqDyfv31X/+1nDJpnkZFvsZV6DUozaR/Ybr6Bz/4QVxyySUyIOl6VJ7cd9998ixoAs0zzzyTq4qURrvjjjvwzne+U665mXLR+9c5r5w7U2eBU7NAS0BbQYQv2J49e3Dw0EF0d3WLt6WqDFsydmqX1Nj629/+tgwQfPlVOqZAyGM3aIcoP4+pPGi2tdIKhLZm+PW86KlAtxmomwcIexsb+Pm7/TfdjgMOQVQDoAT1YtEEP6kv598NnTM50Pl6Xr8eT+V3P/vZz/DII48IjTPV4KTXpSBPgD3vvPNw3XXX4eqrr86Tlpqvj3VJWCebgyvvCdUjtDHbiG3avAm33XqbdC6yZxYqFdXv5ut5cftxFugEC7QMtJlMs/8X+2V6rRmGp9NApAm+9a1HBLRnu6i3y/MkaHE6ryCn4G+Du07vbUXFTEBxtuf1WuvblATPWT8EbQItaQZ+DKgXraxOkwGqXLg5hlGl8DvVZdMjppaeCz19tQ3/zgAiF4Ip+errr78eW9+4FRsu2CADynTgqnbj9izDu337duzatQs33XSTBCo3btwog5Eu8zEDm0+bu305C7TDAi0BbQIdp8IEUPVwTWr6/PGuzcabLWgr6Klemz8JcgyUsYyoAg8Bj9/ZIKmep6o8bA/Z9sxP5w3W82k+ni2NU2AlSCuAq5pFCzbZPL8CMr1htoRjTIDr0RYcDAi2pKEI1Dzu7e++Hbf88i2TgNr2kJuvn7VnOD7wONzPd77zHWzevBkXXnhhbl+u46FRrvV02tDt21mgEyzQEtAmyHHaG4YR4jiaVuM7nwabLWgr0DaDHkGHoK3f216j7flpYE5BUqfwrfK49Vya6Rb1mPlTZwLKq+u16DmrR64/JQBaKstg++R3n8yzHpV/JvCzMzo5/7e+9a1YvmK5AGwzUKstmu+vrse/6znpOdrnas9q5vMZcftyFuhEC7QEtOmpsYEvPTJdpnuR58uIswVt5b1VzqcgQuB6z3veg/7+fmmFZgfZbHDS9RUc9d+tmNLbihIb4FSFoTREM02hAK80iJ6rgiiBk5444xD88N/0sAnWBGr27yRo0/u2VRy6X1vGOZUd9LzsgLQ96OQDHluPCSfvFmcBZ4GWgDYlW5xeU49M6VZzPYnTcRtmC9qq/SVIE0QuuOACCaAxCEk9tS7kdQngVMGolJA0gYISr1WDca2iRvTcmoN8tketQVfb87aBVmcKNj3CdXmveJ3Ut3Mdzjo+/vGPS6CQC+mLwDcFtZoHDD0vDeJO5Wk3z1zswdwFGk/Hm+H22ekWaAlo86XVQNaWLVszyZjSJKaQvj29n847nezZmpKoujRvo6DNwkbN1IZ6lvpzxYoVEvQ6//zzJelj/QXrsXLFSsOrIkUSJ5NSrm3Kg543PfATJ0akZglnFZSw8UMNMv9NeqgZUJvPW89xKq/ZPt5refc2eDfvv9nzb6ZRpvOECfYcpKirZ92Vu+++W7zs1zqWDgxq39d7Sexr123t83Hg/XoWdH9fShZoCWjToP/8z/8sdT1YM5nAaE/JG1XzjIphqkp56hXaHbuDwCSSNJJyTE1spof//Oe7hUdn5iMX1WIrQKxcuVIUCldeeaV4/1Q5aPLK63mI0z0gdpq2Fv/nudH7ZiCW4MfPyIkRjIwabbJSEeql6neaUajKDNWy25SGDcy6H6VExAvOuGL+bsv0mgH7tR54bsf7Rk+b9+2ez96DFctXLKV3xF2rs8CCskDLQJv0CL1eAuPFF18sIKlApQCjgKNT7ZMtZVK21fNsVINjenQk3i2n8ux6wgxI7TPI9eklckq/ZcsWXH755dKbUKVuOiUXQPfJngqJOiceVeuET3WX1XukXI4eODNDeZ4EdHrlBHetgULvXBNHlG9v3qcOZHYQ1PZy9e820M+WY+e2tCk57VtvvRUf/vCHc7nggnqS3ck4CywRC7QEtPnikx4haHNhhhzpCK0/bWcBTmd3e6qtmY3cTgsZsWsKVQ6aFk1wIjBv3bo1pz1Wr14tmmXb05wqWKZ/nwvA2QORfRyd4qunLx51JmdTUGbhKgI3P0qx8DsCO2cMem22jewZi+1tN69jn9dsn20F7c997nMSeLT16LPdl1vfWcBZ4NQs0BLQJpjcf//9AqqarMHSnKQobKB5Le22AlsUx3lxJQIZveqXX3oJ1eoECoVinvRBs9x1110SOFPaopkntcEnL96fBdZmC9hT3Qabi23mZZu7iDdz2jqb4Pcx26DBZHUSwElX7N+/X36ST9dF1Rh2gJF/a5bPzeaRIS3DY5Gmuffee+et5OtszsGt6yzgLNCwQEtAm5TBV77yFezds1e4ZYIP6Qp623YdC01pn+oGJUhFpUDKgHWvWSFw7yt7hWYgSKlUT71vJCk++clPTkqM0f3awT6eG/c7lXc92wDYJM+aNa0zmRqPpxRGc3DutQaH5uPb+9ftyJkz6UULYlHVQiAnvcIPPXWtWjiXB5/HoWLm7W9/O26//fZJrcDmsj+3jbOAs8CpWaAloE3AIj1CCkO9Xp42ZXUMAja8TAbm4vyKbI+RHvb+A/ulxRVBityvrQrhRjbwBp6PO++8U/hr/dt0Cgn9frYgPRfTn+5jcP8a/LSBm6BOQLf5c67bSGE3jRPsAU1/p63JZZNuUhWKXZ52LnZw2zgLOAvMzQKtAe00wT/+wz+Kx6agQg+bXre2nVJqhECh9ZpVFUKv+oVduzB4bDDXQKv3OJ2nqqBNemQ+qI65mXfhbKXUiapTyJlz8CP1wdrmBHVSIM12pe2oGrn1tlvRVWkEj51NF869dWeytCzQEtAmYDz44IPYvXu3WJegrIBMQKAHx0VpBK7PKb7qg+kdktdtbpmrnuBUt8yB9slWmYpeUc+ZsxZSTQRvBjz5UZqFVfY4+OlCSsmXrkBucRZwFmi1BVoG2gxCUvan+mOV2dGzu+KKK/LgIqfipEDYCkyzCwnwErgLgkle82tlHDrQnvpRIuDaKeESCM6+U+/Zpkh4P7hQqmkvztNu9avqjucsYCzQMtDmS/61r30t97ZV5kcQZ5o4pWSs2cyEGLtHIH+XVlyFAEnW4UR5cZ3qO0/7tR9n9aZ1NmMHRm0euzlAq4oVTUyy+W8n+3MQ4izQHgu0DLQJHORR/+mf/ilXNKj8j14ctcCkQezEGgUU9QaVHrHBYzqzLWRPu5nmETA9Dfd/OjrEDrxO5z3bQV3+TnqKKhtdnKd9Gm6Y26WzwAws0BLQ1vMgzbFjxw48/fTTiJl9qN1nPYiMj59CYDzq5qVZ1WCDh11kSAeCM9aegbvuvFMSa7jMr2qDhAJpBi6+ybp/LSTWEik+kLAJb7a6bqLssP7k96x6koO5vW/PbM1dmvU8+DwHtzgLOAssCQu0DLTVc2PqNmkSBrzIpjIvndPvA/v3S/BLAbbZ+qpv1qm+1nS2PXMqUs4+5xxcf911eMvV1+Td1knBNBclOrW7K2WkMm44A+0Z7jA1Xb8aGC8g3Fikv7quZLnfOkQomOs+NOV+hod3qzkLOAt0uAVaCtrqLbO11MMPPwyfKpIoRHdXlxQkolpB+eyp7NqsIxYgDwJ0VSq4/LLLcMWVV2LDxo2olCtI4ziXDuq+mhNb5n7vFGgNhBqP96RhptG2K4Non2uJi2ytTdD2UqT8ZHvyk4LZGb1yyzPnV0JQqJvNA9PJdo723G+l29JZoMMs0DLQFqyxai4zQ/LlvXvE0y6XSrlWeDr7EbAJ6AReeub8Sc/66muuwa3vehf6+pbniSKERJ9lVVOTMDJVtuMp36cMqfnDsB/N/Ijxjc1HE4b4r6zJ7kl0SgJ4uh5Bu2kYsNdv3taB9infTrcDZ4FOsUDLQNsOitE4TOj46le/ilq9LgC7/+ABDA8NwfPZO/JkgjhNTJNZNqZdtXoVLrn4Emkgy1KvkzulcxzI+k8K+2LATwF83gJok0B7Mqmdp6/n4rpG3e8Ufg7vhgqxHhXZZ5rx3jboZ+52tiq9b+6RH+J1cFrCmJ3yCLvzdBZYWhZoCWjbnq4GDZli/fjjj0vBJy4sfsTkDrsLjH0rCNgbL7wQb732Wmn+yjKr6kVPpYbIq/dlGuR597ZzTqRBayinkQNxBsjpJNp7chiSYUTDYWco7AGxb9YxXrqy2Y1V1LtnTICUS8HB9tJ6a93VLmkLtAS0p7Mw1SKUANJTJqdN0G5OmKG8j970HXfcgYsuuqiRnMNkG880QWjPoi6y5XILCa3uMHt1ZWyID0SIkXoJYkQI05rw15QlBgK5RRTSogFvus9ySWxT7gnXbShsBe8M9IX64ar0sx0/0p5nwB3VWaD1FmgraBOsv//972Pnzp3iabPUqjY2YAuwSy65RLIlL730UqFGNBDZejM1H9GiQwSkGxFD8eiV92B1PyQIUUPdq2E0GsNAOIDj1SGg5KGrVMGyYBmW+31YhmWopBUU0gK81FyrSB8FuM1gIOMTaaJMgZJHQOULtzgLOAssBQu0FbSlVnQcSysyZkIywYY1tq+77jppA3bWWWflLbm0ecG8c9NzustKUChYW6Dpp4jFn44ywA5xLD2Ko/WjOF4bwkShhnoxROSzRraPQhygHJawwluOteXVMYNyiwAAHndJREFUWBmsRC/6+Bc5MxO6pBI7gN8sJdFzb+S8zOlq3EbOAs4CnWOBtoI2zURFCKkRAjc9a9ZtZq1teppMxqHGujmxpn2UiLmxhsU2fHKuySMb4sWIvBAh6qiiinGM40h0BAdqhwWsvQBIg0QAXUiPFCh4RaFI/MgnmY0gDLDSW4VVlVVY5S9HxSvKh+uUUBQw9xIGWk3rNVkcO9I5b5w7U2eBU7RA20CbHjMBm6CsxfpXrVo1qZON4JGlJrHBet4Di7MwpK3N1qAjnWD61xOYwFB6HP1RP47GRzGBcYTFunjWAviycYa2wn6oMJAZNxwIfHhxAYU0QDEtosfrxopgBfq8ZVheWI4KulFCGUFq/G/paOnYkVncPbeqs0BnW6CtoG2nn9OM+b+tprrqbevf7QQboQ+mRSxbS/f6qDYpQaaRO2Pd3cb+GBJssNr0mWOEiDCOERysHcTh8cOolauoFauI/DCLSBrfPJVAY0FkiZ4oAVV9EsPnCBAA9TSG55MO8eFFBRSTkvDdQqMUV2BNeTVWeH0oo2SCmChmCe1GbGhX8dMj6IXYfzNXNFmdMkkfPskonf2gu7N3FlgsFmgbaJ9eA5o0cyPlMN6oCRZOc9RMtCEsgy25lk2MSiNNTQlTxvwIvnEK1Bli9CYwkgzjUHoIg/UBTPgTiH3W/s40H8Kg2OjHZB8ziEweSrLMSHHENTfSrCWBydQT7zuIA/ixh5JfxLJyH9biDKxO16IclMD/AuG+s6CtHCGVsrbqjsvfRODtIeFxOEDkg6SkJeXilTzQ+fpj3um9nW7vzgLOArkFFiloi1+eXaTSD427biB0clYLgdgsDY20ATyCaAb7BlcReTEmvDpG0xMYCI/gSHgEI94o6sUaoiA04E7OOftwewPcs1mMCiV3+uW0KBMMhNPm5XH/5aSMbvSgu9CNXn8ZlgW9WO71oYIu8cAJ4szWESjm/9n4IXVf1NPOrq9R38Q+8GzO2a3rLOAscLotsIhB+2TTNZxoFnsyiw3eBK2poJ6eKr1SpRZO4AQOpYcxMHIEo+ko4nKMelBH6IVIgswjT4x3TPAWz3nGoJ0BZlbNr5mh4P7IZUtlvwSIg0Q8e4QpilEJPehBX9CH5cGKjAtfIQDOQGbmdyNJI6NGYfeZ2DjhzEQ1Q5YWwlL7OTf7dL+Ebv/OArOxwOIFbUXoSZVTlXawQbvhXRsID4TlVbD0pF5KiLpfw/F0BAeTIQyGRzCeDCP2DWDGQYyEiTMZ0DLQKF62UBsirm7KV3+NWyTbZT5wU2qlqGiS1AwGmRvOAGdUiI0oMPERRIHICEtJCeWkgt6gF72FPvQEy9AVdKGCsvjfRdGiFOGJF+43uBrhTpTt5tcEcwfcs3mp3LrOAqfTAosbtI0rbdHUjRoghr+eAoys7+gd17w6jmMYh5ND6K8dwngyirgUCVDHKT1oiYaa42QDhcmtaejw7LDl697MDOwb6zW8dKNRz1lnuTgGb3lV7Owj3LsMMgR2qlA8AXKfXLhXRNkrow99WFtaI7rwnrQHFa8baQwEmaetA4xWDDfDgwPt171vbgVngRZZYNGD9mRcNh6kgJB64lMpRbwYsRdiFBM4mA7gpeo+jGIYfjlC4EWoJ3VEARPIAylEZZIgjUea1xFp+MvZbzPktNVDtx4A1ZeYHWU1BbMKhqLxTjk7MCnysRfBC0wmJoOnvmcCk2nMOUSAoFrASn81KicClMe68Mb1b0Ip6GpAs8hbzGBkCCHzn1ucBZwFFoYFFi1o29y0zc4SvHKZoAXYZv0EkV/FSDqE/mQAB5MBHEuHEPmRcNK+uNLkqGMkfpJV6GsEHLUQa0ZuZFz2zJkR2a4JtG2hofyuFEw2UZCAJ5NtvEQ+PC9bfeLn3DpVI3TTfZSiIrqPlzC0ewi/8o5/Dy8tSYCT9Qc9Rl7lOFSXmAHOQfbCeFndWTgLGAiYqg5qh9uGsGNIA6USCKyNktfyq8UXM4sxRYQRjKE/HcDBsB8n4uMC4BAQpNdJr5r54uR/Gb2LZZ+Gu1ZgJqBnyms/y5sUxcZsYE+VG41tGr9ZVEl2QQrapqTryQFPPzGSQZH6Aah7oXDbR3ccAg55+NB7PgoPZQlM0l/3RS6jksBcLNnhT4Q7fWeBxWOBRQraJAuMx2iyBicrAGOptif19iSlnEnnx9N+9EeDGIhOoFqoA0EMnxpmcsQpvU4fiWeClCQffMoucsC2/OFMl63ebkNzMpeHxkRRbdGiadGm4EyQNYAsTnrmiU8mYszsQAeWhLRONcCLD+zEuvgM3PXrdyMWXTdhO4FPekQ88gCx8OcuDDmXO+e2cRY4XRZYpKBtvN3c07a4EtYHYdW9GupSG2Q4GUJ/vR+DhUFESWjAzSckpxJoNFRKQ02R+Jl6Q75qaJ0ndzMQ9DS5hrlmb2acdmMWYCtQGsAp/rvKAQmqBG1SIFZuo3j7cmhDlTCbhj8l4TIuozxcwlf+15dw05ab8JH/cBdiE92Er6AtMsXAYLcD7dP17rn9OgvMyQKLErQNnGZBR62MJwieYiKdQORFOIZBvDr2KoaiY4grCWpBaBCK7AC9a6Jg4CGmRpuMSE6FZLx2BpN5RDOjWwwVkgUkM0pCzmWGOm0btHU/7ImQywAzn/ok7bfIDE3DSDmHjKYRS5DiyfTX5XAZjr4wgO988ev4lWvfg1//4EfAlpS8RgPaZgZB0I48BltdPao5vVluI2eB02SBjgHt3GG1HdwcDFV/zTJ6lgOcURUxA4yIpPLecHxcKu8drQ6gVphAXMy01qlp8yXqvQwhyYvzO/WRBTwFQE2QziyWt50rU7LwXUafzAa0ZY+5g65c/BTVRLJU95Qp8wySJoGAttQ3Ea/abGuoEw48nDukWDGyGv/wR/+I8NA4bnvbrfjQBz+CtMDqg+ZahB6RYCsh3Hnap+m9c7t1FpizBToPtG1QFgojhB8Y71ZKbJAqYKYfoYpUiB+iijoG00Ep5jSMYdT9qsleRGRcWFLHWfxtzpZs04ZGLRKjELF5gqE04iAy1FDsS5INKZ7YD5EkIcZ31PDoFx9DGqX45Zv/LX7jwx+dXCWwmcWZTQy1TTZwh3UWWEoW6BjQzj1o4+o2mFahM0xdDuqTqeqIkgh1ghRSjGEMB6oHcKR6BFXWBilGUvOaHqrsJW/82/CZO+kBMFK/GEHCOtsGtOlVk3tnIzPUUxS9ogRPCdTf/eJTGNhxTC72xhtvxG9+9Dcn2WHS5MEycyfZxJ2rs8BitkDngHZWxpQSPKMMYfBNy5sawGViSeQxxFjDMEbQHx7BUHVIKvHV/TriotGLpNI41yCSgHaHetnmEow+m4BNT9tQG6R8TOp8Qcq7AsWwhJGDw9j2/x5HuC9GEPi4+aab8eEP/YbULJ+02N6287QX8/vvrq0DLdA5oC2JLUYFoaBNkRodb8YNCVI1r4oTOIbD4SH0RwOoBlXJEySYUzMiBe8YkBPvmgWXLFqlY7u/mEopIi2UEq6G02ZNlNCro0QvOwSWRyvw0yd+iqfvexqlsYoUi3rHje/Axz76McnqPAm4+TBPCiR04NPtTtlZYBFaoGNAW1t8GRWEqil81ONQgmjjGMPhtB8Hq4cwFA+hXq4hLVCyp8oJU2PbhPTYjEBTzm20npksbyE9B4YtymqgyMzDiPSSgHw+u77H6Aq70Te2HA994REc+kk/ulBGFEb4wAc+gNtuv00GMan45xZnAWeBBW+BjgFtah+0GoawGx67nNcxhlH014/gKAYxUD+OeiFEXEwR+nUj9UgJ1Fm17CSB7zOzMRMyi8ZPwapR3W7B3zXrBFUlQlmf0D2kScDAI4tamV6UvfVejP10Ag/86YMIJnyUgiL6+vrwu7/7u9iwYYN42u3uu9lJNnfn6izQTgt0DGibKtUpAkrYpI50hGPJUbwy9jKOF4/jOIaQlihTMzWxVU1N45qaIY3aIXniiybAZNxwJ4Yic9CWLElTXZDfseAV6aCoHmFNugb3/8n9GP1JFV1+BbWwiiuuuAKf+OQn0N3V7QC7nW+gO7azwCwt0DGgLYAaSxFSuUTK+HYdfh5HK0dwonsY9UrNTPETliMtaa90FlfJTKJVso2/bvXWNX+3i5PM0ojtXP1k0Da5kaYhciI1tcdfGceX770flaFuFNjVvRzg/b/6ftxyyy15p/upPO2MKW/n5bljOws4CzRZoHNAm7o+cZgNnRF6ER7a+QgOewexestK1MtVhGkNRb8siSZGEdKUR2gpIQwgNRYD4p3KaZuMHMP6MEnIVCAsxSV01Xqw4xs78MK3dqE7WgYvStDb24v//j/+AGvXrjWJOKqiyYe3hh1cjT+HGc4CC8sCHQPaplEuZdiGHmFSyUNPPYKnfvYkNr91E1ZuXIl6oSbtvtgezHjYWf0PK8tQza9txvLs8tfo+7uwbtnJZyP0j6hGSBuZLjqFpICeuAdev4+H/+5bOPLzwyiz4UEtwc3vuBEf+82PGTv5meyxCbDVy3agvdDvvju/pWaBjgFtivYYjGSrLC8k5CbYvv0JPP2j7yFZnmDDNRei94I+jASjiAuhqcKXF1GiF2p3g9QUb1NESbQoHQfajVkEByhqtEXqF7ARQoIiQbvKOiODePjvHkaxWhR+e1mlF5/7n5/D6jWrjZJGOu6kAt7GXob/N0Oeq6a91ADBXe/Ct0DHgDZhJGYtDXYOJ1OSJNj+2ON4dtezqAY1FNYVsPXGraj3VVGv1JHEdXh+gMQ3Kma2VWe6O73LOKutwbochdg036V3OvPmuzaVktUHMfOAXIzYIBgMly6e/zSJKllpq+xpaQwwOp7kswNeO51qAWkGHKUGFgLuu+BJFiiLYfFyu6IudI/1YNuXHsWrz76CoGpUI9dc/VbceecnUCwU5XySOIEfOLnfwn9V3Rk6CxgLdAxoqyQkDYwnmCQpnti2Hc89+xySQiKcNlbHuOqdV2CiMoG0DEyENaK89E9MkghJzFZcPmIG6TJ5nOmhSC7YFF6a+ZJB7aQGB1OAdt7xZup958DctJ9Eq1ZJYShrW+rLs/+YXFRgbb44wkQyAZQSFIICCmkBXbVuVIa78Kef/d/oqlfQ63WDpVY+8Vu/havfcq2hRrJGwVMm1szcEG5NZwFngRZaoHNAOysUxRR0yYnMQPtHz/9IOrbU/BrGS6NYc+EqrL/iAowtq8IrUc4dIY4j+MWS0CskfgN2M0+MRC72TXW/PLN9xsZvpAvmFbdt4M28anPaJr1cA52NRr/ZRU0KiqYIBJgphDG1s7UbjlF4NCoICrdP4PUpdeSgE8kspBJW0FvtxQ++9gxefPzHKNXLKMRFvOH8N+BTv/PbWLtutTQEDgLT41JGbx0kZnz9bkVnAWeBdligc0BbakJp/8NUQHv7tifx/DMvoFQsiZpkwh9HVAlx5pYzse4tZ2PcG0Eglf8Blo+CX4AX+SiyS7nUyY5QL0SIfJiCS7NwtIWmmER3ZP5wMwVi1bnOPWatdS08e3ZQq9RrITFcu5Z0ZS0RgX5KGiVv3xTIMmNQCXFaRJKG4nWXkwJKY0VE/THu+79fRW0gQimuSDf2G266AR/+jQ8IHWIaEptjO0+7Ha+eO6azwNws0FGgzSm9tNrifwLa2/HCjhdQLnahFtaRFhKEQYh6dx3nXn8u+t6wDCibmiQIAkRRjBLKMJRIiiSoIwzqUkDKS0rNKDytRXN14KTgpaaSn7yZ9GkUZjvztfPtMnVL7pUbGWLGAGVh1IY3Tl5ehIzkstnV0ffhhWXEEwUkYYyRY8fRv/cghvYdQ2mijAO7D6M+HKFc7EY9jnHPf7sHmzdvIGMki2ZC0q4ujX1uL5Dbylmg1RboKNAW51JAO5ZA5BOPbceLz7+IJDTTe7/gSyCu5ldR6xvHhqs3YvmGlRgtjiGVno+mNgerAwposTkvQnhShKrQpNye/laoR25ruyfrvJvc7Yy4zmWG9q7zHpB26JIFvrMqKalpbsBzD9KCaNDr1TqGh07g+OBxxIMRov4QJ4aGUJ+oScZoKS2gJ+jFKz9/BfUJoybZvPVi/P5/+YzsV/pm5iVpjcftvO1Wv3rueM4Cc7NA54C2Yhp56DQSquSxxx7DszueQ0+lB/V6KBZglxovoF6ZgUkP579lIyrnlzHhj0kNbdIEhOokZj0SD0Eco1QsoJaQE56hEfOONMTArDUZIV+BUEqjmJ0Jky3KlQBkN9KYQdRYBgqfyhZSPhIUNGx16nuImEBEZUtaRDkpw6/5SEYSDLw6gGO/GMTIkREk1RRe5CFgvWzyO6RatONN6qFcrmDvS3swUZ1A6kf47B98Fhs3boQnJEphhhfqVnMWcBZYaBboLNAW5V6mc0OCXS/uwlNPPYXRkTEJqrEYVESFCME4AWqFKkrnVXDh2y5EtCI0TRDEuzaFokppUaiSmIAtHWBmSGoLaBs+2hRqEr89+0kdXSZN5HoSKEwQRaGsUiiwNQHVLEwAMigr5+ux8iBBHYgmUkQTMcaHxjF44CiOHTiO6tEqKkkZQT1AKSmjhJIkGnnZACDzD4/SRQPe5UoFu3++G/X6BC7ctAH/9bO/LyNIwS+5ro8L7S105+MsMAsLdBxoG2g0CpIoDrHzuR3Y/uR2FAoMxiVGd8yeLXUfxUqAMX8ElTd04Q3XrkdtZYxaqWYgm8gWeij4FYHbBFlVwJkYb0rQzrrneKQysk7qTC1PU8TFUFqfkZrx00CCnkFsPoW0hKSaYGhwBMcGjqN+oorw0ChqJyZQG6+SuUaQFsVzD1DMgD5zqUn3SJCSVcLp9ftICP7wUCyX8fPdu8H+Bu9997vx3vf8O6GUjCZ7plOKmRjDreMs4CzQSgt0DGirwC6JDK0giSEJezym2Pb4Njz7/LMGuGMGFT0Ugy5EtRr8YoqJ0gT6Nq/A+deux0h5BHFQR4HgxdrTccGUavXNvma2ZKVdRY6nnjabtwcmoJedg9a2Dot1RGksfHQ5rSCoF+CPpTi27ziO7D2C4weOiyTPj3zURuvoCSooUOnCRKDEyBtFm043nNrErKKsqTNixCSmJouhVQjapXIZe/bsQblQxH/6nbtx0cZNphdkQ0o+s0t1azkLOAssKAt0DGjHWTKIUAoEMdIKAt6J8LYPP/IQXt23D2EtQsCa2VnFP+Iw5YBRb4gzLl2Dsy47AxOVMYynEygWKuxRJh6w4aZPDbSlIYFowOkd+/KTn/BEhGg8xvjwOIYGhnDs0CAmjo0BNQ+luCgp5+J9Z0FH8vKkgUQlQs89k/qJPl2+NIVq49Sk9lMOosFKVaqUKiW89PLLuOiii/CpT30KlVIZHON80tnO0V5QL6E7GWeB2VigY0CbBAChSuppGz7DBP7Ec0wxPDyEBx54AINHjxneu+ghDBMUvbJ4qmkxRNg1jrOvPBMr37gaw4UR+IVAqt5RmZHr4F6r0l+G6axjosinQC28tFAfAZJ6grGhMRw9NIgTR4ZRPFwEhoFqtSrnopJBpuTL4JPRKMJ/k5dmH8zsGum9K/fdcJWp+MjKyWYlZbkOk3JIzdDXLneV8eOf/QSf/I+/jauu+jdS1Zbg7xrUzOb1cOs6Cyw8C3QMaGsSSl51TgFUKtUxlTuWn5//P59HGEcImZaepCjS2yWlUvRQ8+uo90XYcO0m9F7Qi/HCCMJCXXjhIPIlmMmF+8q7uRBXBWgZVBSRhmm0IA4v6Y4SCvUikrEEw4dP4Mi+AQzsO4LaCJNdAkkpL4ZFM9jMYDFYzQ47JjBJdDbddhqZiyJ91JkHQZ7BSNPmWGqzcN1yuYSjg4P43B//sexLAp+ZusVlP87gRrhVnAUWqAU6BrSns5+d2Ucw2r9/Px56+CEMj40I+Jb9ItLIAHqIGLViiGBNARddtxmFM32c8IeBYmrS2slFZ/0SGQA0DW8C6SdZoMcrdT5iJOMxoqEaRo+NYvToCEYHRjE2OMHODCjEAfw4QNEjJ23AsuEhz+wpMA0MKA00QMuP7IeJN1bqOf8dx7GAsq6jmutSqYTrr79ePjoA6b5mdhZuLWcBZ4GFaIGOB20aVb1QAhjB7aWXXsJDD31DwCyimsQvIIxiFEsFRH6IsFRD2FPDFbdciWQFMBFQy2y29T1yy0bZQUldkJZQjEs4cWwEh/YfwuDAMXjHQnjHI8S1CL6sYygM4bFFume019L+y6dXPrfonw22CsZ6rXrdCuw2mFNWeM455+B973sfuru7BejtAWAhPojunJwFnAVmZoFFAdo2cJvKdQme37lTpIB10ggsFhXTk47pKyMOavD7fPhrC7j42ktQ701QLUZSOTCgp1wDktEQ0fEQg68OSFJLPFJHBWWk9RRp6KEUdJHFlqCoAqmANekUP5YEH2ZuUt1BNctsmwnYzXbz/WcUCUE5DJnJ6Qkoc3AqFos4++yzcfHFF0sSDb9XGkQB22U9zuylcGs5CyxkC3Q8aCuNoLytUAX0vqMYT33vu9i56wWM1esCsEWfaeAM8oWo+1XEPQnWbToT51/0BgyfGMaJ4ycwfGwYo8dGUB0aRzQeoRAFou4gN+2LztoH03eYyCJJOhm3bmp3mKp8oprOqhEyKCpVBecg2WimRQi+vN5ly5bhjDPOwJlnnolVq1bJ7/yUy+Um7lt7RRraR2YSFG67xVnAWaBjLdDxoC1FpJgpmZUa5Z2QsqZRJAHJR771CH72r/8KzytIYosnnnEMr5ii5tUk8WXVyuU49spRpHEi3ra2sZG+BQQ5NknI2pd5pD+kamCMmNSLF6Dg0+OWFjCGHhENuanMJxz59P0PXvfBIUiT3ujp6cGWLVvEk169ejXIWfPTzFM3l1pVztsuCuUCka9rdreCs8CCtUDHg/Z0lhVg9jyMj43j619/EPt/cQCeb5JvpMsWG9r6rDcSolwqY/DIsKnyZ5VIVTe6UZPEuNUiySMFIrFBgjK7yJiEG0ODNITQ2sKgWbnRXBpVA40EYlIb9JoJzhs2bJAPf3eLs4CzgLPAogVtJuMEGb89NjyCb37zIezbfxBeUDR6b9HuRawCgkqlgkNHB0UjbZbJSTbNKTfUQVOPZySAvnjoufcqkjvjabO9mSzZdxosJB+tv3M7etHko88//3yhO1asWCEfgrcuzjt2L6uzgLOAwElqyxEWiU0IsrUwRLnIWh2GPjl86BC++sDXMDZek7Rv0hgB/xBH6O7uwsGBfqvKX6OLe8NrbnjPVIsUEk+4a9IO9KbJkLCSH4tPRUlkcnUI2tRzU8In1f1IvyTiRS9fvhxbtm7B5k2bcdZZZ+WgzyBj8yK8PQchHsQtzgLOAkvaAosStMVXznhk0iQMDdLbfelfX8aj33kU1fE66mGIUrkk9Ty6urtwpP+Q9SBktUWMm5x9b+V+Uw1CeYh40Maj5nGiRBLQpScl6ZcwigSg+7p7sWrlKqxZs0Y86vPOOw8rV66UoCFBupmHnqTPpkcviT0u93xJv6nu4p0FFIkWo6fNa0tqCfwSBX7snkh+m+WUPOx+8afY/th2VGt1RH6K0EtR6a7g2KGjJ+k7rF4zWd8ZYzUTYsw8aFIhMeudFESTHUURuipdOO+cc3HBBRfgjHXr0Le8D319fULDaOBwKkmfyBWbejZKA14H2u6FdRZwFljUoJ116DJ1stmEPEaRqeBJgkLq4wfffxpPPfU9oFRAjZ52bw8GDw1IMFG7yxhYZvq6QjR97qwwrO9JsSZRjpDOSFOsWrEKmzZtwpaLt+Dss8+Vv6mjTm9cijpl3rLtSSt4a2BSJXk2qLun1VnAWcBZQC2waOkRwVer92J+y1OgNlHF0z94Gjt27hQwpQc8cORo3naLfLRqok2w0QAuvWjW9Fi+fAVWrlqFtWvX4Mx1Z+Lc884Tjpo9GyeV0LP6IrhHzlnAWcBZYD4ssHhBexrrKP1QD+v49re+jd27d4veeXBwME9AUc03vWgCNQF7/fr1uPDCC0XhQbWHyvLUm55txuN83Dy3D2cBZ4GlZ4ElC9q81SdOnMA3vvENDA0NYWBgQO4+A4dMCe/t7ZWMQya0SG/FrAwswZkJK1oRsJmDXnqPkLtiZwFngVZaYMmBNgFXU7oJvP39/di2bZsA9dq1ayWJZd26daKX5t9l3SwY2FzAiTdqEmhnzXlbeQPdsZwFnAWWlgWWHmgnselsk5pCTwRlNidgAJA0iQ3M01XGy4OHFBPGph6IAvzSenzc1ToLOAu02gJLDrRpYJveUIPbHvNUlIedgzSVNK/VN84dz1nAWWBpWmBJgvbSvNXuqp0FnAUWgwUcaC+Gu+iuwVnAWWDJWMCB9pK51e5CnQWcBRaDBRxoL4a76K7BWcBZYMlYwIH2krnV7kKdBZwFFoMFHGgvhrvorsFZwFlgyVjAgfaSudXuQp0FnAUWgwX+P4DZEoINIZ7PAAAAAElFTkSuQmCC;" vertex="1" parent="yVzOJAB2hOpr57MsigEM-71">
          <mxGeometry width="105.29" height="150" as="geometry" />
        </mxCell>
        <mxCell id="yVzOJAB2hOpr57MsigEM-70" value="" style="group" vertex="1" connectable="0" parent="yVzOJAB2hOpr57MsigEM-71">
          <mxGeometry x="23.5" y="30" width="63.5" height="80" as="geometry" />
        </mxCell>
        <mxCell id="yVzOJAB2hOpr57MsigEM-23" value="" style="ellipse;whiteSpace=wrap;html=1;fillColor=#e51400;strokeColor=#CC0000;fontColor=#ffffff;" vertex="1" parent="yVzOJAB2hOpr57MsigEM-70">
          <mxGeometry x="36.5" width="10" height="10" as="geometry" />
        </mxCell>
        <mxCell id="yVzOJAB2hOpr57MsigEM-24" value="" style="ellipse;whiteSpace=wrap;html=1;fillColor=#e51400;strokeColor=#CC0000;fontColor=#ffffff;" vertex="1" parent="yVzOJAB2hOpr57MsigEM-70">
          <mxGeometry x="53.5" y="40" width="10" height="10" as="geometry" />
        </mxCell>
        <mxCell id="yVzOJAB2hOpr57MsigEM-25" value="" style="ellipse;whiteSpace=wrap;html=1;fillColor=#e51400;strokeColor=#CC0000;fontColor=#ffffff;" vertex="1" parent="yVzOJAB2hOpr57MsigEM-70">
          <mxGeometry x="10" y="30" width="10" height="10" as="geometry" />
        </mxCell>
        <mxCell id="yVzOJAB2hOpr57MsigEM-26" value="" style="ellipse;whiteSpace=wrap;html=1;fillColor=#e51400;strokeColor=#CC0000;fontColor=#ffffff;" vertex="1" parent="yVzOJAB2hOpr57MsigEM-70">
          <mxGeometry y="70" width="10" height="10" as="geometry" />
        </mxCell>
        <mxCell id="yVzOJAB2hOpr57MsigEM-74" value="" style="edgeStyle=none;rounded=1;orthogonalLoop=1;jettySize=auto;html=1;endArrow=classic;endFill=1;strokeColor=#00994D;shape=flexArrow;" edge="1" parent="1" source="yVzOJAB2hOpr57MsigEM-1" target="yVzOJAB2hOpr57MsigEM-73">
          <mxGeometry relative="1" as="geometry" />
        </mxCell>
        <mxCell id="yVzOJAB2hOpr57MsigEM-1" value="kendra" style="sketch=0;points=[[0,0,0],[0.25,0,0],[0.5,0,0],[0.75,0,0],[1,0,0],[0,1,0],[0.25,1,0],[0.5,1,0],[0.75,1,0],[1,1,0],[0,0.25,0],[0,0.5,0],[0,0.75,0],[1,0.25,0],[1,0.5,0],[1,0.75,0]];outlineConnect=0;fontColor=#232F3E;gradientColor=#4AB29A;gradientDirection=north;fillColor=#116D5B;strokeColor=#ffffff;dashed=0;verticalLabelPosition=bottom;verticalAlign=top;align=center;html=1;fontSize=12;fontStyle=0;aspect=fixed;shape=mxgraph.aws4.resourceIcon;resIcon=mxgraph.aws4.kendra;" vertex="1" parent="1">
          <mxGeometry x="226" y="211.5" width="77" height="78" as="geometry" />
        </mxCell>
        <mxCell id="yVzOJAB2hOpr57MsigEM-14" style="edgeStyle=orthogonalEdgeStyle;rounded=1;orthogonalLoop=1;jettySize=auto;html=1;entryX=0;entryY=0.25;entryDx=0;entryDy=0;entryPerimeter=0;strokeColor=#00994D;" edge="1" parent="1" source="yVzOJAB2hOpr57MsigEM-10" target="yVzOJAB2hOpr57MsigEM-1">
          <mxGeometry relative="1" as="geometry" />
        </mxCell>
        <mxCell id="yVzOJAB2hOpr57MsigEM-15" style="edgeStyle=orthogonalEdgeStyle;rounded=1;orthogonalLoop=1;jettySize=auto;html=1;entryX=0;entryY=0.75;entryDx=0;entryDy=0;entryPerimeter=0;strokeColor=#00994D;" edge="1" parent="1" source="yVzOJAB2hOpr57MsigEM-11" target="yVzOJAB2hOpr57MsigEM-1">
          <mxGeometry relative="1" as="geometry" />
        </mxCell>
        <mxCell id="yVzOJAB2hOpr57MsigEM-17" style="edgeStyle=orthogonalEdgeStyle;rounded=1;orthogonalLoop=1;jettySize=auto;html=1;strokeColor=#00994D;" edge="1" parent="1" source="yVzOJAB2hOpr57MsigEM-12" target="yVzOJAB2hOpr57MsigEM-1">
          <mxGeometry relative="1" as="geometry">
            <Array as="points">
              <mxPoint x="243" y="369" />
            </Array>
          </mxGeometry>
        </mxCell>
        <mxCell id="yVzOJAB2hOpr57MsigEM-19" value="Data Source" style="points=[[0,0],[0.25,0],[0.5,0],[0.75,0],[1,0],[1,0.25],[1,0.5],[1,0.75],[1,1],[0.75,1],[0.5,1],[0.25,1],[0,1],[0,0.75],[0,0.5],[0,0.25]];outlineConnect=0;gradientColor=none;html=1;whiteSpace=wrap;fontSize=12;fontStyle=0;container=1;pointerEvents=0;collapsible=0;recursiveResize=0;shape=mxgraph.aws4.group;grIcon=mxgraph.aws4.group_aws_cloud;strokeColor=#232F3E;fillColor=none;verticalAlign=top;align=left;spacingLeft=30;fontColor=#232F3E;dashed=0;" vertex="1" parent="1">
          <mxGeometry x="33" y="60" width="117.5" height="370" as="geometry" />
        </mxCell>
        <mxCell id="yVzOJAB2hOpr57MsigEM-3" value="" style="verticalLabelPosition=bottom;shadow=0;dashed=0;align=center;html=1;verticalAlign=top;shape=mxgraph.electrical.logic_gates.logic_gate;operation=and;fillColor=#00CC00;strokeColor=#00994D;" vertex="1" parent="yVzOJAB2hOpr57MsigEM-19">
          <mxGeometry x="79" y="59.25" width="19" height="10" as="geometry" />
        </mxCell>
        <mxCell id="yVzOJAB2hOpr57MsigEM-4" value="jira" style="image;image=img/lib/atlassian/Jira_Software_Logo.svg;labelBackgroundColor=none;" vertex="1" parent="yVzOJAB2hOpr57MsigEM-19">
          <mxGeometry x="31" y="39.25" width="43" height="50" as="geometry" />
        </mxCell>
        <mxCell id="yVzOJAB2hOpr57MsigEM-8" value="RDS" style="outlineConnect=0;dashed=0;verticalLabelPosition=bottom;verticalAlign=top;align=center;html=1;shape=mxgraph.aws3.rds;fillColor=#2E73B8;gradientColor=none;" vertex="1" parent="yVzOJAB2hOpr57MsigEM-19">
          <mxGeometry x="31" y="205.75" width="43" height="45" as="geometry" />
        </mxCell>
        <mxCell id="yVzOJAB2hOpr57MsigEM-9" value="Amazon S3" style="outlineConnect=0;fontColor=#232F3E;gradientColor=#60A337;gradientDirection=north;fillColor=#277116;strokeColor=#ffffff;dashed=0;verticalLabelPosition=bottom;verticalAlign=top;align=center;html=1;fontSize=12;fontStyle=0;aspect=fixed;shape=mxgraph.aws4.resourceIcon;resIcon=mxgraph.aws4.s3;labelBackgroundColor=none;" vertex="1" parent="yVzOJAB2hOpr57MsigEM-19">
          <mxGeometry x="30" y="283.75" width="46" height="47" as="geometry" />
        </mxCell>
        <mxCell id="yVzOJAB2hOpr57MsigEM-10" value="" style="verticalLabelPosition=bottom;shadow=0;dashed=0;align=center;html=1;verticalAlign=top;shape=mxgraph.electrical.logic_gates.logic_gate;operation=and;fillColor=#00CC00;strokeColor=#00994D;" vertex="1" parent="yVzOJAB2hOpr57MsigEM-19">
          <mxGeometry x="79" y="142.75" width="19" height="10" as="geometry" />
        </mxCell>
        <mxCell id="yVzOJAB2hOpr57MsigEM-11" value="" style="verticalLabelPosition=bottom;shadow=0;dashed=0;align=center;html=1;verticalAlign=top;shape=mxgraph.electrical.logic_gates.logic_gate;operation=and;fillColor=#00CC00;strokeColor=#00994D;" vertex="1" parent="yVzOJAB2hOpr57MsigEM-19">
          <mxGeometry x="79" y="220.75" width="19" height="10" as="geometry" />
        </mxCell>
        <mxCell id="yVzOJAB2hOpr57MsigEM-12" value="" style="verticalLabelPosition=bottom;shadow=0;dashed=0;align=center;html=1;verticalAlign=top;shape=mxgraph.electrical.logic_gates.logic_gate;operation=and;fillColor=#00CC00;strokeColor=#00994D;" vertex="1" parent="yVzOJAB2hOpr57MsigEM-19">
          <mxGeometry x="79" y="303.75" width="19" height="10" as="geometry" />
        </mxCell>
        <mxCell id="yVzOJAB2hOpr57MsigEM-13" value="slack" style="shape=image;html=1;verticalAlign=top;verticalLabelPosition=bottom;labelBackgroundColor=none;imageAspect=0;aspect=fixed;image=https://cdn2.iconfinder.com/data/icons/social-media-2285/512/1_Slack_colored_svg-128.png;fillColor=#00CC00;" vertex="1" parent="yVzOJAB2hOpr57MsigEM-19">
          <mxGeometry x="27" y="123.75" width="47" height="48" as="geometry" />
        </mxCell>
        <mxCell id="yVzOJAB2hOpr57MsigEM-20" style="edgeStyle=orthogonalEdgeStyle;orthogonalLoop=1;jettySize=auto;html=1;strokeColor=#00994D;rounded=1;" edge="1" parent="1" source="yVzOJAB2hOpr57MsigEM-3" target="yVzOJAB2hOpr57MsigEM-1">
          <mxGeometry relative="1" as="geometry">
            <Array as="points">
              <mxPoint x="243" y="124" />
            </Array>
          </mxGeometry>
        </mxCell>
        <mxCell id="yVzOJAB2hOpr57MsigEM-63" style="rounded=0;orthogonalLoop=1;jettySize=auto;html=1;entryX=0;entryY=0;entryDx=0;entryDy=0;endArrow=none;endFill=0;exitX=1;exitY=0.5;exitDx=0;exitDy=0;" edge="1" parent="1" source="yVzOJAB2hOpr57MsigEM-33" target="yVzOJAB2hOpr57MsigEM-23">
          <mxGeometry relative="1" as="geometry">
            <mxPoint x="279.71" y="760" as="sourcePoint" />
          </mxGeometry>
        </mxCell>
        <mxCell id="yVzOJAB2hOpr57MsigEM-68" style="edgeStyle=none;rounded=0;orthogonalLoop=1;jettySize=auto;html=1;entryX=0;entryY=0;entryDx=0;entryDy=0;endArrow=none;endFill=0;exitX=1;exitY=0.75;exitDx=0;exitDy=0;" edge="1" parent="1" source="yVzOJAB2hOpr57MsigEM-33" target="yVzOJAB2hOpr57MsigEM-24">
          <mxGeometry relative="1" as="geometry" />
        </mxCell>
        <mxCell id="yVzOJAB2hOpr57MsigEM-69" style="edgeStyle=none;rounded=0;orthogonalLoop=1;jettySize=auto;html=1;entryX=0;entryY=0;entryDx=0;entryDy=0;endArrow=none;endFill=0;" edge="1" parent="1" source="yVzOJAB2hOpr57MsigEM-33" target="yVzOJAB2hOpr57MsigEM-25">
          <mxGeometry relative="1" as="geometry" />
        </mxCell>
        <mxCell id="yVzOJAB2hOpr57MsigEM-33" value="농약사용" style="points=[[0,0],[0.25,0],[0.5,0],[0.75,0],[1,0],[1,0.25],[1,0.5],[1,0.75],[1,1],[0.75,1],[0.5,1],[0.25,1],[0,1],[0,0.75],[0,0.5],[0,0.25]];outlineConnect=0;gradientColor=none;html=1;whiteSpace=wrap;fontSize=12;fontStyle=0;container=1;pointerEvents=0;collapsible=0;recursiveResize=0;shape=mxgraph.aws4.group;grIcon=mxgraph.aws4.group_corporate_data_center;strokeColor=#5A6C86;fillColor=none;verticalAlign=top;align=left;spacingLeft=30;fontColor=#5A6C86;dashed=0;" vertex="1" parent="1">
          <mxGeometry x="39.71" y="650" width="250" height="150" as="geometry" />
        </mxCell>
        <mxCell id="yVzOJAB2hOpr57MsigEM-36" value="소매" style="swimlane;strokeColor=#666666;fillColor=#f5f5f5;fontColor=#333333;" vertex="1" parent="yVzOJAB2hOpr57MsigEM-33">
          <mxGeometry x="10" y="40" width="110" height="100" as="geometry" />
        </mxCell>
        <mxCell id="yVzOJAB2hOpr57MsigEM-48" value="" style="shape=image;html=1;verticalAlign=top;verticalLabelPosition=bottom;labelBackgroundColor=#ffffff;imageAspect=0;aspect=fixed;image=https://cdn1.iconfinder.com/data/icons/unicons-line-vol-3/24/x-128.png;strokeColor=#0000FF;fillColor=#F7FFE8;" vertex="1" parent="yVzOJAB2hOpr57MsigEM-36">
          <mxGeometry x="69" y="50" width="30.5" height="30.5" as="geometry" />
        </mxCell>
        <mxCell id="yVzOJAB2hOpr57MsigEM-59" value="매출" style="shape=cylinder3;whiteSpace=wrap;html=1;boundedLbl=1;backgroundOutline=1;size=5.25;strokeColor=#82b366;fillColor=#d5e8d4;" vertex="1" parent="yVzOJAB2hOpr57MsigEM-36">
          <mxGeometry x="10" y="33.25" width="50" height="60" as="geometry" />
        </mxCell>
        <mxCell id="yVzOJAB2hOpr57MsigEM-49" value="도매" style="swimlane;strokeColor=#666666;fillColor=#f5f5f5;fontColor=#333333;" vertex="1" parent="yVzOJAB2hOpr57MsigEM-33">
          <mxGeometry x="130" y="40" width="110" height="100" as="geometry" />
        </mxCell>
        <mxCell id="yVzOJAB2hOpr57MsigEM-46" value="매출" style="shape=cylinder3;whiteSpace=wrap;html=1;boundedLbl=1;backgroundOutline=1;size=4.5;strokeColor=#d79b00;fillColor=#ffe6cc;" vertex="1" parent="yVzOJAB2hOpr57MsigEM-49">
          <mxGeometry x="14" y="46" width="20" height="44" as="geometry" />
        </mxCell>
        <mxCell id="yVzOJAB2hOpr57MsigEM-60" value="매입" style="shape=cylinder3;whiteSpace=wrap;html=1;boundedLbl=1;backgroundOutline=1;size=5.25;strokeColor=#d79b00;fillColor=#ffe6cc;" vertex="1" parent="yVzOJAB2hOpr57MsigEM-49">
          <mxGeometry x="50" y="33.25" width="50" height="60" as="geometry" />
        </mxCell>
        <mxCell id="yVzOJAB2hOpr57MsigEM-66" style="edgeStyle=none;rounded=0;orthogonalLoop=1;jettySize=auto;html=1;exitX=1;exitY=0.75;exitDx=0;exitDy=0;entryX=0;entryY=1;entryDx=0;entryDy=0;endArrow=none;endFill=0;" edge="1" parent="1" source="yVzOJAB2hOpr57MsigEM-52" target="yVzOJAB2hOpr57MsigEM-26">
          <mxGeometry relative="1" as="geometry" />
        </mxCell>
        <mxCell id="yVzOJAB2hOpr57MsigEM-52" value="총판용" style="points=[[0,0],[0.25,0],[0.5,0],[0.75,0],[1,0],[1,0.25],[1,0.5],[1,0.75],[1,1],[0.75,1],[0.5,1],[0.25,1],[0,1],[0,0.75],[0,0.5],[0,0.25]];outlineConnect=0;gradientColor=none;html=1;whiteSpace=wrap;fontSize=12;fontStyle=0;container=1;pointerEvents=0;collapsible=0;recursiveResize=0;shape=mxgraph.aws4.group;grIcon=mxgraph.aws4.group_corporate_data_center;strokeColor=#5A6C86;fillColor=none;verticalAlign=top;align=left;spacingLeft=30;fontColor=#5A6C86;dashed=0;" vertex="1" parent="1">
          <mxGeometry x="39.71" y="815.5" width="250" height="150" as="geometry" />
        </mxCell>
        <mxCell id="yVzOJAB2hOpr57MsigEM-53" value="소매" style="swimlane;strokeColor=#666666;fillColor=#f5f5f5;fontColor=#333333;" vertex="1" parent="yVzOJAB2hOpr57MsigEM-52">
          <mxGeometry x="10" y="40" width="110" height="100" as="geometry" />
        </mxCell>
        <mxCell id="yVzOJAB2hOpr57MsigEM-55" value="" style="shape=image;html=1;verticalAlign=top;verticalLabelPosition=bottom;labelBackgroundColor=#ffffff;imageAspect=0;aspect=fixed;image=https://cdn1.iconfinder.com/data/icons/unicons-line-vol-3/24/x-128.png;strokeColor=#0000FF;fillColor=#F7FFE8;" vertex="1" parent="yVzOJAB2hOpr57MsigEM-53">
          <mxGeometry x="69" y="50" width="30.5" height="30.5" as="geometry" />
        </mxCell>
        <mxCell id="yVzOJAB2hOpr57MsigEM-39" value="매출" style="shape=cylinder3;whiteSpace=wrap;html=1;boundedLbl=1;backgroundOutline=1;size=5.25;strokeColor=#b85450;fillColor=#f8cecc;" vertex="1" parent="yVzOJAB2hOpr57MsigEM-53">
          <mxGeometry x="10" y="33.25" width="50" height="60" as="geometry" />
        </mxCell>
        <mxCell id="yVzOJAB2hOpr57MsigEM-56" value="도매" style="swimlane;strokeColor=#666666;fillColor=#f5f5f5;fontColor=#333333;" vertex="1" parent="yVzOJAB2hOpr57MsigEM-52">
          <mxGeometry x="130" y="40" width="110" height="100" as="geometry" />
        </mxCell>
        <mxCell id="yVzOJAB2hOpr57MsigEM-41" value="매출" style="shape=cylinder3;whiteSpace=wrap;html=1;boundedLbl=1;backgroundOutline=1;size=3.5;strokeColor=#9673a6;fillColor=#e1d5e7;" vertex="1" parent="yVzOJAB2hOpr57MsigEM-56">
          <mxGeometry x="14" y="46" width="20" height="44" as="geometry" />
        </mxCell>
        <mxCell id="yVzOJAB2hOpr57MsigEM-61" value="매입" style="shape=cylinder3;whiteSpace=wrap;html=1;boundedLbl=1;backgroundOutline=1;size=5.25;strokeColor=#9673a6;fillColor=#e1d5e7;" vertex="1" parent="yVzOJAB2hOpr57MsigEM-56">
          <mxGeometry x="50" y="33.25" width="50" height="60" as="geometry" />
        </mxCell>
        <mxCell id="yVzOJAB2hOpr57MsigEM-73" value="kendra index" style="sketch=0;outlineConnect=0;fontColor=#232F3E;gradientColor=none;fillColor=#3F8624;strokeColor=none;dashed=0;verticalLabelPosition=bottom;verticalAlign=top;align=center;html=1;fontSize=12;fontStyle=0;aspect=fixed;pointerEvents=1;shape=mxgraph.aws4.bucket_with_objects;" vertex="1" parent="1">
          <mxGeometry x="415.99999999999994" y="211.5" width="75" height="78" as="geometry" />
        </mxCell>
        <mxCell id="yVzOJAB2hOpr57MsigEM-75" value="save &amp;amp;&lt;br style=&quot;font-size: 14px;&quot;&gt;&lt;br style=&quot;font-size: 14px;&quot;&gt;synchronize" style="text;html=1;strokeColor=none;fillColor=none;align=center;verticalAlign=middle;whiteSpace=wrap;rounded=0;fontStyle=1;fontSize=14;" vertex="1" parent="1">
          <mxGeometry x="319" y="222.5" width="60" height="54.5" as="geometry" />
        </mxCell>
        <mxCell id="yVzOJAB2hOpr57MsigEM-80" style="edgeStyle=none;rounded=1;orthogonalLoop=1;jettySize=auto;html=1;fontSize=12;fontColor=#3333FF;endArrow=classic;endFill=1;strokeColor=#00994D;" edge="1" parent="1" source="yVzOJAB2hOpr57MsigEM-77" target="yVzOJAB2hOpr57MsigEM-73">
          <mxGeometry relative="1" as="geometry" />
        </mxCell>
        <mxCell id="yVzOJAB2hOpr57MsigEM-77" value="" style="html=1;verticalLabelPosition=bottom;align=center;labelBackgroundColor=#ffffff;verticalAlign=top;strokeWidth=2;strokeColor=#000000;shadow=0;dashed=0;shape=mxgraph.ios7.icons.documents;fontSize=14;fillColor=default;" vertex="1" parent="1">
          <mxGeometry x="407" y="130" width="38.5" height="40" as="geometry" />
        </mxCell>
        <mxCell id="yVzOJAB2hOpr57MsigEM-82" value="" style="group" vertex="1" connectable="0" parent="1">
          <mxGeometry x="448" y="129" width="60" height="40" as="geometry" />
        </mxCell>
        <mxCell id="yVzOJAB2hOpr57MsigEM-78" value="" style="html=1;verticalLabelPosition=bottom;align=center;labelBackgroundColor=#ffffff;verticalAlign=top;strokeWidth=2;strokeColor=#000000;shadow=0;dashed=0;shape=mxgraph.ios7.icons.documents;fontSize=14;fillColor=default;" vertex="1" parent="yVzOJAB2hOpr57MsigEM-82">
          <mxGeometry x="14.5" width="38.5" height="40" as="geometry" />
        </mxCell>
        <mxCell id="yVzOJAB2hOpr57MsigEM-79" value="FAQ" style="text;html=1;strokeColor=none;fillColor=none;align=center;verticalAlign=middle;whiteSpace=wrap;rounded=0;fontSize=12;fontColor=#3333FF;fontStyle=1" vertex="1" parent="yVzOJAB2hOpr57MsigEM-82">
          <mxGeometry y="8" width="60" height="30" as="geometry" />
        </mxCell>
        <mxCell id="yVzOJAB2hOpr57MsigEM-83" style="edgeStyle=none;rounded=1;orthogonalLoop=1;jettySize=auto;html=1;fontSize=12;fontColor=#3333FF;endArrow=classic;endFill=1;strokeColor=#00994D;" edge="1" parent="1" source="yVzOJAB2hOpr57MsigEM-79" target="yVzOJAB2hOpr57MsigEM-73">
          <mxGeometry relative="1" as="geometry" />
        </mxCell>
        <mxCell id="yVzOJAB2hOpr57MsigEM-91" style="edgeStyle=none;rounded=1;orthogonalLoop=1;jettySize=auto;html=1;fontSize=12;fontColor=#3333FF;startArrow=block;startFill=0;endArrow=classic;endFill=1;strokeColor=#3333FF;shape=flexArrow;" edge="1" parent="1" source="yVzOJAB2hOpr57MsigEM-86" target="yVzOJAB2hOpr57MsigEM-73">
          <mxGeometry relative="1" as="geometry" />
        </mxCell>
        <mxCell id="yVzOJAB2hOpr57MsigEM-86" value="User" style="sketch=0;outlineConnect=0;fontColor=#232F3E;gradientColor=none;strokeColor=#232F3E;fillColor=none;dashed=0;verticalLabelPosition=bottom;verticalAlign=top;align=center;html=1;fontSize=12;fontStyle=0;aspect=fixed;shape=mxgraph.aws4.resourceIcon;resIcon=mxgraph.aws4.user;" vertex="1" parent="1">
          <mxGeometry x="603" y="220.5" width="60" height="60" as="geometry" />
        </mxCell>
        <mxCell id="yVzOJAB2hOpr57MsigEM-96" value="Query&lt;br&gt;&lt;br&gt;Response" style="text;html=1;strokeColor=none;fillColor=none;align=center;verticalAlign=middle;whiteSpace=wrap;rounded=0;fontStyle=1;fontSize=14;" vertex="1" parent="1">
          <mxGeometry x="517" y="223.25" width="60" height="54.5" as="geometry" />
        </mxCell>
        <mxCell id="yVzOJAB2hOpr57MsigEM-101" value="" style="curved=1;endArrow=classic;html=1;rounded=1;fontSize=12;fontColor=#3333FF;strokeColor=#3333FF;entryX=1;entryY=1;entryDx=0;entryDy=0;entryPerimeter=0;" edge="1" parent="1" source="yVzOJAB2hOpr57MsigEM-86" target="yVzOJAB2hOpr57MsigEM-1">
          <mxGeometry width="50" height="50" relative="1" as="geometry">
            <mxPoint x="636" y="320" as="sourcePoint" />
            <mxPoint x="271" y="321" as="targetPoint" />
            <Array as="points">
              <mxPoint x="520" y="360" />
              <mxPoint x="400" y="360" />
            </Array>
          </mxGeometry>
        </mxCell>
        <mxCell id="yVzOJAB2hOpr57MsigEM-102" value="Feedback &amp;amp; Learning" style="text;html=1;strokeColor=none;fillColor=none;align=center;verticalAlign=middle;whiteSpace=wrap;rounded=0;fontStyle=1;fontSize=14;" vertex="1" parent="1">
          <mxGeometry x="379" y="344" width="174" height="54.5" as="geometry" />
        </mxCell>
      </root>
    </mxGraphModel>
  </diagram>
</mxfile>
